<svg width="426" height="392" viewBox="0 0 426 392" fill="none" xmlns="http://www.w3.org/2000/svg">
<path d="M141.851 297.832C148.527 299.479 149.461 306.15 151.117 311.449C166.736 304.242 180.407 301.669 198 304.787C189.475 315.855 176.738 324.095 163.159 329.566C167.398 332.196 172.154 335.475 177.122 336.547C175.764 341.562 175.353 342.867 172.923 347.506C162.656 347.548 152.992 345.549 143.136 343.273C141.731 343.201 133.048 344.024 130.955 344.207C122.417 344.952 116.309 345.094 107.752 344.523C108.209 339.942 108.493 337.608 109.613 333.151C113.726 331.402 119.661 329.396 124.026 327.758C107.884 317.416 101.625 313.178 90 298.716C110.229 298.501 118.634 300.495 135.849 309.63C137.393 304.8 138.499 301.959 141.851 297.832Z" fill="#FE0101"/>
<path d="M249.851 342C256.527 343.647 257.461 350.318 259.117 355.617C274.736 348.41 288.407 345.837 306 348.955C297.475 360.023 284.738 368.263 271.159 373.734C275.398 376.364 280.154 379.643 285.122 380.715C283.764 385.73 283.353 387.035 280.923 391.674C270.656 391.716 260.992 389.717 251.136 387.441C249.731 387.369 241.048 388.192 238.955 388.375C230.417 389.12 224.309 389.262 215.752 388.691C216.209 384.109 216.493 381.776 217.613 377.319C221.726 375.569 227.661 373.564 232.026 371.926C215.884 361.584 209.625 357.346 198 342.884C218.229 342.669 226.634 344.663 243.849 353.798C245.393 348.968 246.499 346.127 249.851 342Z" fill="#FE0101"/>
<path d="M369.851 243C376.527 244.647 377.461 251.318 379.117 256.617C394.736 249.41 408.407 246.837 426 249.955C417.475 261.023 404.738 269.263 391.159 274.734C395.398 277.364 400.154 280.643 405.122 281.715C403.764 286.73 403.353 288.035 400.923 292.674C390.656 292.716 380.992 290.717 371.136 288.441C369.731 288.369 361.048 289.192 358.955 289.375C350.417 290.12 344.309 290.262 335.752 289.691C336.209 285.109 336.493 282.776 337.613 278.319C341.726 276.569 347.661 274.564 352.026 272.926C335.884 262.584 329.625 258.346 318 243.884C338.229 243.669 346.634 245.663 363.849 254.798C365.393 249.968 366.499 247.127 369.851 243Z" fill="#FE0101"/>
<path d="M51.8506 127C58.5273 128.647 59.4613 135.318 61.1172 140.617C76.736 133.41 90.4074 130.837 108 133.955C99.4753 145.023 86.7378 153.263 73.1592 158.734C77.3984 161.364 82.1542 164.643 87.122 165.715C85.7641 170.73 85.3535 172.035 82.9226 176.674C72.6558 176.716 62.9917 174.717 53.1356 172.441C51.7313 172.369 43.0477 173.192 40.9546 173.375C32.4166 174.12 26.3095 174.262 17.7516 173.691C18.2087 169.109 18.4935 166.776 19.6129 162.319C23.7262 160.569 29.6611 158.564 34.0261 156.926C17.8841 146.584 11.6247 142.346 0 127.884C20.2289 127.669 28.6344 129.663 45.8495 138.798C47.3928 133.968 48.499 131.127 51.8506 127Z" fill="#FE0101"/>
<path d="M315.851 0C322.527 1.64741 323.461 8.31827 325.117 13.6168C340.736 6.41003 354.407 3.83665 372 6.95541C363.475 18.0225 350.738 26.2625 337.159 31.7336C341.398 34.3638 346.154 37.6427 351.122 38.7151C349.764 43.7296 349.353 45.035 346.923 49.6743C336.656 49.7164 326.992 47.7174 317.136 45.4411C315.731 45.3693 307.048 46.1915 304.955 46.3747C296.417 47.1205 290.309 47.2616 281.752 46.6907C282.209 42.1095 282.493 39.7762 283.613 35.3189C287.726 33.5695 293.661 31.564 298.026 29.9261C281.884 19.584 275.625 15.346 264 0.883874C284.229 0.669278 292.634 2.66289 309.849 11.7981C311.393 6.96845 312.499 4.12712 315.851 0Z" fill="#FE0101"/>
<path d="M227.851 116C234.527 117.647 235.461 124.318 237.117 129.617C252.736 122.41 266.407 119.837 284 122.955C275.475 134.023 262.738 142.263 249.159 147.734C253.398 150.364 258.154 153.643 263.122 154.715C261.764 159.73 261.353 161.035 258.923 165.674C248.656 165.716 238.992 163.717 229.136 161.441C227.731 161.369 219.048 162.192 216.955 162.375C208.417 163.12 202.309 163.262 193.752 162.691C194.209 158.109 194.493 155.776 195.613 151.319C199.726 149.569 205.661 147.564 210.026 145.926C193.884 135.584 187.625 131.346 176 116.884C196.229 116.669 204.634 118.663 221.849 127.798C223.393 122.968 224.499 120.127 227.851 116Z" fill="#FE0101"/>
<path d="M104.773 69C110.714 70.4036 112.758 77.7138 114.913 82.5034C123.232 78.4649 132.226 75.569 141.665 74.5162C145.746 74.061 156.889 73.4085 160 75.5953C159.712 81.7056 135.573 96.1236 129.442 99.575C137.322 105.046 143.218 108.428 149.126 115.624C133.733 116.127 129.783 115.954 114.939 112.678C109.07 111.156 102.009 112.373 95.7921 112.445C87.8202 112.536 82.606 112.335 74.9288 110.614C78.1058 105.526 84.0406 101.416 88.9993 97.589C76.0555 90.3336 62.175 82.2723 54 70.4993C72.42 68.431 84.3681 74.197 100.666 80.6616C101.55 76.4923 102.192 72.6131 104.773 69Z" fill="#199922"/>
<path d="M368.773 57C374.714 58.4036 376.758 65.7138 378.913 70.5034C387.232 66.4649 396.226 63.569 405.665 62.5162C409.746 62.061 420.889 61.4085 424 63.5953C423.712 69.7056 399.573 84.1236 393.442 87.575C401.322 93.0463 407.218 96.4283 413.126 103.624C397.733 104.127 393.783 103.954 378.939 100.678C373.07 99.156 366.009 100.373 359.792 100.445C351.82 100.536 346.606 100.335 338.929 98.6139C342.106 93.526 348.041 89.4163 352.999 85.589C340.056 78.3336 326.175 70.2723 318 58.4993C336.42 56.431 348.368 62.197 364.666 68.6616C365.55 64.4923 366.192 60.6131 368.773 57Z" fill="#199922"/>
<path d="M63.7728 232C69.7141 233.404 71.7579 240.714 73.913 245.503C82.2322 241.465 91.226 238.569 100.665 237.516C104.746 237.061 115.889 236.409 119 238.595C118.712 244.706 94.5732 259.124 88.442 262.575C96.3222 268.046 102.218 271.428 108.126 278.624C92.7326 279.127 88.7826 278.954 73.9392 275.678C68.07 274.156 61.0085 275.373 54.7921 275.445C46.8202 275.536 41.606 275.335 33.9288 273.614C37.1058 268.526 43.0406 264.416 47.9993 260.589C35.0555 253.334 21.175 245.272 13 233.499C31.42 231.431 43.3681 237.197 59.6657 243.662C60.55 239.492 61.1919 235.613 63.7728 232Z" fill="#199922"/>
<path d="M63.7728 342C69.7141 343.404 71.7579 350.714 73.913 355.503C82.2322 351.465 91.226 348.569 100.665 347.516C104.746 347.061 115.889 346.409 119 348.595C118.712 354.706 94.5732 369.124 88.442 372.575C96.3222 378.046 102.218 381.428 108.126 388.624C92.7326 389.127 88.7826 388.954 73.9392 385.678C68.07 384.156 61.0085 385.373 54.7921 385.445C46.8202 385.536 41.606 385.335 33.9288 383.614C37.1058 378.526 43.0406 374.416 47.9993 370.589C35.0555 363.334 21.175 355.272 13 343.499C31.42 341.431 43.3681 347.197 59.6657 353.662C60.55 349.492 61.1919 345.613 63.7728 342Z" fill="#199922"/>
<path d="M177.773 246C183.714 247.404 185.758 254.714 187.913 259.503C196.232 255.465 205.226 252.569 214.665 251.516C218.746 251.061 229.889 250.409 233 252.595C232.712 258.706 208.573 273.124 202.442 276.575C210.322 282.046 216.218 285.428 222.126 292.624C206.733 293.127 202.783 292.954 187.939 289.678C182.07 288.156 175.009 289.373 168.792 289.445C160.82 289.536 155.606 289.335 147.929 287.614C151.106 282.526 157.041 278.416 161.999 274.589C149.056 267.334 135.175 259.272 127 247.499C145.42 245.431 157.368 251.197 173.666 257.662C174.55 253.492 175.192 249.613 177.773 246Z" fill="#00009F"/>
<path d="M77.7728 0C83.7141 1.40357 85.7579 8.71379 87.913 13.5034C96.2322 9.46488 105.226 6.56904 114.665 5.51622C118.746 5.06101 129.889 4.40854 133 6.5953C132.712 12.7056 108.573 27.1236 102.442 30.575C110.322 36.0463 116.218 39.4283 122.126 46.6235C106.733 47.1266 102.783 46.9544 87.9392 43.6781C82.07 42.156 75.0085 43.3729 68.7921 43.4446C60.8202 43.5357 55.606 43.3349 47.9288 41.6139C51.1058 36.526 57.0406 32.4163 61.9993 28.589C49.0555 21.3336 35.175 13.2723 27 1.49928C45.42 -0.569013 57.3681 5.19701 73.6657 11.6616C74.55 7.49232 75.1919 3.61309 77.7728 0Z" fill="#00009F"/>
<path d="M362.773 342C368.714 343.404 370.758 350.714 372.913 355.503C381.232 351.465 390.226 348.569 399.665 347.516C403.746 347.061 414.889 346.409 418 348.595C417.712 354.706 393.573 369.124 387.442 372.575C395.322 378.046 401.218 381.428 407.126 388.624C391.733 389.127 387.783 388.954 372.939 385.678C367.07 384.156 360.009 385.373 353.792 385.445C345.82 385.536 340.606 385.335 332.929 383.614C336.106 378.526 342.041 374.416 346.999 370.589C334.056 363.334 320.175 355.272 312 343.499C330.42 341.431 342.368 347.197 358.666 353.662C359.55 349.492 360.192 345.613 362.773 342Z" fill="#00009F"/>
<path d="M336.773 111C342.714 112.404 344.758 119.714 346.913 124.503C355.232 120.465 364.226 117.569 373.665 116.516C377.746 116.061 388.889 115.409 392 117.595C391.712 123.706 367.573 138.124 361.442 141.575C369.322 147.046 375.218 150.428 381.126 157.624C365.733 158.127 361.783 157.954 346.939 154.678C341.07 153.156 334.009 154.373 327.792 154.445C319.82 154.536 314.606 154.335 306.929 152.614C310.106 147.526 316.041 143.416 320.999 139.589C308.056 132.334 294.175 124.272 286 112.499C304.42 110.431 316.368 116.197 332.666 122.662C333.55 118.492 334.192 114.613 336.773 111Z" fill="#00009F"/>
<path d="M256.773 190C262.714 191.404 264.758 198.714 266.913 203.503C275.232 199.465 284.226 196.569 293.665 195.516C297.746 195.061 308.889 194.409 312 196.595C311.712 202.706 287.573 217.124 281.442 220.575C289.322 226.046 295.218 229.428 301.126 236.624C285.733 237.127 281.783 236.954 266.939 233.678C261.07 232.156 254.009 233.373 247.792 233.445C239.82 233.536 234.606 233.335 226.929 231.614C230.106 226.526 236.041 222.416 240.999 218.589C228.056 211.334 214.175 203.272 206 191.499C224.42 189.431 236.368 195.197 252.666 201.662C253.55 197.492 254.192 193.613 256.773 190Z" fill="#00009F"/>
<path d="M92.9843 163.306C109.647 162.299 115.157 169.636 129.523 172.182C131.78 172.584 145.877 166.904 149.617 165.74C156.505 163.64 163.76 162.734 171.015 163.067C173.672 163.188 174.361 163.214 175.961 164.787C176.591 168.601 169.329 174.107 166.469 176.589C159.483 182.663 152.116 186.303 143.135 189.259C154.104 192.841 160.598 196.418 168.004 204.761C168.254 205.842 168.28 205.265 167.722 206.477C160.539 208.434 136.877 204.468 129.215 201.279C114.121 205.692 104.307 206.598 88.8187 206.05C95.0638 196.479 104.071 192.471 115.137 189.259C107.502 186.783 84.2202 172.653 83 166.144L83.9643 164.996C87.3492 163.69 89.3566 163.678 92.9843 163.306Z" fill="#FCD330"/>
<path d="M334.984 180.306C351.647 179.299 357.157 186.636 371.523 189.182C373.78 189.584 387.877 183.904 391.617 182.74C398.505 180.64 405.76 179.734 413.015 180.067C415.672 180.188 416.361 180.214 417.961 181.787C418.591 185.601 411.329 191.107 408.469 193.589C401.483 199.663 394.116 203.303 385.135 206.259C396.104 209.841 402.598 213.418 410.004 221.761C410.254 222.842 410.28 222.265 409.722 223.477C402.539 225.434 378.877 221.468 371.215 218.279C356.121 222.692 346.307 223.598 330.819 223.05C337.064 213.479 346.071 209.471 357.137 206.259C349.502 203.783 326.22 189.653 325 183.144L325.964 181.996C329.349 180.69 331.357 180.678 334.984 180.306Z" fill="#FCD330"/>
<path d="M180.984 23.306C197.647 22.2991 203.157 29.6359 217.523 32.1825C219.78 32.5837 233.877 26.9045 237.617 25.7403C244.505 23.6397 251.76 22.7338 259.015 23.0675C261.672 23.1877 262.361 23.214 263.961 24.7865C264.591 28.6014 257.329 34.1073 254.469 36.5893C247.483 42.6632 240.116 46.3035 231.135 49.2591C242.104 52.8414 248.598 56.4183 256.004 64.7613C256.254 65.8424 256.28 65.2648 255.722 66.4774C248.539 68.4345 224.877 64.4677 217.215 61.2789C202.121 65.6923 192.307 66.5982 176.819 66.0505C183.064 56.4792 192.071 52.4712 203.137 49.2591C195.502 46.783 172.22 32.6531 171 26.1445L171.964 24.9958C175.349 23.6899 177.357 23.678 180.984 23.306Z" fill="#FCD330"/>
<path d="M249.984 279.306C266.647 278.299 272.157 285.636 286.523 288.182C288.78 288.584 302.877 282.904 306.617 281.74C313.505 279.64 320.76 278.734 328.015 279.067C330.672 279.188 331.361 279.214 332.961 280.787C333.591 284.601 326.329 290.107 323.469 292.589C316.483 298.663 309.116 302.303 300.135 305.259C311.104 308.841 317.598 312.418 325.004 320.761C325.254 321.842 325.28 321.265 324.722 322.477C317.539 324.434 293.877 320.468 286.215 317.279C271.121 321.692 261.307 322.598 245.819 322.05C252.064 312.479 261.071 308.471 272.137 305.259C264.502 302.783 241.22 288.653 240 282.144L240.964 280.996C244.349 279.69 246.357 279.678 249.984 279.306Z" fill="#FCD330"/>
</svg>
