<svg width="497" height="663" viewBox="0 0 497 663" fill="none" xmlns="http://www.w3.org/2000/svg">
<path d="M51.5637 252.231C50.4738 250.321 49.4868 248.523 48.7366 246.35C46.4892 239.837 42.9848 220.428 42.6347 213.772C42.5446 212.067 42.5725 210.371 42.9197 208.919C44.1994 203.58 59.6273 198.117 63.8458 196.928C66.5178 196.176 69.3256 195.917 72.0004 195.177C71.5204 193.629 71.0608 192.137 70.8229 190.561C70.4238 187.917 70.5515 185.432 71.5434 183.72C74.1172 179.266 90.2757 179.896 95.0203 180.347C99.8477 180.806 104.771 181.742 109.658 182.6C109.078 178.955 107.636 169.668 107.573 166.592C110.175 160.715 112.7 162.783 117.875 164.362C125.545 166.726 133.249 169.637 140.959 173.082C137.303 164.396 137.807 162.158 142.139 158.418C144.486 158.656 150.216 161.41 152.784 162.616C161.871 166.93 170.952 171.659 180.009 176.792C184.716 179.494 189.983 183.081 194.598 185.454C193.545 181.096 193.661 177.33 195.96 175.418C197.826 173.904 200.007 175.398 202.238 176.735C212.366 182.806 221.939 188.614 231.871 196.384C234.679 198.591 237.479 200.843 240.271 203.142C247.822 209.359 248.201 210.572 254.288 205.664C256.235 206.967 261.311 211.534 263.344 213.356C275.138 223.92 287.539 235.774 298.77 248.143C300.504 247.162 303.272 245.565 305.497 246.109C315.606 248.991 325.762 262.583 334.41 272.832C336.715 275.564 340.996 282.232 343.423 282.533C348.261 283.134 343.817 272.978 346.209 270.06C347.413 268.591 348.995 268.306 350.839 268.762C354.53 269.642 357.752 275.162 360.733 279.123C369.29 290.492 377.006 303.072 384.867 315.463C391.569 308.267 397.181 323.204 402.498 331.039C403.259 332.273 404.016 333.612 404.77 334.844C421.106 361.506 436.405 390.216 444.227 422.483C445.491 428.1 446.58 433.82 446.9 439.322C447.724 453.502 441.75 461.894 435.736 469.149C428.258 478.17 418.245 485.495 406.833 484.177C403.711 483.817 400.361 482.583 397.161 481.036C392.428 478.747 387.224 475.198 382.801 476.189C377.203 477.445 372.861 483.075 367.994 486.252C363.426 489.233 344.034 495.144 339.072 493.296C337.357 492.658 335.42 491.136 334.128 488.881C330.159 481.955 335.016 473.76 336.947 469.541C337.39 468.573 338.209 467.289 338.157 465.916C337.892 465.524 337.808 465.35 337.442 465.477C325.577 469.581 313.976 475.446 300.492 473.669C294.434 472.87 288.203 470.434 282.005 467.7C277.621 465.828 273.235 463.766 268.854 461.518C265.028 459.547 259.437 457.341 256.773 451.724C252.929 443.619 258.681 439.453 261.929 437.159C256.186 437.061 250.344 437.349 244.466 436.58C230.779 434.791 216.835 431.439 203.052 428.95C200.495 428.489 196.039 425.445 194.703 421.382C193.609 418.13 194.214 415.326 194.811 412.748C191.372 411.489 187.862 411.454 184.503 411.008C180.276 410.448 166.373 408.795 162.666 404.575C161.011 402.691 159.643 399.901 159.069 397.167C158.213 393.089 158.97 390.058 160.185 387.318C153.669 381.521 146.624 377.138 139.992 372.223C129.577 364.375 119.315 356.488 109.246 346.916C104.63 342.527 98.9134 337.939 100.161 329.275C100.582 326.358 101.614 325.444 103.37 324.57C99.6165 320.444 95.8927 316.528 92.2388 312.102C77.4838 294.227 64.1134 273.483 51.5637 252.231Z" fill="black"/>
<path d="M116.583 319.392C113.443 316.842 110.636 313.727 107.688 310.528C97.2483 299.132 87.3112 286.489 78.027 272.792C73.844 266.7 63.1573 250.526 59.3457 243.207C58.3145 241.227 55.5331 224.86 55.1684 221.637C64.9488 215.116 76.9965 212.824 89.1643 214.423C97.021 215.457 100.275 208.368 92.2186 198.485C94.4865 198.167 99.9026 198.155 102.309 199.15C103.889 201.177 110.036 210.718 111.467 213.198C109.526 212.66 100.527 207.964 99.9642 210.006C100.155 211.107 100.842 212.541 101.408 213.432C109.618 226.366 118.309 238.669 126.494 251.647C128.183 254.326 129.816 256.884 131.326 259.769C127.337 259.22 123.355 256.466 119.587 255.654C113.868 254.421 108.571 253.552 102.77 251.871C100.046 251.155 97.3 250.227 94.5804 249.49C93.4547 249.184 93.1787 249.718 92.9931 251.139C93.8924 256.65 117.309 270.658 120.886 272.724C129.487 277.622 136.899 281.377 145.513 285.648C145.577 288.093 145.699 289.254 146.241 291.718C143.094 290.64 139.55 288.073 136.618 288.922C132.735 290.042 132.586 295.174 134.432 301.012C129.751 298.886 120.417 291.923 120.209 301.887C113.062 296.102 99.9086 282.692 110.225 305.731C112.315 310.398 114.336 314.832 116.583 319.392Z" fill="#199922"/>
<path d="M120.913 276.924C123.398 279.428 123.012 281.766 121.004 282.283C116.75 283.38 109.947 284.514 105.104 280.871C101.232 277.959 96.4954 272.373 92.764 268.561C84.779 259.812 77.1235 250.066 69.4114 240.68C67.4472 238.29 67.2179 234.126 69.2793 233.569C70.8585 233.145 72.8679 233.569 74.5497 233.564C83.4085 234.084 93.4246 236.138 102.538 242.832C104.835 244.519 105.322 247.954 102.502 248.083L102.297 248.089C102.624 249.488 102.658 250.5 102.769 251.871C100.046 251.155 97.2996 250.227 94.58 249.49C93.4543 249.184 93.1783 249.718 92.9927 251.139C93.8919 256.65 117.309 270.659 120.886 272.724C120.726 273.887 120.858 275.606 120.913 276.924Z" fill="black"/>
<path d="M120.913 276.926C119.297 276.148 117.217 274.769 115.56 273.844C102.563 266.595 90.2449 254.86 78.1882 242.556C87.31 243.472 93.2487 245.608 102.297 248.092C102.624 249.49 102.658 250.502 102.769 251.874C100.046 251.158 97.2997 250.23 94.5801 249.492C93.4544 249.187 93.1784 249.721 92.9928 251.142C93.8921 256.653 117.309 270.661 120.886 272.727C120.726 273.89 120.859 275.609 120.913 276.926Z" fill="#52D668"/>
<path d="M65.7872 225.071C65.3124 224.004 65.1599 223.794 65.0437 222.715C65.1488 222.323 65.1676 222.056 65.4067 221.826C67.4287 219.879 90.4268 218.599 93.3541 220.521C94.1042 221.012 94.6455 222.435 95.0706 223.398C96.1586 228.115 94.35 228.715 91.7511 228.36C86.5243 227.644 70.1637 228.882 65.7872 225.071Z" fill="black"/>
<path d="M69.5312 252.58C69.198 251.979 68.8688 251.374 68.5441 250.765C67.7197 249.214 66.8973 247.9 66.9059 246.309C67.2194 245.636 67.2954 245.699 67.857 245.499C70.6059 247.125 88.4174 271.909 91.5328 276.084C92.2886 277.162 93.0973 278.217 93.2435 279.678C93.414 281.388 92.8938 283.068 92.1504 283.971C91.7111 284.502 91.165 284.642 90.4856 284.352C86.9974 282.862 72.8988 258.453 69.5312 252.58Z" fill="black"/>
<path d="M105.211 243.129C104.56 242 103.978 240.8 103.475 239.551C101.939 235.773 101.975 232.244 105.297 234.986C107.299 236.639 109.508 239.78 111.305 242.135C113.66 245.357 117.746 251.651 111.972 250.009C109.058 249.181 107.299 246.609 105.211 243.129Z" fill="black"/>
<path d="M96.0518 293.109C92.0571 286.108 96.0558 281.982 100.796 288.258C103.731 293.78 101.898 301.489 96.0518 293.109Z" fill="black"/>
<path d="M60.3744 234.891C59.0589 232.632 58.1164 230.317 58.6519 227.919C58.8872 226.908 59.4245 226.209 60.1466 225.972C61.3267 225.607 62.1964 226.199 63.4087 227.227C66.9771 233.273 64.5825 238.944 60.3744 234.891Z" fill="black"/>
<path d="M98.7799 227.985C97.9236 226.912 97.399 225.383 97.4131 223.998C97.4261 222.61 97.9744 221.585 98.8432 221.32C99.7119 221.055 100.764 221.594 101.589 222.727C102.811 224.404 103.179 226.867 102.42 228.288C101.661 229.708 100.049 229.574 98.7799 227.985Z" fill="black"/>
<path d="M113.971 261.824L113.972 261.597L114.221 261.429C122.248 263.279 129.819 266.407 137.851 269.357C145.701 272.22 153.54 274.856 161.364 277.266C180.494 283.224 198.236 287.385 217.731 294.756C232.212 300.385 246.713 306.833 261.199 314.09C307.859 337.1 354.195 367.648 399.267 405.117C403.736 408.784 431.007 430.613 432.83 433.347C433.817 434.824 434.096 436.13 434.287 437.877C434.195 441.812 431.672 443.866 428.886 441.698C422.535 436.757 416.31 431.132 409.989 425.961C395.717 414.254 381.367 402.937 366.95 392.017C319.325 356.502 270.721 328.26 222.076 307.837C214.414 304.678 206.755 301.719 199.105 298.968C194.776 297.444 190.454 296.029 186.126 294.535C183.86 293.754 181.409 293.067 179.151 292.152C162.102 285.25 145.054 279.344 127.998 270.084C123.343 267.557 118.534 265.284 113.971 261.824Z" fill="#FCD02F"/>
<path d="M355.625 361.975C353.142 360.373 350.353 357.994 347.831 356.315C342.179 352.675 336.418 348.192 330.763 344.75C322.144 339.506 313.529 334.636 304.966 328.69C302.514 326.989 299.523 325.747 297.166 323.722C297.993 322.094 298.751 320.618 299.079 318.474C299.478 315.903 299.077 312.86 297.966 310.033C295.851 304.658 292.218 301.98 288.777 299.6C292.677 289.382 287.327 280.411 279.574 274.573C281.753 266.883 279.745 259.507 273.522 253.521C272.513 252.552 270.623 251.535 269.968 250.153C270.317 249.154 270.698 248.727 271.362 248.211C273.003 246.92 274.69 248.394 276.501 250.28C279.072 252.955 281.612 255.702 284.149 258.453C291.208 266.138 298.193 274.023 305.096 282.098C312.441 290.775 334.493 319.154 340.974 322.99C342.968 325.974 351.308 333.482 353.312 333.006C356.936 339.299 360.909 345.652 364.637 352.099C360.513 348.467 356.397 343.527 352.175 340.232C349.728 338.321 342.732 332.751 340.561 333.168C340.386 333.455 340.262 333.497 340.286 333.976C340.47 337.506 353.074 357.711 355.625 361.975Z" fill="#2323FF"/>
<path d="M290.748 432.067C291.416 430.474 298.4 422.566 299.709 421.005C302.998 417.083 306.768 412.8 310.209 409.119C316.291 402.781 322.518 396.706 328.886 390.899C332.026 388.061 335.754 384.512 339.066 382.102C340.264 382.527 341.035 383.063 342.222 383.813C341.174 385.078 325.879 403.672 331.699 407.746C335.253 410.232 346.364 407.111 350.532 406.127C344.287 415.176 335.715 421.903 329.186 430.634C328.77 431.19 328.113 432.781 328.436 433.885C329.794 438.528 332.715 435.699 334.259 434.888C343.825 428.922 353.544 423.51 364.209 420.414C366.961 419.615 370.001 418.545 372.876 418.23L373.156 418.202C368.995 423.232 363.806 427.182 359.856 432.556C359.007 433.71 359.416 436.434 360.634 437.812C361.3 438.563 362.593 438.4 363.274 438.397C368.401 437.759 373.578 437.326 378.802 437.096C381.207 436.965 384.222 436.648 386.617 436.823C384.165 439.873 382.102 443.36 379.765 446.432C373.54 454.612 365.705 463.991 357.327 467.994C358.875 464.354 360.783 461.098 362.105 457.245C363.064 454.452 362.282 450.641 359.708 449.026C354.48 445.742 345.392 443.271 340.47 443.592C331.719 444.166 323.206 446.984 314.908 449.194C310.753 450.332 306.383 451.754 302.515 453.486C304.23 451.004 307.87 447.456 309.884 445.156C313.28 441.484 316.311 437.515 319.264 433.108C320.152 431.784 324.094 426.433 323.061 423.823C321.817 420.683 317.626 422.326 315.998 422.495C306.74 423.461 299.05 428.483 290.748 432.067Z" fill="#FFEE00"/>
<path d="M219.702 409.538C219.777 408.901 220.596 407.247 220.868 406.636C221.651 406.747 222.426 406.804 223.19 406.805C229.221 406.895 229.781 400.511 227.938 392.205C230.486 392.047 233.23 392.563 235.525 391.44C240.052 389.225 240.497 383.623 237.57 376.233C242.293 376.666 248.589 377.59 249.024 369.337C249.217 365.674 247.928 362.696 246.287 359.376C250.609 359.049 257.26 360.037 257.422 351.531C257.492 347.866 255.936 344.419 254.19 341.133C258.768 341.137 262.402 340.777 265.133 336.287C269.655 338.03 274.996 341.195 279.742 343.263C279.247 347.166 280.17 348.856 281.662 353.168C282.445 360.055 274.718 350.959 271.081 353.864C270.381 354.409 269.91 355.366 269.744 356.58C269.023 361.811 273.216 365.294 273.148 369.354C273.086 373.098 267.37 368.743 265.402 368.79C263.913 368.825 263.117 368.561 261.766 369.654C257.812 372.852 261.635 380.464 261.527 383.395C260.32 386.159 255.458 381.681 252.689 384.134C250.127 386.403 249.109 389.361 250.163 394.992C250.491 396.743 251.735 400.042 251.618 401.504C247.723 400.298 240.789 395.691 239.753 403.684C239.281 407.327 241.028 411.775 242.68 415.465C240.592 415.487 237.836 414.687 235.64 414.159C230.357 412.888 225.018 411.124 219.702 409.538Z" fill="#771BBD"/>
<path d="M177.901 386.996C177.836 386.597 177.834 386.799 177.976 386.43C180.464 386.476 183.727 388.078 186.224 387.777C190.946 387.207 192.641 382.486 191.107 375.124C198.556 377.499 205.626 376.89 202.852 362.653C207.405 362.831 213.607 365.187 214.929 357.312C215.387 354.583 214.635 351.179 213.796 348.128C217.722 348.029 222.533 348.914 224.276 343.396C225.337 340.036 224.451 335.762 223.267 331.687C228.96 331.32 233.298 329.878 234.943 321.839C237.249 322.82 239.132 323.615 241.426 325.039C240.007 326.997 239.419 328.002 239.153 331.261C239.166 335.665 240.442 338.59 242.444 342.466C239.794 342.417 237.398 341.65 235.022 342.919C230.296 345.442 230.875 351.938 233.75 359.272C230.947 358.652 227.403 357.521 225.087 358.818C220.895 361.17 221.342 367.65 224.041 374.13C221.158 374.2 217.791 372.682 215.234 374.193C211.062 376.659 211.228 382.113 213.981 388.895C208.013 387.99 200.429 383.362 199.498 394.408C192.957 393.665 184.599 391.372 177.901 386.996Z" fill="#00009F"/>
<path d="M256.02 418.312C255.908 417.794 255.836 417.243 255.756 416.722C256.037 416.442 259.751 416.419 260.631 416.143C265.248 414.695 267.929 411.368 265.002 402.606C272.261 403.582 277.304 402.651 275.104 389.296C275.435 389.328 275.764 389.351 276.09 389.365C279.456 389.495 283.722 388.273 285.372 384.444C286.832 381.054 286.427 377.7 285.599 373.288C293.107 372.057 295.009 363.692 295.285 352.969L295.63 353.044C297.526 353.437 302.28 356.55 304.417 357.835C306.894 359.332 309.379 360.75 311.868 362.087L312.724 365.635C313.194 367.758 313.45 368.948 313.734 371.041C310.918 369.543 308.213 368.281 305.916 369.936C301.913 372.822 303.025 378.434 305.823 384.527C305.211 385.538 304.487 386.292 303.757 387.118C299.91 383.769 295.059 382.524 293.13 387.382C291.909 390.457 293.344 395.18 294.28 399.079C291.415 401.303 289.241 398.403 286.078 398.865C280.481 399.681 280.87 405.872 283.022 413.589L278.6 414.721C273.805 411.302 271.967 411.918 270.307 417.759C265.271 418.515 261.293 418.422 256.02 418.312Z" fill="#199922"/>
<path d="M124.555 340.449C124.793 338.774 131.594 337.241 133.483 335.833C129.835 331.979 124.566 327.067 120.736 323.283C120.603 322.325 120.557 321.391 120.494 320.447C126.555 325.114 135.611 331.177 134.625 317.325C139.569 318.74 146.964 323.621 149.436 317.361C150.448 314.798 149.735 311.173 148.991 307.903C156.261 309.222 165.54 314.845 162.345 297.747C166.189 297.859 172.093 299.366 176.134 300.334L184.183 302.204L184.828 306.269C180.398 305.706 174.789 303.151 172.28 308.424C170.871 311.386 171.586 315.21 172.397 319.197C168.129 318.618 162.598 315.213 160.109 320.654C158.873 323.354 159.443 327.263 160.218 330.924C157.764 330.469 155.172 329.013 152.749 329.004C147.65 328.991 146.898 334.6 148.36 341.67C148.193 341.592 148.028 341.518 147.861 341.444C144.164 339.798 138.972 337.478 136.34 340.344C134.45 342.399 134.61 345.418 134.724 349.022C131.745 346.9 127.459 343.068 124.555 340.449Z" fill="#E155F4"/>
<path d="M261.986 304.672C261.907 302.975 264.708 299.882 264.116 295.77C263.253 289.776 260.638 286.244 256.869 283.374C256.006 282.715 254.684 281.834 254.028 280.875C253.246 277.639 257.266 273.6 254.506 266.903C251.584 259.814 249.278 258.114 244.716 254.615C245.446 251.348 246.751 248.813 246.024 244.758C244.792 237.874 240.56 234.519 236.661 231.398C234.861 229.959 236.475 226.231 236.954 224.965C241.249 228.631 245.528 232.368 249.79 236.172C250.781 237.059 255.871 241.31 256.178 242.416C253.802 249.236 253.803 255.126 260.615 261.324C262.395 262.946 264.282 263.975 266.049 265.64C264.697 268.713 263.151 272.268 264.858 277.136C267.326 284.18 271.962 286.104 276.041 289.607L276.266 289.804C275.347 292.127 274.075 293.933 273.902 296.979C273.391 306.051 279.314 310.01 284.107 312.802C283.257 314.354 282.875 315.5 282.32 317.357C278.05 314.408 273.521 311.486 269.224 308.736C266.937 307.277 264.371 306.171 261.986 304.672Z" fill="#771BBD"/>
<path d="M150.192 360.949C150.157 360.544 150.204 360.52 150.275 360.136C150.97 359.505 152.462 359.963 153.423 360.226C160.693 362.22 165.729 362.363 163.527 349.022C171.289 350.031 178.253 354.06 175.573 336.896C177.782 337.034 180.188 337.983 182.465 338.094C188.392 338.378 189.414 333.141 187.745 324.608C193.735 324.682 202.644 330.211 200.697 315.355C203.948 315.197 205.174 314.461 206.691 310.777C207.973 311.045 209.196 311.619 210.495 312.169C209.321 313.328 208.282 314.726 207.396 316.333C205.821 320.991 206.887 325.224 209.732 330.287C203.155 330.879 193.805 328.881 199.509 345.048C191.866 344.965 184.511 340.868 187.957 357.855C182.796 356.457 173.869 352.88 175.019 364.678C175.16 366.122 175.493 367.295 175.879 368.739C171.076 368.051 165.888 366.206 163.199 371.441C158.499 367.435 155.375 365.822 150.192 360.949Z" fill="#FCD02F"/>
<path d="M340.975 322.991C340.471 314.078 322.329 285.838 317.051 277.957C315.445 275.559 313.116 272.427 311.415 269.954C322.823 275.138 335.555 296.521 345.064 308.512C352.953 318.461 362.104 327.221 370.42 336.254C370.904 336.778 371.39 336.858 371.828 336.721C372.212 336.042 372.241 334.975 372.018 333.949C370.317 326.16 368.153 318.104 366.478 310.3C368.497 313.48 370.604 316.503 372.658 319.641C381.533 333.211 389.05 348.701 397.524 362.654C397.562 363.55 397.075 363.723 396.635 364.041C393.302 358.564 377.937 334.888 374.533 334.145C374.136 334.379 373.956 334.458 373.855 335.151C373.69 336.284 380.802 355.485 381.752 357.926C376.345 349.157 370.211 340.374 363.463 334.023C360.964 331.669 353.751 325.236 350.736 325.405C350.34 325.427 350.215 325.975 350.102 326.41C350.444 328.403 352.25 331.161 353.313 333.006C351.309 333.482 342.968 325.975 340.975 322.991Z" fill="#C100C9"/>
<path d="M164.688 262.649C164.763 261.904 166.071 259.451 166.251 258.083C166.652 255.032 166.643 251.904 165.222 248.489C162.579 242.135 159.481 240.059 155.45 237.249C162.521 220.864 148.452 218.719 146.941 215.033C146.877 213.904 147.595 211.436 147.786 210.042C148.543 204.541 145.188 198.837 141.339 196.573C140.121 195.856 138.867 195.542 137.549 194.675C137.267 192.859 137.227 192.079 137.427 190.468C143.389 193.171 151.576 196.744 157.43 200.261C157.189 201.742 156.76 203.087 156.546 204.646C155.135 214.954 161.805 218.84 167.352 222.544C163.916 233.909 168.874 240.829 177.031 246.85C176.34 248.618 175.686 249.772 175.459 251.973C174.92 257.202 177.57 262.819 181.058 266.178C182.66 267.718 183.824 268.415 185.517 269.423C185.151 271.463 184.42 273.467 183.757 275.221C181.936 274.706 180.189 274.424 178.397 274.063C177.228 273.828 175.813 274.057 175.022 272.346C172.404 266.687 168.521 264.889 164.688 262.649Z" fill="#FCD02F"/>
<path d="M228.102 282.216C228.074 281.234 228.755 280.112 229.056 279.328C233.032 268.968 224.899 263.106 219.111 258.812C220.868 255.784 222.496 252.198 220.534 246.861C218.451 241.195 214.493 238.595 210.975 235.818C211.863 233.65 212.705 231.308 212.469 228.266C211.75 219.038 203.119 216.471 201.664 213.787C200.771 212.142 200.98 209.707 201.038 208.118C205.25 209.732 216.208 217.216 220.553 220.55L220.789 220.815C221.716 224.088 213.836 232.675 230.463 245.033C229.419 248.579 228.191 252.351 229.974 257.236C232.021 262.843 236.493 266.178 239.993 269.002C237.146 273.935 235.813 279.025 240.806 286.769C242.154 288.859 243.462 290.202 245.069 291.713C245.347 294.578 245.816 296.737 246.443 299.635C244.294 298.638 242.147 297.638 240.035 296.08C239.908 295.683 239.775 295.287 239.64 294.893C237.234 287.923 232.318 285.726 228.102 282.216Z" fill="#1480FB"/>
<path d="M198.681 278.584C198.735 277.819 200.332 275.622 200.649 274.514C202.436 268.26 199.709 261.955 194.744 258.286C193.325 257.238 191.516 256.016 190.103 254.691C191.71 251.448 193.619 248.654 192.03 243.129C189.858 235.575 184.72 234.748 181.076 231.071C183.858 225.34 184.163 218.323 177.79 211.774C175.918 209.85 173.795 209.214 171.815 207.158C174.358 202.731 175.121 200.251 172.653 193.044C174.692 194.277 176.555 195.416 178.608 196.471L180.222 197.405C181.578 200.481 183.244 205.422 184.419 208.749C186.798 215.602 189.208 222.443 191.647 229.27C195.846 240.954 196.957 242.997 205.019 249.883C204.516 250.967 203.709 252.454 203.503 253.764C202.048 263.002 208.897 268.633 213.648 272.552C212.183 275.912 211.498 279.203 213.057 284.155C208.168 282.319 203.588 280.647 198.681 278.584Z" fill="#FE0101"/>
<path d="M430.537 421.304C428.081 420.075 423.901 416.335 421.418 414.264C416.326 410.021 411.292 405.668 406.185 401.451C406.413 399.707 406.9 394.814 407.619 393.721C409.364 392.707 409.066 388.311 409.255 385.781C409.752 379.159 406.757 369.683 407.166 363.472C416.316 380.365 425.694 402.167 430.537 421.304Z" fill="#C100C9"/>
<path d="M141.828 262.779C141.988 254.198 137.586 249.079 132.868 243.532C132.741 240.355 134.092 237.16 132.962 233.782C131.438 229.221 127.39 228.509 124.761 225.928C124.929 224.076 125.625 222.071 125.548 220.095C125.324 214.385 121.219 212.845 118.615 209.588C116.839 207.368 115.041 204.391 113.51 201.834C118.308 201.809 122.848 203.441 127.821 205.787C128.709 206.251 129.634 206.875 130.519 207.441C128.982 210.978 127.897 214.918 130.597 220.139C133.046 224.875 137.112 226.591 140.408 228.248C138.979 231.717 137.341 236.293 139.672 241.546C141.69 246.094 145.367 248.149 148.386 250.07C145.956 256.321 146.22 259.817 151.418 266.235C148.216 264.959 145.019 263.808 141.828 262.779Z" fill="#FD5DC3"/>
<path d="M397.377 394.045C394.015 391.69 389.712 388.103 386.15 385.486C382.361 382.732 378.583 379.922 374.812 377.058C372.707 375.464 370.547 373.944 368.503 372.066C368.421 371.991 368.338 371.92 368.256 371.843C367.931 371.537 355.584 352.591 354.502 350.857C361.423 356.802 368.196 365.226 374.993 371.688C376.007 372.654 378.431 374.568 379.115 373.933C381.553 371.668 374.311 361.367 373.299 359.056C371.835 355.71 365.587 346.454 365.042 344.443C366.298 345.573 367.489 347.227 368.648 348.581C376.724 358.018 383.51 369.448 390.511 380.563C391.184 381.63 392.016 382.356 392.885 382.408C393.718 381.887 393.721 381.163 393.747 379.785L394.022 380.656C399.304 386.777 394.715 388.475 396.206 392.555C396.68 393.113 396.937 393.449 397.377 394.045Z" fill="url(#paint0_linear_1437_185)"/>
<path d="M351.428 416.223C351.907 414.662 356.741 410.7 357.826 409.157C359.179 407.234 363.34 405.17 363.232 401.752C363.098 401.283 362.999 400.906 362.72 400.522C361.092 398.281 348.67 395.9 345.831 395.184C347.529 392.94 349.754 391.081 351.603 388.647C354.647 390.177 358.842 393.691 361.916 396.139C367.997 400.836 375.827 406.179 381.663 411.045C380.289 411.313 378.73 411.297 377.291 411.323C368.224 411.485 359.836 413.773 351.428 416.223Z" fill="#52D668"/>
<path d="M370.94 429.833L386.868 415.585C390.882 418.564 395.902 422.459 399.84 425.759C399.08 427.331 398.368 428.777 397.545 430.265C396.778 429.974 395.884 429.675 395.141 429.65C386.953 429.376 378.998 429.502 370.94 429.833Z" fill="#52D668"/>
<path d="M397.374 394.043C396.934 393.447 396.678 393.111 396.203 392.553C394.712 388.473 399.301 386.775 394.019 380.653L393.744 379.782C391.369 371.763 389.174 365.596 386.494 357.716C393.637 368.814 399.579 380.506 405.907 392.457C406.314 393.223 407.068 393.488 407.619 393.722C406.899 394.815 406.412 399.708 406.184 401.451C403.77 399.508 399.69 396.199 397.374 394.043Z" fill="#32A5E2"/>
<path d="M403.913 376.96C401.438 372.685 399.21 368.37 396.633 364.042C397.074 363.724 397.561 363.551 397.522 362.654C401.231 367.335 403.039 370.354 403.913 376.96Z" fill="#147DF9"/>
<path d="M413.553 413.309C412.78 416.262 410.347 420.322 409.004 422.823C406.252 427.952 403.424 432.93 400.691 438.098C399.502 436.736 396.169 433.143 395.409 431.428C394.677 428.225 391.701 426.097 389.98 424.333C385.473 419.713 379.118 418.643 374.893 414.394C386.127 410.604 400.687 409.346 413.553 413.309Z" fill="#C100C9"/>
<path d="M384.127 427.155C381.288 428.353 378.416 429.158 375.543 430.477C375.316 429.632 375.187 428.803 374.579 428.335C377.662 425.53 379.666 424.594 384.127 427.155Z" fill="#147DF9"/>
<defs>
<linearGradient id="paint0_linear_1437_185" x1="361.217" y1="344.949" x2="405.945" y2="378.815" gradientUnits="userSpaceOnUse">
<stop stop-color="#00F375"/>
<stop offset="1" stop-color="#21B6B5"/>
</linearGradient>
</defs>
</svg>
