<svg width="418" height="267" viewBox="0 0 418 267" fill="none" xmlns="http://www.w3.org/2000/svg">
<path d="M9.41406 116.862C9.41752 118.494 9.8308 123.239 10.9697 126.128C12.1716 129.177 11.8681 133.235 13.814 140.807C17.226 154.085 26.5526 164.828 30.2854 170.861C33.3148 175.757 38.0973 182.501 43.4826 189.251C49.4199 196.693 57.0254 202.124 61.6868 206.069C72.614 215.316 80.668 221.117 86.277 225.432C91.563 229.498 97.3239 233.405 101.799 236.362C105.523 238.823 114.148 241.669 120.288 243.695C124.096 244.952 130.969 246.536 139.861 248.925C153.937 252.707 163.122 253.73 172.45 255.01C185.527 256.805 193.577 256.506 199.952 257.277C205.563 257.425 209.794 257.303 210.848 256.319C211.216 255.514 211.243 254.086 211.272 252.615" stroke="black" stroke-width="17.6212" stroke-linecap="round"/>
<path d="M203.936 256.772C204.957 256.77 208.253 257.014 211.433 257.528C213.09 257.795 219.592 258.007 229.656 257.696C237.036 257.468 244.494 255.103 254.241 252.275C272.441 246.995 276.706 245.491 281.369 243.619C286.518 241.553 293.246 238.439 296.331 237.551C299.493 236.64 306.414 232.979 312.59 229.856C317.261 227.494 320.429 225.41 341.662 211.763C349.053 206.503 352.476 203.749 354.602 201.942C355.673 201.007 356.73 200.039 358.988 197.992" stroke="black" stroke-width="17.6212" stroke-linecap="round"/>
<path d="M357.124 201.084C357.404 200.454 359.944 196.51 362.05 193.89C363.71 191.824 365.295 189.602 367.77 186.166C370.498 182.377 373.138 180.317 375.462 177.465C376.504 176.187 377.363 175.26 380.804 169.696C383.965 164.585 389.886 154.753 393.199 149.217C399.232 139.137 403.714 133.369 404.927 131.796C406.044 130.051 406.814 128.553 407.481 127.637C407.791 127.181 408.043 126.742 408.309 126.036" stroke="black" stroke-width="17.6212" stroke-linecap="round"/>
<path d="M8.81179 114.834C9.0423 113.902 11.9927 108.383 15.9313 103.362C19.6654 98.6022 22.9989 95.6906 28.8316 89.2297C32.3884 85.2899 39.1792 78.9021 49.1358 70.8056C59.0925 62.7091 72.1681 53.2603 81.2151 47.1435C90.2621 41.0268 94.8841 38.5286 101.54 35.5787C108.195 32.6288 116.744 29.303 123.95 26.6934C136.688 22.0797 144.337 20.1173 148.263 19.2858C152.805 18.324 158.936 16.5796 167.815 14.4438C179.47 11.6399 187.637 9.43819 192.663 9.10836C201.413 8.53409 213.968 8.87731 228.478 9.39653C235.928 9.66315 243.501 11.0542 251.944 13.3406C269.706 18.1503 280.159 23.0891 283.693 24.5286C295.156 29.1988 302.106 35.2321 311.574 40.0492C318.936 43.7946 326.715 47.1071 335.658 53.4625C338.811 55.7028 342.423 59.0637 347.737 64.3417C360.983 77.4966 370.081 85.8982 377.089 90.9656C382.462 94.8512 387.025 97.9438 390.432 99.9699C392.752 102.754 393.924 106.088 395.298 109.15C395.608 109.937 395.826 110.758 396.313 113.097" stroke="black" stroke-width="17.6212" stroke-linecap="round"/>
<path d="M396.312 113.096C396.372 113.096 397.176 113.515 398.703 114.417C400.165 115.432 401.966 116.919 403.908 118.657C404.778 119.458 405.413 120.095 406.068 120.75" stroke="black" stroke-width="17.6212" stroke-linecap="round"/>
<path d="M257.088 163.806C256.869 172.736 257.445 193.607 259.697 196.197C260.942 197.629 263.808 197.503 265.733 197.22C267.658 196.936 268.916 196.039 270.169 194.334C277.598 184.226 277.572 158.297 277.114 131.589C276.714 108.25 268.17 95.3519 263.215 91.2234C258.65 87.4196 252.12 87.9507 245.828 89.2298C229.356 92.5785 217.5 116.476 208.791 133.979C202.585 146.449 205.661 156.007 207.453 159.699C211.439 167.913 226.844 165.27 237.084 162.545C246.472 160.047 246.983 145.983 247.513 137.827C247.728 134.514 246.043 131.848 244.156 129.951C243.158 128.948 241.409 128.745 240.096 130.167C231.165 139.845 237.016 154.748 238.569 157.916C240.083 161.006 244.299 161.795 248.322 162.08C252.688 162.389 257.082 158.701 261.142 154.387C269.539 145.467 269.93 131.291 270.216 121.264C270.276 119.172 269.584 117.482 268.72 116.209C267.857 114.936 266.577 114.139 264.717 114.036C254.37 113.464 243.725 131.808 236.403 148.938C230.82 161.998 233.375 170.393 234.195 173.724C234.572 175.258 235.826 176.129 237.195 176.717C240.108 177.968 243.899 177.08 247.758 175.132C258.1 169.91 261.008 150.049 263.692 133.28C264.736 126.756 263.828 121.745 262.889 118.248C262.447 116.601 261.436 115.435 260.08 114.563C258.723 113.691 256.889 113.206 255.034 114.326C242.678 121.784 245.656 144.24 246.249 149.813C246.463 151.825 248.861 151.503 250.253 150.384C251.645 149.265 252.563 147.185 253.348 144.957C254.133 142.73 254.758 140.417 255.402 138.035" stroke="black" stroke-width="35.2424" stroke-linecap="round"/>
<path d="M157.962 143.38C150.456 160.794 146.639 171.669 147.119 174.619C147.399 176.338 150.283 175.921 152.762 175.659C155.872 175.33 159.258 172.691 162.943 168.71C167.392 163.903 170.859 156.605 174.221 148.675C175.922 144.661 176.787 140.313 177.59 134.698C179.362 122.304 179.156 112.613 178.434 108.073C178.117 106.08 177.31 104.846 176.443 103.918C175.577 102.99 174.524 102.437 173.286 102.304C170.664 102.022 166.05 108.867 160.732 120.71C158.218 126.31 157.559 131.738 156.838 137.138C155.403 147.872 155.706 157.762 156.918 165.911C158.01 173.25 162.587 178.511 167.328 182.294C169.688 184.178 172.679 184.887 175.778 185.029C182.197 185.322 189.99 179.984 198.981 171.222C203.855 166.472 208.182 159.872 212.037 153.525C215.893 147.177 218.844 140.966 221.021 135.381C224.983 125.211 226.268 116.227 226.737 108.965C226.954 105.59 226.494 102.819 225.77 100.739C225.047 98.6581 223.911 97.3445 222.376 96.4407C219.177 94.5571 214.572 94.7987 209.522 95.7772C203.794 96.8872 198.676 102.244 194.046 108.401C189.292 114.72 188.086 123.456 187.09 131.649C186.146 139.418 187.382 146.616 189.292 152.915C191.173 159.115 195.791 163.331 200.204 166.42C204.751 169.602 211.153 169.293 217.331 168.265C223.775 167.193 229.055 160.358 233.958 152.524C236.52 148.429 237.957 143.3 239.156 137.932C241.589 127.045 241.156 116.558 239.754 108.175C238.533 100.875 233.112 96.0708 228.191 92.6013C223.708 89.4417 218.202 89.9307 213.702 90.5576C211.53 90.8603 209.728 91.9692 208.144 93.6005C204.761 97.0861 203.432 103.385 202.813 110.652C202.131 118.667 204.728 126.964 207.345 134.541C211.995 148.006 219.808 152.77 223.59 154.247C225.506 154.996 227.731 154.647 230.314 153.229C232.897 151.812 235.852 149.057 238.792 144.701C241.732 140.345 244.567 134.471 246.761 128.071C248.956 121.672 250.423 114.924 251.343 108.008C252.264 101.091 252.595 94.2097 252.26 87.7742C251.925 81.3387 250.915 75.5578 249.069 70.8492C245.649 62.1296 238.192 57.7202 230.52 55.7589C222.432 53.6912 213.361 57.9373 204.78 63.0429C195.879 68.3388 190.565 77.2187 186.604 84.5281C182.923 91.3213 182.903 99.765 183.112 107.964C183.317 115.994 187.651 122.711 191.796 128.208C195.746 133.447 201.273 136.745 206.423 139.435C211.128 141.892 216.332 141.675 220.987 140.775C225.706 139.862 228.694 132.977 230.946 124.091C232.152 119.333 232.403 113.808 232.13 108.133C231.856 102.459 230.774 96.7336 228.713 91.1681C226.651 85.6025 223.644 80.3698 219.985 76.0544C216.327 71.7391 212.11 68.4996 207.418 66.2268C202.727 63.9541 197.689 62.7463 192.358 62.4616C187.027 62.1769 181.554 62.8519 176.341 64.3837C166.065 67.4034 158.439 73.7309 153.159 80.1245C148.072 86.2845 147.158 95.1945 146.905 103.564C146.657 111.767 152.034 119.104 157.845 125.432C163.782 131.898 173.206 134.193 182.633 135.799C187.464 136.621 192.552 136.172 197.684 135.295C208.02 133.529 216.855 128.713 223.792 123.795C235.155 115.739 237.046 106.852 237.431 103.447C237.607 101.896 237.017 100.66 235.974 99.6164C233.631 97.2738 228.666 96.5186 222.77 95.9213C216.735 95.31 210.604 96.2112 204.709 97.7452C198.766 99.2917 194.026 103.014 190.335 106.515C186.953 109.722 186.186 114.655 185.877 119.24C185.568 123.813 187.187 128.163 189.217 131.978C191.198 135.699 194.308 137.797 196.78 139.188C199.074 140.479 201.597 140.126 203.588 139.095C206.039 137.826 206.355 132.47 206.681 126.595C207.022 120.461 204.262 114.657 200.849 109.68C197.302 104.508 190.847 102.188 184.761 100.5C173.3 97.3202 162.611 101.065 156.153 103.73C153.588 104.789 152.288 107.54 151.411 110.33C149.098 117.689 155.287 128.926 161.452 137.04C164.266 140.744 168.765 141.804 172.547 142.365C176.433 142.941 180.4 139.471 183.88 134.827C187.581 129.886 188.252 122.834 188.852 115.862C189.504 108.287 187.667 101.195 185.148 95.8008C182.892 90.9685 177.361 89.0314 172.224 87.4491C166.943 85.8228 161.162 86.808 155.763 88.0959C150.385 89.3784 145.855 93.8178 141.703 98.629C137.622 103.357 135.972 109.942 134.725 116.563C133.468 123.242 133.801 129.804 134.464 135.74C135.113 141.55 137.66 146.353 140.188 150.082C142.433 153.394 145.646 154.936 148.704 155.766C152.025 156.668 156.026 154.625 160.056 150.978C165.048 146.46 167.022 137.297 169.095 128.153C171.015 119.679 170.545 112.288 169.766 106.678C169.08 101.735 165.939 98.6543 162.903 96.894C159.918 95.1633 156.216 95.565 152.982 95.8441C149.965 96.1044 147.625 98.3265 145.784 101.05C143.746 104.067 143.281 109.189 142.813 115.197C142.329 121.4 143.333 127.474 144.909 133.147C146.542 139.03 149.973 143.849 153.09 147.662C155.813 150.994 159.611 151.989 162.937 152.22C164.622 152.336 166.304 151.576 167.959 150.167C171.662 147.015 173.945 139.873 175.878 131.153C177.808 122.444 177.593 114.273 177.233 107.662C177.062 104.524 176.24 101.888 175.064 99.7699C172.811 95.7131 167.886 94.0137 162.4 93.1748C156.466 92.2673 149.763 94.011 143.035 96.123C136.502 98.1737 131.14 102.102 126.363 105.807C121.648 109.464 118.551 114.168 116.468 118.979C114.164 124.299 114.631 131.352 114.792 138.221C114.939 144.473 117.202 150.062 119.842 155.118C122.383 159.986 126.293 163.008 130.345 164.732C134.718 166.591 140.168 164.383 145.32 160.511C151.435 155.915 154.186 146.213 156.93 137.007C159.529 128.284 158.924 119.987 158.088 113.431C157.366 107.763 153.499 104.122 149.429 101.819C145.236 99.4473 137.224 99.9462 128.446 100.337C122.947 100.581 119.835 102.452 117.559 104.313C112.942 108.089 114.411 119.428 117.314 132.812C118.831 139.805 123.205 145.434 127.058 150.483C130.823 155.415 136.533 157.923 142.355 159.236C148.292 160.575 154.284 157.122 159.44 152.255C165.156 146.86 167.55 137.907 169.526 129.558C171.364 121.795 170.141 114.454 168.096 108.038C165.937 101.262 159.486 96.7295 152.888 93.2722C146.067 89.6977 137.388 89.9755 129.175 89.9069C121.655 89.8441 115.335 92.0815 110.24 94.7675C105.428 97.3042 102.646 101.522 100.933 105.565C99.0613 109.985 99.9589 116.203 100.92 122.799C101.875 129.357 105.258 135.359 108.796 141.117C112.334 146.874 117.153 150.872 121.854 153.579C126.423 156.211 131.943 155.589 136.925 154.184C142.27 152.676 145.541 146.495 148.163 140.83C150.719 135.31 150.77 129.095 150.489 123.601C150.223 118.41 145.656 114.396 140.649 111.121C135.463 107.73 128.973 107.309 123.043 106.911C117.21 106.52 111.738 108.064 107.079 110.172C102.651 112.176 100.2 117.432 98.2243 122.881C96.1796 128.521 96.5553 135.503 96.9534 142.719C97.3454 149.822 99.6656 155.957 102.426 161.016C105.156 166.018 109.942 169.094 114.921 170.969C119.92 172.851 125.62 170.095 130.82 166.174C136.404 161.963 139.634 155.334 142.261 149.624C144.674 144.38 144.593 138.546 143.533 132.899C142.395 126.833 136.071 121.868 128.866 116.774C120.996 111.21 112.209 107.97 104.631 105.692C97.8845 103.663 91.5427 104.119 86.2989 104.745C81.7453 105.288 78.6584 108.642 76.4352 111.946C74.193 115.278 73.9932 120.126 73.8724 125.484C73.734 131.621 75.4363 137.971 77.5897 143.663C79.5897 148.948 83.8707 152.496 87.8304 155.354C91.5813 158.061 96.6793 157.513 101.524 155.918C106.868 154.16 110.145 147.416 112.9 140.758C115.618 134.191 115.731 127.113 115.577 120.918C115.435 115.203 112.134 110.803 108.498 107.632C101.338 101.391 91.2331 103.553 84.8821 105.361C82.166 106.135 80.828 109.127 79.7025 111.87C78.3429 115.183 78.756 122.984 79.2548 132.885C79.9037 145.763 86.7761 153.291 91.3845 156.314C92.3767 156.965 93.6433 156.502 94.7675 155.927C100.352 153.07 101.845 142.358 102.179 132.83C102.338 128.326 99.2178 124.612 96.1597 121.561C89.8014 115.217 79.1598 115.722 70.8925 116.483C67.2805 116.815 64.7358 119.951 62.6709 122.767C58.5485 128.39 59.311 142.37 60.167 152.179C60.4061 154.919 61.7486 156.841 62.7062 158.298C63.1635 158.993 63.8871 159.336 64.4391 159.201C67.9384 158.347 67.5879 143.954 67.4104 134.922C67.2993 129.266 61.5234 125.521 58.1677 123.257C57.0598 122.51 55.4931 122.271 53.8514 122.308C53.0911 122.325 52.5469 122.944 52.1899 123.734C51.3905 125.502 51.7353 133.511 52.2022 144.702C52.4673 151.056 54.2791 155.809 55.8339 159.784C56.2977 160.97 56.5173 160.267 55.2703 153.222C54.0233 146.177 51.4096 132.76 49.8738 125.232C48.3381 117.704 47.9597 116.472 47.6302 115.554C47.3007 114.635 47.0316 114.068 46.6952 114.619C45.4775 116.616 46.1977 124.282 47.7448 135.327C49.1931 145.667 51.2459 151.21 50.7992 150.563C49.966 149.357 48.392 146.038 47.592 145.111C47.0287 144.458 48.1802 151.178 48.5673 155.181C48.6377 155.91 45.3393 151.128 44.7634 150.227C44.1876 149.327 45.6385 151.721 45.8375 151.782C52.3074 153.78 39.3212 138.718 35.3848 131.81C31.0865 124.265 28.5986 118.641 27.8506 118.168C27.0468 117.66 26.7752 126.742 27.8095 141.266C28.7992 155.164 32.884 162.572 33.9539 164.596C35.2543 167.057 37.661 169.25 43.5253 173.719C48.0899 177.198 56.2817 182.543 62.7115 186.757C73.5811 193.882 79.5573 197.556 81.5702 198.501C89.7989 202.366 73.0701 173.301 73.0178 171.347C73.0017 170.745 74.2418 171.261 80.9041 177.651C87.5664 184.041 99.9292 196.372 106.645 202.961C113.361 209.551 114.056 210.025 114.295 209.2C114.535 208.375 114.299 206.235 112.464 199.731C110.629 193.226 107.203 182.421 105.312 176.564C103.422 170.706 103.171 170.124 108.57 175.318C113.97 180.511 125.028 191.498 131.619 197.815C139.81 205.664 142.57 207.137 143.678 207.103C147.876 206.976 139.404 191.319 140.511 183.57C141.162 179.007 157.206 191.737 164.35 196.334C175.723 203.653 180.243 204.414 183.097 204.232C186.734 204 182.057 194.48 180.726 189.418C179.458 184.593 190.704 202.364 195.521 206.232C199.513 209.439 203.965 209.794 206.786 209.72C208.481 209.675 208.307 194.349 212.652 180.148C214.082 175.474 226.761 190.853 231.967 197.14C237.173 203.426 237.8 203.967 238.242 203.648C244.722 198.976 241.872 183.405 242.824 181.266C244.612 177.251 250.377 192.086 252.868 194.703C253.584 195.172 254.439 195.504 255.107 195.302C255.775 195.1 256.231 194.355 256.7 193.587" stroke="black" stroke-width="35.2424" stroke-linecap="round"/>
<path d="M276.08 201.449C277.51 201.087 281.066 199.729 288.429 193.805C294.837 188.65 306.229 178.552 312.376 173.145C319.046 167.279 320.028 165.64 321.096 163.766C321.599 162.883 321.867 162.048 321.582 161.338C321.297 160.628 320.412 160.045 319.054 159.823C315.929 159.311 310.407 161.358 297.176 169.269C287.256 175.2 272.09 187.186 274.524 183.631C276.959 180.076 297.777 161.169 308.848 151.034C319.92 140.898 320.615 140.107 321.121 139.372C321.627 138.637 321.923 137.984 321.252 137.569C315.683 134.127 306.191 140.453 297.056 146.8C291.294 150.803 284.129 157.698 278.972 162.807C270.734 170.967 267.841 175.707 268.032 176.463C268.713 179.158 277.726 169.223 287.544 158.646C301.778 143.314 301.874 137.377 302.083 135.197C302.18 134.177 301.517 133.329 300.67 132.935C298.781 132.057 295.407 133.621 291.381 135.79C280.484 141.661 274.182 154.068 273.002 157.806C272.788 158.482 273.907 158.944 275.039 158.847C281.761 158.267 288.983 148.962 295.289 140.68C300.146 134.303 299.431 127.954 298.928 123.968C298.826 123.153 298.334 122.648 297.64 122.231C296.947 121.814 295.916 121.536 295.052 121.596C294.188 121.656 293.522 122.062 292.901 122.847C289.658 126.943 290.15 134.738 292.145 140.538C293.18 143.548 297.666 144.033 301.465 144.556C305.358 145.092 309.198 143.539 312.493 141.559C315.683 139.643 317.151 135.99 318.113 132.639C319.101 129.197 317.945 125.416 316.102 121.999C312.092 114.566 300.195 112.755 294.462 111.588C293.644 111.421 292.942 111.618 292.558 111.985C290.094 114.34 296.409 123.261 302.974 130.933C309.231 138.244 316.139 138.842 319.469 138.453C320.408 138.343 320.535 136.182 320.307 134.473C320.078 132.763 319.163 130.918 313.987 125.633C308.811 120.348 299.402 111.678 294.84 107.861C290.279 104.044 290.85 105.343 294.002 109.084C302.57 119.252 310.539 126.767 314.263 129.565C316.149 130.983 318.265 132.039 319.587 132.303C320.909 132.566 321.432 131.913 321.3 130.634C321.168 129.354 320.364 127.467 313.142 118.418C305.92 109.369 292.304 93.2161 284.941 84.591C276.981 75.2656 275.567 74.3921 274.819 74.3277C271.937 74.0795 279.485 79.173 282.152 80.2182C282.611 80.3979 279.022 77.5594 271.886 74.0589C267.863 72.0855 262.682 70.5206 253.966 68.6409C245.25 66.7613 233.068 64.8209 224.643 63.3146C216.217 61.8082 211.917 60.7946 206.898 60.2694C201.878 59.7443 196.271 59.7383 188.123 60.4424C179.975 61.1466 169.457 62.561 162.928 63.612C156.399 64.663 154.177 65.3077 142.463 69.6545C130.748 74.0013 109.609 82.0307 95.0987 88.1276C80.5887 94.2245 73.3489 98.1458 69.2229 100.453C64.2506 103.235 62.8815 104.181 58.6318 104.608C48.3704 105.64 40.9135 105.169 40.3061 105.206C39.545 105.252 44.5273 101.923 52.5399 96.4582C57.288 93.22 62.979 88.3588 67.2102 85.1064C71.4414 81.854 73.9274 80.1844 77.9863 76.7252C87.8229 68.342 94.0419 62.2305 98.2438 60.2035C101.682 58.5447 107.967 56.0631 115.387 54.0409C122.806 52.0186 131.22 50.6476 137.839 49.3838C144.457 48.12 149.027 47.0049 154.14 45.4188" stroke="black" stroke-width="35.2424" stroke-linecap="round"/>
<path d="M120.965 46.3942C121.634 46.1425 124.565 45.0604 129.327 43.8034C132.078 43.0771 137.084 42.2843 141.613 41.0999C146.142 39.9155 150.078 38.5328 162.979 36.5945C175.881 34.6562 197.629 32.2041 214.015 30.9475C230.402 29.6909 240.767 29.704 248.04 29.9734C259.196 30.3866 266.305 32.1682 271.974 33.8888C276.413 35.2362 278.719 36.8574 279.759 37.7101C280.265 38.1252 280.622 38.6371 280.457 38.9268C279.966 39.7873 277.679 39.2211 264.962 36.4502C253.37 33.9244 231.407 28.8212 216.838 26.1246C202.269 23.428 195.774 23.2148 191.467 23.3255C187.16 23.4362 185.237 23.8773 184.546 24.4315C183.855 24.9857 184.453 25.6397 199.175 32.7238C213.897 39.8079 242.724 53.3024 259.09 61.2242C275.455 69.1459 278.485 71.0861 281.249 72.6697C284.013 74.2533 286.419 75.4216 285.861 73.6713C283.507 66.2957 277.383 61.211 276.361 59.1392C275.92 58.2453 275.786 57.5952 276.681 57.2405C282.244 55.036 286.993 57.9849 291.974 60.6107C295.797 62.6259 301.711 68.5579 308.604 75.3792C312.871 79.6025 316.072 85.7313 320.518 96.5354C326.658 111.46 327.745 122.274 327.618 123.953C327.569 124.595 326.762 124.605 326.156 124.257C322.031 121.885 320.804 113.722 320.116 109.925C319.853 108.475 320.522 107.9 321.099 107.725C322.284 107.366 323.737 108.709 325.196 110.393C326.898 112.357 328.654 117.209 331.383 126.98C332.837 133.351 334.43 142.589 335.286 148.986C336.142 155.384 336.212 158.66 336.202 163.014" stroke="black" stroke-width="35.2424" stroke-linecap="round"/>
<path d="M346.677 147.343C346.728 147.234 346.801 157.159 347.114 170.954C347.204 174.895 352.017 162.063 357.727 154.041C362.062 147.95 369.943 138.253 374.18 133.023C378.416 127.793 378.93 127.451 379.436 127.739C380.779 128.504 380.897 130.93 380.653 133.232C379.471 144.357 370.964 156.611 370.574 157.106C367.881 160.531 381.903 141.007 387.783 133.285C389.005 131.679 390.717 129.773 390.085 131.245C389.453 132.717 386.438 137.637 383.44 142.193C380.442 146.75 377.551 150.795 366.445 160.691C355.339 170.587 336.106 186.211 324.828 194.997C313.549 203.783 310.807 205.258 309.724 206.207C308.64 207.155 309.298 207.532 311.198 207.722C320.161 208.621 324.343 206.474 335.794 198.07C342.869 192.879 346.654 188.464 347.705 187.399C348.162 186.936 345.016 187.43 337.028 190.905C330.566 193.717 319.414 199.144 312.348 202.27C305.282 205.395 302.691 206.179 297.601 208.289C292.511 210.398 285 213.81 278.028 216.473C271.055 219.136 264.847 220.948 262.075 222.132C259.303 223.316 260.155 223.817 261.536 224.432C268.613 227.586 277.274 227.731 284.335 226.327C293.884 224.43 301.645 218.653 306.315 216.006C308.594 214.713 310.854 213.85 311.549 213.455C312.245 213.06 311.349 213.243 303.982 216.448C296.615 219.653 282.804 225.875 274.947 229.3C267.091 232.724 265.606 233.164 261.312 233.572C249.981 234.648 241.609 234.905 238.978 235.46C231.864 236.96 226.848 239.913 222.546 241.83C221.093 242.478 218.016 242.435 214.293 242.189C212.905 242.097 212.616 241.392 212.477 240.702C212.176 239.214 212.709 237.514 216.977 231.176C220.782 225.524 228.606 215.453 233.034 209.74C238.275 202.975 240.062 201.957 241.382 201.653C242.761 201.335 244.319 202.135 245.665 203.312C248.701 205.965 246.781 212.433 245.098 218.447C244.734 219.749 244.201 220.193 243.698 220.542C241.212 222.27 228.834 223.09 219.334 225.374C211.029 227.372 202.759 241.568 198.839 243.544C197.366 244.286 194.948 244.636 188.996 245.001C183.043 245.366 173.541 245.503 167.551 245.419C159.363 245.305 156.373 244.673 150.901 243.427C146.142 242.344 137.47 239.838 132.253 238.256C127.035 236.673 125.564 235.961 121.35 233.52C117.136 231.079 110.225 226.932 105.24 223.7C100.255 220.469 97.4051 218.28 96.5166 216.948C95.6281 215.616 96.7871 215.207 104.613 215.473C112.439 215.739 126.896 216.691 140.818 216.884C154.74 217.076 167.688 216.48 177.724 216.788C194.492 218.327 202.766 219.617 205.083 219.189C206.06 218.738 206.636 217.815 207.23 216.864" stroke="black" stroke-width="35.2424" stroke-linecap="round"/>
<path d="M337.341 153.02C337.384 152.925 337.83 152.249 340.59 148.55C347.055 139.887 353.275 132.506 356.318 129.447C362.116 123.616 374.156 119.346 377.978 118.367C379.563 117.962 381.03 118.618 381.466 118.873C383.936 120.315 371.683 111.964 359.365 104.418C353.773 100.992 376.35 115.681 380.291 119.466C381.517 120.644 380.842 120.662 379.451 120.101C372.705 117.381 368.332 113.175 357.608 100.579C354.374 96.7819 351.043 94.1886 345.674 90.485C338.572 85.5863 331.2 81.0437 325.715 76.5713C317.975 70.2595 316.156 67.5434 313.211 64.602C306.769 58.1685 301.658 57.9888 296.425 55.7557C295.413 55.3241 294.87 54.8757 296.685 55.4673C298.5 56.0589 302.724 57.6242 308.665 60.1708C322.222 65.9823 330.538 70.3314 331.845 71.577C334.547 74.1512 335.424 76.8968 337.842 90.0729C338.972 96.2288 339.556 100.037 341.169 104.269C347.285 118.752 348.335 122.506 348.572 125.231C348.416 126.287 347.7 126.678 346.961 127.081" stroke="black" stroke-width="35.2424" stroke-linecap="round"/>
<path d="M12.2018 111.999C13.0652 110.559 15.8229 106.358 18.1479 103.345C20.9127 99.7621 24.0724 96.5617 26.5729 93.8975C29.8353 90.4215 35.295 86.8112 40.4886 85.4282C42.6559 84.8511 44.4898 85.744 45.8161 86.7871C48.852 89.1747 49.7716 94.7638 50.0083 100.287C50.0603 101.5 49.2966 102.211 48.6566 102.733C47.3907 103.767 44.3006 103.855 40.7808 103.547C39.3965 103.426 38.9402 102.607 38.5292 101.833C36.1348 97.3269 37.8828 89.9413 39.3211 85.8055C41.8116 78.6438 45.4345 74.8407 49.7482 69.9073C57.0676 61.5362 67.4398 57.2045 72.4353 55.3104C74.273 54.6135 77.4205 54.8024 80.885 54.9748C83.2607 55.093 84.7167 56.5733 85.808 58.0769C88.443 61.7076 87.9508 69.81 86.6539 74.3364C86.1948 75.9386 83.5146 76.2022 80.7158 76.1555C79.3779 76.1332 78.2284 75.7019 77.3656 75.1655C76.5027 74.6291 75.9668 73.8955 75.6889 72.6405C74.3781 66.7225 77.0266 62.0067 78.7428 58.7309C80.6073 55.1719 85.3652 50.3685 89.9654 45.2658C93.641 41.1887 98.7092 38.7252 102.947 36.6638C106.985 34.6992 110.554 34.6761 114.695 34.7883C117.447 34.8629 119.598 36.2021 121.009 36.8955C122.45 37.6039 123.034 39.6437 123.508 42.4341C124.258 46.8599 123.24 50.3456 121.942 51.6566C119.304 54.3216 116.598 54.617 114.925 54.7988C114.094 54.8891 113.281 54.4823 112.765 53.8837C111.689 52.6364 111.822 50.2241 112.143 47.7526C112.808 42.6483 116.816 38.9293 119.255 35.8889C121.483 33.112 126.051 29.6516 130.27 26.7427C134.062 24.128 139.159 22.1095 143.38 21.0038C152.097 18.7202 156.442 17.7827 163.155 17.8413C164.556 17.8535 164.889 19.0135 165.133 19.8454C166.601 24.8513 164.762 33.1566 161.848 37.4052C159.635 40.6318 155.469 39.7666 152.748 39.4509C151.565 39.3137 150.916 38.4893 150.478 37.7156C149.612 36.185 149.702 33.9154 149.897 31.6926C150.213 28.0989 155.694 24.4988 160.022 21.276C163.527 18.6659 167.311 16.5792 170.465 15.1436C174.362 13.3692 180.367 12.0409 184.634 11.3019C189.17 10.5165 201.892 10.6814 211.214 12.3451C213.3 12.7173 214.271 14.8518 215.011 16.47C215.712 18.0026 215.462 20.3393 215.187 22.7502C214.966 24.6955 213.175 25.8191 211.907 26.8918C209.436 28.982 205.016 28.5176 201.868 27.3043C200.409 26.7421 200.601 23.7652 200.777 21.2125C201.078 16.8539 204.604 13.872 207.44 11.2191C210.199 8.63748 214.797 9.05313 231.263 9.02657C239.077 9.01396 244.353 12.7915 249.807 15.3667C252.432 16.6064 254.115 18.0383 255.115 19.2977C257.154 21.866 256.901 25.2644 256.591 27.3006C256.082 30.637 250.566 29.9931 247.797 29.7512C246.644 29.6504 246.097 28.9517 245.656 28.1905C244.718 26.5723 244.6 24.5445 244.869 22.813C245.135 21.0985 247.142 20.0883 248.732 19.1046C253.743 16.0054 262.816 17.8545 268.079 19.1218C274.059 20.5617 281.203 23.8164 286.481 26.5753C291.186 29.0343 295.464 32.255 298.451 35.7053C299.79 37.2512 300.426 38.9992 300.818 40.8827C301.286 43.1341 300.444 45.0767 299.364 46.2673C297.062 48.8055 292.775 49.016 289.275 48.8284C287.855 48.7523 287.248 47.9293 286.897 47.0746C286.546 46.2198 286.491 45.1574 286.719 44.3092C287.58 41.1112 291.193 39.3261 295.046 37.8838C296.796 37.2285 299.955 37.3413 303.665 37.5669C307.543 37.8027 311.508 42.7381 319.193 48.5324C324.311 52.3913 330.038 56.0574 332.004 58.8927C333.954 61.7029 332.027 66.0942 330.141 69.2487C329.278 70.6935 327.519 71.1585 325.246 71.6515C321.503 72.4636 318.314 71.3156 316.962 69.9182C314.466 67.3382 315.204 63.8835 315.478 62.0451C315.605 61.1881 316.307 60.6417 317.043 60.2291C322.217 57.3274 331.386 59.5301 335.181 60.4956C341.906 62.2063 348.591 65.9339 352.246 68.4431C357.641 72.4329 359.198 74.3337 359.87 75.797C360.163 76.5655 360.356 77.3868 360.874 79.9612" stroke="#C100C9" stroke-width="8.8106" stroke-linecap="round"/>
<path d="M360.874 79.9611C361.627 81.3897 363.932 85.9131 365.232 89.4183C365.904 91.2297 365.807 94.113 365.552 97.146C365.445 98.4093 364.818 99.0255 364.14 99.583C362.714 100.755 360.192 101.133 357.577 100.903C356.463 100.805 355.914 99.9564 355.514 99.1728C354.706 97.5912 354.722 95.5421 355.047 93.3174C355.436 90.6555 357.039 88.6673 358.149 87.3416C360.487 84.548 370.9 87.9209 378.526 90.0401C382.183 91.0563 385.078 93.476 388.501 96.8266C394.14 102.346 395.154 109.722 395.393 115.52C395.489 117.843 394.119 119.523 393 120.901C391.858 122.309 389.489 122.746 386.824 122.575C382.72 122.313 379.937 117.625 378.023 114.045C377.234 112.569 378.055 110.711 378.845 109.125C379.736 107.336 381.636 106.492 383.267 105.975C384.116 105.705 385.096 105.796 385.889 106.079C389.984 107.54 393.657 112.162 397.152 114.539C399.693 117.074 402.079 119.524 403.976 121.267C404.844 122.018 405.517 122.498 406.863 123.326" stroke="#C100C9" stroke-width="8.8106" stroke-linecap="round"/>
<path d="M405.983 124.992C405.983 125.015 405.983 125.039 405.824 125.464C405.665 125.889 405.347 126.715 404.943 128.021" stroke="#199922" stroke-width="8.8106" stroke-linecap="round"/>
<path d="M12.1463 113.418C12.1466 114.179 12.3119 116.965 12.7162 123.263C13.4923 135.35 13.3176 144.381 14.3442 145.998C15.8684 148.4 22.1675 148.206 27.3256 147.522C28.83 147.322 29.8493 146.275 30.719 145.342C31.5544 144.446 31.7355 143.015 31.8336 141.619C31.9255 140.311 30.753 138.533 28.6236 136.653C26.5831 134.852 23.7197 135.2 21.7629 135.372C20.2615 135.504 19.2319 136.892 18.3443 138.212C16.1922 141.414 17.2719 147.835 17.1292 154.751C17.0418 158.98 20.9881 163.258 23.0354 166.188C26.4984 171.143 31.5554 174.709 35.0417 177.624C37.586 179.751 39.9791 180.802 42.0006 181.163C45.4429 181.777 48.5401 180.892 50.1146 180.048C53.686 178.134 54.2706 171.466 54.0828 169.428C53.9251 167.717 52.2989 166.782 50.8357 166.188C49.259 165.548 47.5103 166.377 45.98 167.641C42.445 170.56 42.4441 173.771 42.2808 180.368C42.1992 183.663 45.9517 187.233 51.3158 192.329C59.9068 200.49 62.7584 202.68 66.6786 204.097C68.7549 204.848 70.5522 204.14 71.7342 203.351C74.7947 201.308 76.6238 197.314 77.4868 194.108C77.8387 192.801 77.1396 191.483 76.2993 190.355C74.7023 188.213 71.2028 187.117 67.1758 186.735C65.6651 186.591 64.7621 188.133 64.0848 189.258C62.5207 191.856 63.7748 196.841 64.3116 200.304C65.0976 205.375 75.8894 212.027 80.6993 215.131C86.3185 218.756 91.5597 220.973 95.8218 221.089C97.3741 221.132 98.4101 219.62 99.3305 218.331C101.606 215.145 99.2177 208.085 97.4472 205.429C95.9923 203.247 90.9081 205.658 87.836 207.147C86.5208 207.784 85.929 209.309 85.5735 210.678C84.7351 213.908 87.3937 218.185 88.7725 221.068C90.1762 224.003 93.6775 226.371 96.3085 229.83C100.228 234.984 102.659 236.125 106.067 237.642C108.693 238.81 119.992 239.282 130.552 236.056C133.817 235.058 134.871 231.736 136.132 227.721C137.151 224.479 135.99 221.806 135.134 220.903C134.27 219.991 131.973 219.977 129.399 220.059C125.23 220.191 121.366 224.145 120.348 225.149C118.527 226.947 120.754 230.24 122.133 233.3C123.454 236.229 126.155 238.341 129.398 241.028C135.487 246.074 144.355 250.054 149.219 251.418C153 252.478 159.028 252.989 162.922 252.346C166.393 251.773 168.565 249.024 170.414 247.136C171.371 246.158 171.534 244.574 171.731 243.115C171.937 241.587 171.492 240.136 170.61 238.618C169.364 236.474 167.601 235.052 165.71 234.491C163.072 233.708 160.866 234.675 159.887 235.523C158.822 236.444 158.12 237.928 157.683 239.787C157.161 242.005 157.945 244.006 158.799 245.24C160.424 247.589 163.49 248.554 166.793 249.911C175.656 252.176 183.46 253.242 192.759 254.159C194.979 254.336 197.059 254.334 200.467 254.056" stroke="#C100C9" stroke-width="8.8106" stroke-linecap="round"/>
<path d="M405.055 125.056C405.055 125.093 405.052 125.742 404.381 128.736C402.903 135.333 399.049 143.213 395.436 149.853C391.312 157.431 387.104 159.225 383.857 160.25C381.684 160.936 379.855 160.245 378.994 159.803C376.969 158.764 375.813 155.574 375.417 150.468C375.284 148.756 376.418 147.831 377.166 147.131C379.621 144.838 384.675 146.475 385.634 147.11C387.563 148.389 387.065 154.49 386.267 163.075C385.81 167.994 384.218 171.343 383.164 173.257C381.86 175.624 379.04 178.401 374.109 182.32C366.814 188.12 359.785 190.674 356.934 191.627C353.305 192.839 349.739 191.873 348.878 191.151C347.148 189.699 347.207 187.035 347.193 183.415C347.187 181.768 347.846 180.535 348.384 179.566C348.913 178.614 349.899 178.03 350.888 177.599C351.814 177.195 353.112 177.285 354.556 177.444C355.928 177.594 356.869 178.618 357.594 179.485C359.269 181.49 359.141 185.801 358.525 190.199C357.375 198.418 354.967 201.154 349.594 206.782C347.089 209.406 344.143 211.499 340.836 213.032C332.706 216.801 324.301 214.686 322.53 213.244C321.599 212.486 321.515 210.955 321.307 209.461C321.059 207.681 321.443 206.202 322.377 205.036C323.86 203.184 325.567 202.233 326.403 201.827C327.301 201.392 328.406 201.547 329.314 201.863C334.539 203.678 330.196 217.157 329.142 219.021C328.204 219.798 320.61 222.112 309.688 225.085C305.809 226.122 305.307 226.202 304.789 226.284" stroke="#C100C9" stroke-width="8.8106" stroke-linecap="round"/>
<path d="M192.848 253.208C193.629 253.212 195.952 253.297 198.441 253.461C205.169 253.904 206.74 252.901 208.612 251.848C210.225 250.941 211.948 248.97 213.976 245.601C215.157 243.637 214.786 241.659 214.331 240.166C213.787 238.382 211.016 236.793 208.764 235.885C207.034 235.188 205.399 235.93 204.696 236.28C203.416 236.918 202.423 239.304 201.848 241.937C201.455 243.739 202.003 245.308 202.346 246.164C203.067 247.966 205.583 248.771 207.946 249.475C210.198 250.146 212.373 250.747 216.464 251.266C222.649 252.05 227.11 251.584 228.587 251.27C231.431 250.665 235.329 248.967 239.116 246.846C244.649 243.748 247.227 240.032 248.005 238.305C248.497 237.212 247.961 236.111 247.408 235.452C246.021 233.8 239.449 233.689 235.691 233.757C234.323 233.782 233.353 235.385 232.619 236.752C231.358 239.1 232.665 243.828 233.61 245.429C234.066 246.2 236.289 246.954 239.152 248.134C241.195 248.976 245.434 249.06 251.023 248.981C254.485 248.932 257.204 247.507 261.942 244.692C265.216 242.746 269.882 239.102 272.638 237.005C277.498 233.308 278.737 230.502 279.664 227.144C279.883 226.349 279.834 225.805 279.707 225.38C279.468 224.578 278.54 224.122 277.524 223.752C274.196 222.537 268.904 223.588 266.329 224.499C264.616 225.105 262.558 229.42 260.979 233.897C260.19 236.134 260.623 237.926 260.744 238.658C261.028 240.381 263.942 241.31 267.288 241.967C269.202 242.343 274.249 242.742 280.508 242.953C283.088 243.04 285.604 242.025 291.035 239.163C294.417 237.381 298.61 234.051 301.123 232.136C305.273 228.41 306.729 226.847 308.87 225.278C309.358 224.93 309.629 224.745 309.909 224.553" stroke="#C100C9" stroke-width="8.8106" stroke-linecap="round"/>
<ellipse cx="208.851" cy="132.762" rx="74.2636" ry="77.4234" fill="#D9D9D9"/>
</svg>
