<svg width="448" height="301" viewBox="0 0 448 301" fill="none" xmlns="http://www.w3.org/2000/svg">
<path d="M29.8851 85.4408C26.9129 82.6996 24.9429 79.7684 22.8139 76.7324C15.3301 65.9404 9.68339 54.6374 5.95923 42.9938C4.21572 37.7935 0.264435 24.1566 0.130242 18.4024C0.0940173 16.8456 9.06658 6.31316 11.1293 4.31336C32.2876 4.5451 53.6281 8.12791 71.9619 13.9946C83.7993 17.7833 94.8855 15.0346 90.0057 6.08162C93.9301 6.82095 102.686 9.01695 105.753 10.5667C106.637 12.3738 108.715 20.3542 108.986 22.3607C106.294 21.2621 95.6249 14.9053 93.0363 15.8491C92.439 16.559 92.3679 17.6623 92.5485 18.4042C95.1672 29.1725 99.081 39.7738 101.621 50.557C102.145 52.7834 102.679 54.9166 102.742 57.1879C96.7534 55.2503 92.5885 52.0486 87.1712 50.0498C78.9505 47.0159 71.1115 44.3629 63.1256 41.0384C59.3173 39.5195 55.6455 37.8696 51.8602 36.3402C50.2937 35.7069 49.4089 35.9012 47.9401 36.6421C44.8587 40.1733 71.1496 57.7428 75.2268 60.384C85.0869 66.6951 93.9667 71.8661 104.363 77.8221C102.455 79.2527 101.697 79.9698 100.545 81.6055C96.3511 79.706 92.7386 76.7905 87.3057 76.0857C80.1135 75.1499 75.6517 78.0377 73.8297 82.1419C68.0186 79.0168 58.6742 71.2211 50.1419 76.8601C43.3592 70.6308 33.1503 57.579 30.8569 75.0081C30.3924 78.5392 30.0092 81.9077 29.8851 85.4408Z" fill="#199922"/>
<path d="M71.8119 62.8063C69.8432 61.7022 67.6185 60.0642 65.7039 58.8592C50.679 49.4096 40.4404 37.6599 31.0928 25.6891C45.0694 29.9249 52.9028 33.5666 65.4716 38.673C64.8494 39.6094 64.0707 40.2043 63.1225 41.0377C59.3142 39.5188 55.6424 37.8689 51.8571 36.3395C50.2906 35.7062 49.4058 35.9005 47.9369 36.6414C44.8556 40.1726 71.1465 57.7421 75.2237 60.3833C74.008 60.9862 72.8082 62.0276 71.8119 62.8063Z" fill="#52D668"/>
<path d="M73.0162 51.3321L73.2051 51.2026L73.7455 51.2071C85.1857 55.534 94.8387 60.4095 105.383 65.3706C115.704 70.2071 126.194 74.9093 136.846 79.4755C162.837 90.677 188.064 100.282 213.483 112.444C232.237 121.566 250.348 131.167 267.771 141.227C324.191 173.419 373.886 209.809 415.847 249.661C420.047 253.585 446.128 277.214 446.822 279.525C447.201 280.776 446.578 281.639 445.448 282.72C442.062 284.943 436.299 285.097 433.584 282.719C427.392 277.298 421.967 271.535 416.014 265.995C402.597 253.466 388.735 241.13 374.437 228.994C326.746 189.226 271.491 153.238 209.737 121.725C199.963 116.794 190.029 111.98 179.94 107.289C174.202 104.653 168.386 102.083 162.626 99.4647C159.609 98.0945 156.217 96.703 153.324 95.2592C131.469 84.3616 108.798 74.0361 88.8724 61.7808C83.4335 58.4366 77.5388 55.175 73.0162 51.3321Z" fill="#FCD02F"/>
<path d="M380.858 207.134C378.165 205.204 375.618 202.704 372.928 200.713C366.795 196.324 361.181 191.406 354.879 187.13C345.275 180.612 335.369 174.312 326.433 167.414C323.872 165.44 320.064 163.51 317.924 161.388C320.599 160.789 323.037 160.25 325.331 159.152C328.091 157.837 329.945 155.926 330.477 153.85C331.483 149.902 327.819 146.887 324.222 144.121C338.925 139.837 337.666 132.508 329.947 126.002C339.793 122.471 342.619 117.418 337.494 111.448C336.662 110.481 334.446 109.129 334.525 108.069C335.911 107.636 336.877 107.546 338.374 107.52C342.086 107.445 343.598 108.978 344.971 110.798C346.921 113.38 348.764 115.991 350.597 118.603C355.674 125.888 360.467 133.258 364.972 140.703C369.695 148.675 381.959 173.943 389.27 178.783C390.034 181.308 397.326 189.012 400.954 189.553C401.628 194.642 402.819 199.907 403.535 205.126C399.863 201.363 397.281 196.852 393.174 193.242C390.794 191.149 384.078 185.104 380.23 184.461C379.71 184.555 379.476 184.529 379.121 184.814C376.514 186.916 380.245 203.647 380.858 207.134Z" fill="#2323FF"/>
<path d="M218.433 221.011C220.823 220.367 238.607 218.666 242.005 218.301C250.542 217.386 260.155 216.459 268.74 215.743C283.775 214.576 298.828 213.619 313.889 212.873C321.295 212.519 330.233 211.997 337.565 211.959C339.15 212.69 339.954 213.312 341.253 214.225C338.52 214.526 298.525 218.987 304.572 223.694C308.266 226.567 328.776 229.292 336.316 230.422C318.788 233.081 299.41 233.459 281.684 235.819C280.555 235.969 278.186 236.616 277.799 237.382C276.173 240.601 283.217 240.164 286.377 240.326C306.733 240.789 326.88 241.633 346.649 244.191C351.751 244.851 357.54 245.473 362.442 246.461L362.917 246.559C352.06 247.756 340.431 247.915 329.632 249.395C327.312 249.713 325.73 251.444 326.565 252.731C327.021 253.434 329.243 253.866 330.346 254.141C339.149 255.859 347.867 257.716 356.491 259.708C360.483 260.611 365.613 261.655 369.336 262.729C362.867 263.484 356.668 264.649 350.366 265.463C333.584 267.63 313.217 269.831 296.394 268.724C301.889 267.262 307.648 266.168 312.953 264.492C316.798 263.278 318.672 260.771 315.843 258.796C310.102 254.784 297.459 249.668 289.246 247.852C274.643 244.622 258.578 242.779 243.36 240.674C235.713 239.638 227.487 238.678 219.816 238.1C224.627 237.372 233.424 236.814 238.567 236.312C247.073 235.584 255.233 234.536 263.627 233.206C266.15 232.806 276.918 231.335 277.396 229.416C277.972 227.107 269.853 226.346 267.084 225.781C251.338 222.571 234.788 222.328 218.433 221.011Z" fill="#FFEE00"/>
<path d="M122.243 179.182C122.888 178.847 125.571 178.23 126.513 177.99C127.686 178.372 128.891 178.719 130.123 179.031C139.788 181.535 145.943 178.096 149.801 172.575C154.046 173.52 158.053 174.933 162.682 175.221C171.815 175.79 177.142 172.753 178.496 167.317C185.766 169.487 195.173 172.578 202.665 168.014C205.99 165.989 206.357 163.753 206.44 161.179C213.688 162.749 223.615 166.021 230.874 161.201C234.003 159.124 234.326 156.511 234.208 153.914C241.599 155.778 247.763 157.049 255.867 155.581C261.735 158.42 267.757 162.411 273.72 165.529C269.71 167.569 269.809 168.915 268.671 171.999C264.27 176.273 259.276 167.907 251.012 168.096C249.435 168.124 247.885 168.483 246.619 169.112C241.152 171.824 245.057 175.53 241.607 177.834C238.427 179.96 232.78 175.134 229.562 174.36C227.129 173.775 226.061 173.3 222.981 173.378C213.965 173.607 213.875 179.534 211.291 181.174C207.066 182.271 202.899 177.721 196.41 178.004C190.406 178.266 186.329 179.551 183.399 183.214C182.488 184.353 181.783 186.754 180.391 187.546C175.094 185.27 167.686 179.803 159.438 183.973C155.678 185.874 154.841 189.14 154.472 191.931C151.082 191.094 147.291 189.514 144.179 188.318C136.692 185.439 129.521 182.255 122.243 179.182Z" fill="#771BBD"/>
<path d="M73.2834 149.209C73.5065 148.953 73.3366 149.068 73.8703 148.914C77.8489 149.952 81.8007 152.199 86.0815 153.042C94.1752 154.635 100.796 152.612 104.376 147.76C114.45 152.153 126.369 154.678 133.601 145.372C140.807 147.326 148.884 151.201 157.498 147.216C160.483 145.834 162.069 143.573 163.223 141.479C169.644 143.019 176.686 145.484 184.039 143.023C188.518 141.524 190.603 138.709 192.042 135.887C201.539 137.991 209.73 138.927 219 134.978C221.917 136.479 224.304 137.701 226.836 139.453C222.933 140 221.157 140.338 218.046 142.102C214.445 144.637 214.099 146.836 214.144 149.877C209.905 148.771 206.666 147.356 201.785 147.119C192.078 146.646 187.669 150.613 186.279 155.995C182.262 154.499 177.47 152.408 172.663 152.211C163.958 151.857 159.35 155.761 158.377 160.581C153.664 159.45 149.475 157.208 144.103 157.036C135.337 156.756 131.118 159.956 129.984 164.971C121.091 162.025 112.652 156.282 102.062 162.249C92.11 159.162 80.4991 154.446 73.2834 149.209Z" fill="#00009F"/>
<path d="M173.67 198.989C173.916 198.646 174.253 198.3 174.554 197.968C175.236 197.922 181.253 199.419 182.901 199.618C191.549 200.664 198.614 199.844 201.095 193.62C212.016 197.133 220.925 198.648 228.359 190.083C228.866 190.235 229.379 190.382 229.895 190.523C235.223 191.967 243.117 193 248.931 191.471C254.078 190.118 256.184 188.026 258.476 185.155C271.613 187.501 281.566 183.469 290.833 177.423L291.328 177.606C294.067 178.602 299.183 182.324 301.577 183.931C304.346 185.799 307.191 187.623 310.111 189.403L308.575 191.789C307.587 193.2 307.022 193.988 305.759 195.306C302.443 193.3 299.114 191.475 294.043 191.492C285.204 191.522 282.384 195.197 281.889 199.835C280.069 200.167 278.28 200.306 276.421 200.484C272.965 196.995 266.155 194.307 259.042 196.314C254.541 197.583 252.974 200.88 251.277 203.5C244.821 203.612 243.696 201.063 238.209 200.042C228.499 198.235 224.033 201.949 221.161 207.257L213.089 206.109C208.158 202.195 204.683 201.801 197.197 204.481C188.443 202.868 182.095 201.196 173.67 198.989Z" fill="#199922"/>
<path d="M25.439 100.778C27.2015 99.9123 39.4442 101.797 43.6537 101.757C40.9333 98.0597 36.4649 93.0953 33.3929 89.3644C33.9657 88.7597 34.6615 88.2045 35.3357 87.6369C41.2833 92.7821 50.9205 99.9476 60.723 91.5901C67.5436 94.4131 75.4696 100.225 84.6119 97.6337C88.3547 96.5727 90.1837 94.2007 91.6742 92.0198C102.328 95.7339 112.687 102.737 121.594 91.6164C127.708 93.2436 136.003 96.5109 141.732 98.71L153.191 103.057L150.889 105.654C144.198 103.53 137.243 99.7812 128.854 101.79C124.14 102.918 122.15 105.405 120.18 108.026C113.765 105.957 107.634 101.752 99.1376 103.866C94.9206 104.913 92.6252 107.391 90.8649 109.809C87.2767 108.55 84.2895 106.659 80.3831 105.669C72.159 103.588 66.3302 106.504 62.8751 111.159C62.6704 111.047 62.4642 110.937 62.2567 110.827C57.6391 108.378 51.1632 104.934 44.5564 105.51C39.8141 105.922 37.5877 107.721 34.8073 109.837C31.7423 107.407 27.9735 103.463 25.439 100.778Z" fill="#E155F4"/>
<path d="M276.79 136.115C278.059 135.109 285.126 134.471 287.554 131.868C291.091 128.074 289.773 124.981 286.049 121.8C285.198 121.071 283.786 120.027 283.516 119.21C284.916 117.033 294.731 116.348 295.783 111.378C296.897 106.118 294.571 104.204 290.082 100.339C293.948 98.7589 298.142 97.8333 300.304 95.2081C303.976 90.7532 299.902 87.1044 296.173 83.7264C294.451 82.1683 300.124 80.6831 301.94 80.1503C305.859 84.0029 309.694 87.8894 313.448 91.8079C314.319 92.72 319.042 97.2319 318.627 97.9925C309.179 100.943 304.335 104.327 310.237 110.658C311.778 112.313 313.978 113.672 315.461 115.347C310.75 116.562 305.329 117.976 304.081 121.466C302.272 126.516 308.175 129.506 311.88 133.177L312.082 133.382C308.687 134.343 305.146 134.863 302.362 136.542C294.073 141.545 300.382 146.228 305.826 149.781C303.175 150.326 301.615 150.83 299.192 151.671C294.723 148.24 289.812 144.72 285.134 141.393C282.644 139.625 279.408 137.946 276.79 136.115Z" fill="#771BBD"/>
<path d="M49.9726 122.981C50.2512 122.734 50.3464 122.739 50.7759 122.548C52.4184 122.468 54.4505 123.338 55.7854 123.879C65.8851 127.981 73.9009 130.111 81.3187 121.553C93.0237 125.288 100.956 130.435 110.747 119.486C114.201 120.463 117.306 121.987 120.892 122.976C130.229 125.55 136.188 122.957 140.513 117.377C150.125 119.855 159.963 126.654 169.04 117.329C174.42 118.561 177.006 118.636 182.486 117.136C184.336 117.812 185.839 118.639 187.483 119.483C184.634 119.672 181.807 120.052 179.053 120.615C172.679 122.65 170.917 125.515 171.347 129.581C160.238 127.246 146.784 122.296 142.695 133.902C130.421 130.747 121.913 125.402 113.504 136.561C106.32 133.659 94.8463 127.974 86.998 135.219C86.0379 136.106 85.6101 136.915 85.045 137.901C77.8559 135.553 70.9957 132.383 62.3475 134.297C58.0518 130.084 54.335 127.887 49.9726 122.981Z" fill="#FCD02F"/>
<path d="M389.268 178.785C395.785 173.461 389.72 149.861 387.681 143.188C387.061 141.158 385.876 138.411 385.163 136.299C399.321 143.916 402.289 161.377 407.781 172.131C412.337 181.055 419.908 189.808 425.905 198.378C426.255 198.876 426.975 199.12 427.796 199.219C428.973 198.985 429.898 198.384 430.381 197.704C434.044 192.538 437.176 187.03 440.891 181.867C441.536 184.515 442.451 187.108 443.185 189.746C446.354 201.149 445.751 213.104 447.956 224.565C447.281 225.095 446.352 224.997 445.379 225C444.504 220.499 439.168 200.65 434.283 198.839C433.448 198.812 433.093 198.784 432.36 199.142C431.162 199.725 426.85 213.647 426.377 215.436C424.86 208.199 422.178 200.66 416.506 194.268C414.407 191.899 408.052 185.271 403.044 184.142C402.387 183.994 401.733 184.257 401.193 184.461C400.105 185.745 400.753 188.064 400.952 189.556C397.324 189.014 390.032 181.31 389.268 178.785Z" fill="#C100C9"/>
<path d="M154.246 72.4075C154.98 72.0096 159.11 71.1323 160.526 70.4202C163.684 68.8303 166.241 67.0302 166.757 64.4909C167.716 59.7658 164.42 57.3135 160.223 54.0602C185.122 47.524 164.166 40.5707 164.758 37.8387C165.583 37.1641 168.773 36.0385 170.228 35.3153C175.977 32.4634 175.251 27.8222 170.898 24.9565C169.521 24.0497 167.754 23.359 166.339 22.3251C167.378 21.1677 167.954 20.703 169.604 19.8594C177.007 23.8364 187.289 29.2181 193.848 33.6186C192.241 34.3713 190.442 34.9696 188.813 35.7781C178.056 41.1254 185.629 46.07 191.54 50.4538C176.642 55.5844 178.955 61.5756 187.175 68.3511C184.605 69.0858 182.6 69.483 180.421 70.6547C175.249 73.4395 174.907 77.7435 177.778 81.0913C179.097 82.6274 180.403 83.5013 182.309 84.7691C180.039 85.7915 177.211 86.6455 174.697 87.3833C172.18 86.347 169.59 85.4749 166.993 84.5387C165.299 83.9281 162.826 83.4844 162.955 82.1797C163.384 77.8644 158.592 75.2528 154.246 72.4075Z" fill="#FCD02F"/>
<path d="M240.548 109.434C241.31 108.859 243.334 108.491 244.464 108.162C259.407 103.829 251.096 97.154 245.282 92.3343C250.612 91.3092 256.19 89.9115 257.413 86.0477C258.71 81.9458 254.457 78.8428 251.06 75.8173C254.277 74.9329 257.564 73.93 259.684 72.0867C266.116 66.4931 254.29 61.5091 254.149 59.3756C254.06 58.0674 256.401 56.754 257.8 55.8647C263.275 58.5048 274.814 67.2601 279.089 70.9417L279.251 71.1901C278.056 73.447 258.266 75.1752 274.949 89.0355C270.347 90.6476 265.261 92.3152 264.121 95.8458C262.814 99.8989 267.292 103.634 270.621 106.679C261.965 108.355 255.626 110.737 257.318 117.216C257.775 118.964 258.783 120.268 260.135 121.789C258.226 123.547 257.208 124.978 255.837 126.898C253.186 125.451 250.541 124.004 248.414 122.25C248.534 121.97 248.645 121.689 248.751 121.408C250.6 116.426 244.469 113.165 240.548 109.434Z" fill="#1480FB"/>
<path d="M196.032 95.3826C196.748 94.9647 201.135 94.3524 202.558 93.8445C210.589 90.979 211.373 86.2483 206.372 82.1217C204.943 80.9427 203.028 79.5049 201.835 78.1696C207.098 76.9601 212.48 76.1316 214.459 72.3119C217.166 67.0893 209.55 64.5248 206.689 60.9304C215.897 58.7702 222.162 54.8636 217.258 48.5096C215.818 46.6437 212.913 45.4144 211.406 43.4284C219.156 41.9196 222.428 40.8055 224.371 35.6621C226.649 37.1994 228.72 38.6113 231.168 40.0521L233.006 41.2452C232.665 43.5629 231.291 47.0793 230.451 49.4681C228.656 54.3722 226.92 59.2812 225.242 64.1952C222.41 72.614 222.524 74.2393 229.878 81.4734C228.175 81.8914 225.648 82.4177 224.237 83.0859C214.287 87.8011 220.716 93.8207 225.163 98.004C220.034 99.3382 216.22 100.95 214.664 104.429C208.279 101.386 202.259 98.5632 196.032 95.3826Z" fill="#FE0101"/>
<path d="M348.965 275.014C351.819 273.929 356.433 272.838 359.602 272.024C365.76 270.444 371.897 268.842 378.04 267.237C382.905 265.967 387.739 265.053 392.366 263.405C394.918 262.885 397.257 262.344 399.778 261.75C403.557 265.449 407.139 269.244 410.881 272.968C414.788 276.852 419.716 281.26 422.883 285.391C415.519 286.261 408.103 286.856 400.682 287.17C403.977 284.487 411.719 280.303 411.916 277.376C411.092 276.031 408.721 276.164 406.708 276.352C391.875 277.742 377.556 278.722 362.935 277.105C357.784 276.535 353.941 276.36 348.965 275.014Z" fill="#FD5DC3"/>
<path d="M117.225 63.1864C124.542 58.3225 121.644 53.5917 118.589 48.4872C120.997 46.6104 125.807 45.3243 126.763 42.9246C128.053 39.6846 122.102 37.6298 119.98 35.0783C121.775 34.0825 124.547 33.214 126.048 32.0475C130.385 28.6767 125.022 26.1225 123.497 23.1925C122.456 21.1953 122.001 18.7538 121.631 16.6626C129.4 18.5993 135.389 21.3833 141.49 24.7532C142.543 25.3807 143.523 26.1157 144.486 26.8003C139.094 28.2068 134.101 30.0293 134.166 34.1259C134.225 37.8422 139.379 40.4813 143.338 42.7737C138.178 44.1851 131.767 46.1479 131.211 50.1129C130.728 53.5464 134.975 56.2218 138.27 58.553C129.203 61.1557 126.753 63.2711 129.868 69.0716C125.747 67.0363 121.531 65.0753 117.225 63.1864Z" fill="#FD5DC3"/>
<path d="M421.897 242.535C418.405 239.814 414.406 236.004 410.807 233.052C406.954 229.93 403.165 226.779 399.431 223.601C397.344 221.829 395.106 220.078 393.35 218.167C393.278 218.091 393.204 218.016 393.135 217.939C392.861 217.631 388.509 201.727 388.187 200.291C394.473 206.521 398.48 214.113 404.141 220.59C404.985 221.557 407.325 223.642 408.95 223.555C414.752 223.246 411.53 214.383 411.797 212.645C412.185 210.127 409.71 202.269 410.485 200.893C411.584 202.052 412.146 203.487 412.904 204.736C418.182 213.441 419.738 222.766 421.9 231.998C422.109 232.884 422.855 233.64 424.215 234.023C425.99 234.062 426.589 233.648 427.765 232.867L427.494 233.479C430.986 239.143 422.179 238.252 421.231 241.203C421.537 241.716 421.676 242.013 421.897 242.535Z" fill="url(#paint0_linear_1436_445)"/>
<path d="M329.446 236.588C331.504 235.886 342.57 235.576 345.591 235.131C349.357 234.577 357.775 235.083 360.412 233.076C360.581 232.752 360.733 232.495 360.597 232.161C359.811 230.212 341.711 223.792 337.716 222.227C342.304 221.628 347.425 221.465 352.413 220.819C356.072 222.936 359.956 226.66 362.905 229.316C368.86 234.487 377.109 240.74 382.532 245.909C380.091 245.504 377.586 244.861 375.242 244.291C360.466 240.697 345.039 238.6 329.446 236.588Z" fill="#52D668"/>
<path d="M349.758 252.341L387.201 250.633C391.232 253.977 396.135 258.256 399.779 261.753C397.259 262.347 394.919 262.888 392.367 263.408C391.368 262.929 390.17 262.393 388.99 262.077C375.993 258.59 363.045 255.427 349.758 252.341Z" fill="#52D668"/>
<path d="M421.896 242.532C421.676 242.011 421.537 241.713 421.23 241.2C422.179 238.25 430.986 239.14 427.493 233.476L427.765 232.864C430.527 227.292 432.055 222.857 434.21 217.24C436.616 226.52 436.593 235.653 436.98 245.091C437.007 245.697 438.007 246.155 438.703 246.513C436.642 246.849 431.831 249.461 430.028 250.37C427.728 248.272 423.861 244.712 421.896 242.532Z" fill="#32A5E2"/>
<defs>
<linearGradient id="paint0_linear_1436_445" x1="403.893" y1="199.628" x2="409.456" y2="242.327" gradientUnits="userSpaceOnUse">
<stop stop-color="#00F375"/>
<stop offset="1" stop-color="#21B6B5"/>
</linearGradient>
</defs>
</svg>
