<svg width="414" height="857" viewBox="0 0 414 857" fill="none" xmlns="http://www.w3.org/2000/svg">
<path d="M11.7341 410.714L10.2269 411.312C8.4834 413.092 8.16422 414.528 8.51293 417.002C10.422 430.337 12.1773 440.52 23.2532 449.776C13.0107 463.059 10.8948 468.437 8.247 485.284C7.92194 487.365 8.28839 488.805 9.74232 490.289C18.7318 490.518 37.6092 460.147 45.7654 453.878C45.0739 459.357 42.367 474.743 46.7524 478.328C53.892 472.972 69.9384 456.311 77.7695 449.205C72.7103 444.563 51.4216 421.916 47.4203 420.447C42.7216 422.993 44.9911 441.075 44.9379 446.895C40.6412 443.678 35.8066 436.459 32.1186 432.275C25.4754 424.751 19.3347 417.516 11.7341 410.714Z" fill="#FCD330"/>
<path d="M181.909 128.348C175.872 129.837 175.027 135.87 173.529 140.662C159.405 134.144 147.042 131.817 131.133 134.638C138.842 144.646 150.36 152.097 162.64 157.045C158.806 159.423 154.505 162.389 150.013 163.358C151.241 167.893 151.612 169.074 153.811 173.269C163.095 173.307 171.834 171.499 180.747 169.441C182.017 169.376 189.87 170.119 191.763 170.285C199.484 170.96 205.007 171.087 212.746 170.571C212.332 166.428 212.075 164.318 211.063 160.287C207.343 158.705 201.976 156.892 198.028 155.41C212.626 146.058 218.286 142.225 228.799 129.147C210.505 128.953 202.904 130.756 187.336 139.017C185.941 134.649 184.94 132.08 181.909 128.348Z" fill="#FE0101"/>
<path d="M163.895 727.881C160.587 727.577 155.646 727.534 153.25 729.913C150.853 735.53 161.871 741.983 166.185 745.025C160.611 748.736 138.681 762.74 138.367 768.705C146.131 773.523 171.695 764.152 179.784 761.094C180.778 765.065 181.956 773.246 185.974 775.223L187.335 774.658C190.24 771.236 191.157 766.89 192.477 762.675C198.921 766.472 220.348 776.054 227.787 773.887C234.284 767.787 207.578 749.436 202.223 745.9C206.649 743.363 216.141 738.713 216.07 733.362C210.934 726.496 191.359 732.645 182.861 731.57C175.878 730.684 170.73 729.408 163.895 727.881Z" fill="#FE0101"/>
<path d="M128.46 65.457C127.576 65.4874 126.644 65.6491 125.748 65.7674C122.2 68.2692 121.19 73.8663 119.935 77.9909C111.966 73.5055 104.086 70.141 94.7839 68.4797C91.1157 67.8248 81.7004 67.0571 78.6775 68.9734C79.1195 75.0892 103.494 90.9507 109.391 94.8132C103.034 99.7457 100.943 101.78 96.5045 108.086C106.009 109.276 117.157 108.387 126.758 107.774C129.882 107.593 138.587 108.604 142.219 108.822C148.677 109.209 153.588 109.12 160.004 108.953C156.402 103.106 150.493 99.1114 144.86 94.9445C147.954 92.3136 153.218 89.0029 156.689 86.5287C164.246 81.147 170.447 75.8819 176.344 68.9848C158.6 69.0602 150.511 69.2463 134.351 77.2595C132.768 72.8479 131.471 69.2588 128.46 65.457Z" fill="#00009F"/>
<path d="M254.322 64.1738C248.949 65.4431 247.1 72.0539 245.152 76.3852C237.628 72.7331 229.495 70.1143 220.959 69.1622C217.269 68.7506 207.192 68.1605 204.379 70.1381C204.639 75.6638 226.468 88.7022 232.013 91.8233C224.887 96.7711 219.555 99.8295 214.212 106.336C228.133 106.791 231.705 106.636 245.128 103.673C250.436 102.296 256.821 103.397 262.443 103.462C269.652 103.544 274.367 103.362 281.31 101.806C278.437 97.2049 273.07 93.4884 268.586 90.0274C280.291 83.4662 292.844 76.1762 300.236 65.5297C283.579 63.6593 272.774 68.8736 258.036 74.7196C257.236 70.9493 256.656 67.4412 254.322 64.1738Z" fill="#00009F"/>
<path d="M95.1505 424.97C93.6349 424.746 93.405 424.83 91.8481 424.964L91.3173 425.774C100.623 433.749 108.089 442.15 116.841 449.697C109.658 457.012 99.4497 466.197 91.394 472.735C90.356 473.575 90.7983 472.819 90.4327 474.172C92.9509 475.895 98.341 473.982 101.272 473.829C114.329 473.141 119.058 469.056 128.099 461.599C129.054 462.741 130.039 463.856 131.059 464.95C139.451 473.866 150.432 472.407 163.63 473.385L170.724 473.522C170.577 473.427 170.424 473.326 170.276 473.231L169.533 472.729C163.04 468.374 151.859 456.145 144.588 449.85C154.029 441.891 162.191 431.569 171.821 425.037C163.441 425.39 146.109 427.286 137.694 428.485C133.165 431.665 131.354 434.221 128.311 438.456C114.942 426.688 113.108 427.654 95.1505 424.97Z" fill="#FCD330"/>
<path d="M246.718 420.139C245.202 419.915 244.972 419.999 243.415 420.133L242.885 420.943C252.191 428.918 259.657 437.319 268.408 444.866C261.225 452.181 251.017 461.366 242.961 467.904C241.923 468.744 242.366 467.988 242 469.341C244.518 471.064 249.908 469.151 252.839 468.997C265.896 468.31 270.626 464.225 279.666 456.768C280.621 457.91 281.606 459.025 282.627 460.119C291.018 469.035 301.999 467.576 315.197 468.554L322.292 468.691C322.144 468.596 321.991 468.495 321.844 468.4L321.101 467.898C314.608 463.543 303.426 451.314 296.155 445.019C305.597 437.06 313.758 426.738 323.389 420.206C315.009 420.559 297.676 422.455 289.261 423.654C284.732 426.834 282.921 429.39 279.878 433.625C266.509 421.857 264.675 422.823 246.718 420.139Z" fill="#FCD330"/>
<path d="M229.098 793.191C225.711 793.197 222.317 793.274 219.395 794.861C215.733 799.628 228.86 806.334 232.766 808.893C227.905 811.771 204.628 826.188 207.3 831.049C215.447 834.311 237.543 828.676 246.209 826.029C246.949 828.923 249.448 837.799 251.917 839.397C255.644 837.925 255.734 829.083 258.93 827.21L260.827 827.825C266.839 830.5 292.09 840.578 297.518 834.926C297.673 828.407 275.403 813.979 269.6 810.283C273.608 807.773 276.924 805.719 280.645 802.891C268.228 791.357 264.704 799.2 250.169 797.799C243.955 797.201 236.541 793.999 229.098 793.191Z" fill="#00009F"/>
<path d="M153.316 791.922C143.398 791.709 137.584 794.12 128.321 794.818C123.503 795.181 112.583 792.424 107.494 794.413C104.782 795.469 99.4159 798.072 98.2425 800.541C99.9761 802.573 106.904 806.274 109.635 807.89C98.9265 814.791 87.8293 823.239 80.4882 833.27C93.1715 833.82 105.654 830.556 116.887 825.313C118.019 824.732 118.898 824.38 120.089 823.9C122.501 826.823 121.834 833.889 125.638 835.548C129.748 833.633 130.98 825.937 131.994 821.996C139.429 825.164 162.962 833.66 170.681 829.489C173.629 824.321 148.422 808.919 143.563 806.551C149.112 803.831 167.697 796.418 153.316 791.922Z" fill="#00009F"/>
<path d="M354.496 159.151C347.202 162.415 328.597 183.504 324.327 190.195C321.635 194.417 317.638 201.453 315.046 206.056C314.673 200.03 316.161 190.034 314.554 185.201C313.012 183.996 313.913 184.436 311.612 184.153C308.6 185.836 308.256 190.196 307.568 193.372C302.367 217.219 289.491 240.535 283.264 263.731C282.98 264.992 283.033 264.343 283.146 265.68C288.661 262.005 307.846 244.791 312.846 242.67C315.165 243.909 313.421 245.093 315.592 246.1C320.14 242.338 326.415 231.737 329.576 226.492C324.731 226.858 319.927 227.12 315.171 228.027C319.933 222.308 324.576 214.487 328.858 208.951C345.577 187.332 348.963 185.731 354.496 159.151Z" fill="#FCD330"/>
<path d="M2.75758 39.7861C-7.67467 48.7521 14.5622 92.2645 18.6318 102.815C8.98966 101.432 10.0947 104.214 10.0828 111.772C17.2535 120.502 22.8973 121.487 30.4423 128.724C34.6009 132.714 41.938 144.766 47.9027 147.599C48.1165 145.239 46.958 140.543 46.4412 137.98C44.7836 127.07 41.5875 117.12 42.4073 105.912C43.0252 97.3775 41.8963 87.23 43.6905 78.8206C41.7122 76.2022 39.7279 73.3431 37.809 70.6718C33.9414 79.0737 33.1335 84.799 30.9829 93.6761C28.9333 88.6358 27.0203 81.424 25.244 76.0508C20.7943 62.5823 12.7918 50.5084 2.75758 39.7861Z" fill="#FCD330"/>
<path d="M397 30.8027C395.436 31.5696 392.443 34.4586 390.955 35.8134C378.17 47.5591 366.962 60.6511 357.565 74.8143C357.53 73.946 357.441 73.0803 357.294 72.2217C356.795 69.4207 355.33 62.9494 352.872 61.2772C347.509 65.5533 338.394 98.738 334.66 107.09C332.231 112.532 323.934 130.722 322.846 136.048C329.426 131.441 352.878 110.889 359.053 111.299C360.293 111.382 361.54 111.578 362.74 111.153C367.944 109.315 371.143 99.4613 373.125 94.9532C372.966 94.9854 372.813 95.0177 372.66 95.0493L371.878 95.1917C367.215 96.0777 363.934 95.9719 359.158 96.0401C360.905 93.4153 362.81 91.3596 364.845 88.9528C378.535 72.7549 394.959 51.7557 397 30.8027Z" fill="#FCD330"/>
<path d="M226.095 6.69376C211.027 5.78317 206.044 12.4179 193.052 14.7209C191.011 15.0837 178.263 9.94786 174.881 8.89506C168.653 6.99548 162.091 6.17628 155.53 6.478C153.128 6.58669 152.505 6.61048 151.057 8.0326C150.488 11.4825 157.055 16.4615 159.641 18.706C165.959 24.1988 172.621 27.4907 180.743 30.1636C170.824 33.4031 164.951 36.6377 158.253 44.1825C158.028 45.1601 158.004 44.6378 158.508 45.7344C165.004 47.5042 186.402 43.917 193.331 41.0333C206.981 45.0244 215.856 45.8436 229.862 45.3483C224.215 36.6929 216.069 33.0684 206.062 30.1636C212.967 27.9244 234.021 15.1464 235.124 9.26059L234.252 8.22186C231.191 7.04091 229.376 7.03009 226.095 6.69376Z" fill="#FCD330"/>
<path d="M6.01284 164.285L5.15321 164.681C4.10384 167.296 4.69669 171.87 4.61962 174.767C4.05046 195.984 14.0285 210.013 19.969 228.353L20.2417 229.22L10.1215 224.119C9.55823 228.13 9.55225 230.721 9.54632 234.788C15.3801 243.268 22.8029 242.486 27.6941 247.661C33.9785 254.313 41.7036 263.822 47.9287 270.814L47.3476 260.256C46.7666 252.334 45.1126 244.618 44.1225 236.729C43.4051 231.053 46.4525 193.954 39.178 192.911C38.1642 194.37 37.7136 199.275 37.1622 201.484C35.7749 207.038 33.9192 211.97 31.7789 217.303C30.3501 212.048 28.6249 204.463 26.8344 199.542C23.2001 189.544 13.234 172.339 6.01284 164.285Z" fill="#FCD330"/>
<path d="M363.368 0.0848349C345.029 -0.879078 337.183 6.57127 321.694 12.2674L320.854 12.5723C317.259 11.7778 312.203 9.94364 308.691 8.6309C296.893 4.22368 290.037 3.79757 277.624 5.3988C283.926 14.1513 293.614 21.6869 304.053 26.3429C300.291 28.1447 293.077 31.1365 290.269 33.3454C287.163 36.3843 284.599 39.1278 281.696 42.3297C294.902 42.5912 308.06 40.8164 320.586 37.083C322.273 36.9782 322.923 38.0136 323.918 38.0083C328.598 37.986 349.62 40.9625 349.036 34.2082C345.989 30.0064 341.977 28.0595 337.327 25.2614C342.978 22.3522 366.629 6.8804 365.288 1.19379L363.368 0.0848349Z" fill="#FCD330"/>
<path d="M6.25238 287.501L5.69232 288.227C4.26575 296.415 8.96398 320.584 12.1767 329.052C14.2045 334.395 19.1976 343.757 22.0212 349.102C17.9184 349.488 11.4693 349.095 9.18802 352.149C8.88148 359.505 25.8942 366.258 32.4964 368.175C35.0548 371.695 48.8665 387.922 52.6039 388.896L53.3584 388.071C52.427 381.054 51.1773 374.075 49.6152 367.151C48.2475 361.268 46.3671 354.736 45.5595 348.849C44.4984 341.055 46.0016 328.501 42.7123 321.57C40.7434 320.649 41.775 320.86 39.4996 320.997C35.7976 324.457 37.4186 332.48 34.5006 334.197C31.0993 331.843 25.2693 314.212 22.198 309.034C17.5234 301.148 13.6033 293.92 6.25238 287.501Z" fill="#FCD330"/>
<path d="M36.635 2.57762C33.573 2.50729 30.2088 2.77006 27.1289 2.93689C32.649 14.4058 45.8509 22.7252 58.04 27.4699C49.6297 32.1317 47.9298 33.0313 42.3801 40.4217C53.4321 42.8554 59.7754 41.3131 70.6733 41.1762C71.9289 41.1604 81.5002 42.8985 83.354 43.219C91.4564 44.624 96.8757 44.9745 105.085 44.9145C103.142 41.7498 102.473 41.1272 99.8727 38.585C94.1631 33.2951 88.9866 31.6204 81.5475 28.9354C85.0953 27.5512 92.3862 24.7151 95.6734 22.2536C99.2685 19.5577 110.409 12.2491 111.203 8.03867C111.357 7.19855 110.848 7.03336 110.107 6.24503C97.391 1.7195 81.8318 10.8692 70.1402 12.6449C54.6107 7.02409 57.4418 3.56712 36.635 2.57762Z" fill="#FCD330"/>
<path d="M326.081 754.24L325.563 754.364C325.274 755.425 347.727 810.911 349.341 822.248C351.396 824.241 353.745 827.532 356.813 826.304C358.592 823.347 356.925 815.521 356.413 811.789C365.917 822.528 380.032 846.323 390.826 855.635C392.61 855.501 392.616 854.941 394.288 853.459C390.584 830.515 372.347 809.57 358.851 790.514C363.797 791.462 368.944 792.609 373.89 793.638C370.816 782.495 361.848 776.963 352.503 769.267C351.425 771.287 350.424 773.689 349.482 775.789C345.042 770.064 332.329 758.527 326.081 754.24Z" fill="#FCD330"/>
<path d="M50.6406 753.403C44.8725 755.496 29.1377 772.959 22.7419 777.661C18.703 780.63 4.98162 793.273 9.63636 798.152C13.2607 799.271 15.6946 797.814 19.2183 796.458C14.4865 806.12 -4.10869 847.84 2.19237 855.953L3.09839 856.082L5.59163 854.253C15.7124 849.642 19.917 832.631 24.1335 823.572C26.455 818.579 28.356 814.615 30.9676 809.665C31.6605 813.447 34.349 828.365 37.8134 829.5C42.8531 825.439 39.7322 789.179 41.876 779.565C44.0494 769.785 48.6212 761.554 50.6406 753.403Z" fill="#FCD330"/>
<path d="M283.379 635.323L283.052 636.522C288.708 655.921 297.807 674.909 304.473 694.085C307.494 702.788 309.316 708.514 316.575 715.295C317.376 707.214 317.263 705.084 315.934 696.988C321.762 705.723 345.741 736.084 354.294 741.852L355.178 741.426L355.397 739.722C350.768 720.062 327.822 690.159 314.747 672.88C318.397 673.69 325.905 675.623 329.401 675.245L329.982 674.553C327.555 669.53 317.251 659.388 312.841 655.058C309.328 657.162 308.443 658.19 305.891 661.061C300.923 651.521 292.204 642.194 283.379 635.323Z" fill="#FCD330"/>
<path d="M329.327 531L329 532.198C334.657 551.597 343.755 570.586 350.421 589.761C353.442 598.465 355.264 604.191 362.523 610.971C363.324 602.891 363.211 600.761 361.882 592.664C367.71 601.4 391.689 631.761 400.242 637.529L401.126 637.103L401.346 635.399C396.716 615.739 373.77 585.836 360.695 568.557C364.345 569.366 371.853 571.3 375.349 570.922L375.931 570.229C373.503 565.207 363.199 555.065 358.79 550.735C355.276 552.838 354.392 553.866 351.839 556.737C346.871 547.198 338.153 537.871 329.327 531Z" fill="#FCD330"/>
<path d="M62.6804 233.593L61.7301 234.595C60.9402 237.864 62.3418 243.518 62.8586 246.848C65.7451 265.505 70.9422 273.41 80.0712 289.413C67.0103 283.183 66.1193 293.852 73.0448 297.196C90.4177 305.583 100.58 318.91 115.381 329.854C116.094 328.52 115.625 328.108 115.269 326.298C111.841 314.715 108.961 303.008 106.633 291.207C105.528 285.575 104.061 265.06 98.2401 262.94C96.577 264.905 94.4685 277.418 93.4766 281.066C83.3973 257.001 80.6117 254.016 62.6804 233.593Z" fill="#00009F"/>
<path d="M393.164 313.631L391.827 313.975C389.42 316.324 387.603 321.858 386.271 324.954C378.8 342.292 379.001 351.75 378.23 370.157C370.477 357.939 364.052 366.503 368.141 373.016C378.4 389.353 379.925 406.044 386.647 423.181C387.96 422.429 387.781 421.831 388.441 420.108C391.694 408.475 395.476 397.027 399.776 385.793C401.833 380.436 411.493 362.278 407.689 357.389C405.236 358.17 396.8 367.649 394.021 370.211C398.273 344.47 397.5 340.461 393.164 313.631Z" fill="#00009F"/>
<path d="M351.335 405.003L352.689 404.735C355.875 405.812 359.908 410.016 362.448 412.231C376.682 424.632 380.592 433.247 389.249 449.51C390.954 435.14 400.451 440.083 399.581 447.724C397.398 466.891 403.241 482.6 404.593 500.957C403.084 500.848 402.987 500.231 401.646 498.963C393.682 489.882 385.32 481.196 376.585 472.927C372.413 468.986 355.85 456.793 357.165 450.739C359.714 450.382 371.421 455.28 375.034 456.388C360.067 435.018 359.03 431.069 351.335 405.003Z" fill="#00009F"/>
<path d="M62.0803 114.23C60.9306 116.218 61.8288 120.59 61.8827 122.895C62.3618 142.824 67.4813 155.132 77.6367 172.627C77.1157 174.635 73.1338 173.493 69.4034 176.298C66.7269 181.919 74.3673 184.651 78.3852 187.665C80.5527 189.292 81.8342 188.53 84.3311 188.027C86.0915 189.248 102.097 210.777 104.905 214.342L104.558 203.588C104.187 197.024 103.037 190.557 102.786 183.924C102.36 172.823 103.127 160.763 101.971 149.73C101.72 147.367 97.3127 141.903 95.6181 139.76C92.9655 148.639 92.762 154.158 92.4147 163.142C83.6126 145.475 78.7085 128.602 62.0803 114.23Z" fill="#FE0101"/>
<path d="M52.4502 509.542C51.0717 510.4 43.1641 518.059 42.0848 519.332C36.0662 526.409 9.55143 545.293 11.4931 553.983C15.2709 557.101 22.5859 550.73 25.7771 548.432C22.8557 556.696 18.2626 565.348 15.1359 573.698C10.8713 585.074 9.21706 594.88 7.23432 606.601C8.04971 607.782 7.98515 607.701 9.32848 608.37C20.4154 605.938 31.5551 575.424 35.2684 566.286C36.3829 570.354 38.8115 581.638 42.2608 583.58L43.3343 583.18C47.7221 575.65 44.2611 548.913 45.8332 539.721C47.728 528.691 52.4502 521.322 52.4502 509.542Z" fill="#FCD330"/>
<path d="M124.738 192.522C121.813 194.454 123.449 198.155 123.402 201.537C123.19 218.459 130.805 231.896 138.737 246.649C135.618 245.437 129.275 241.994 126.633 243.453C120.913 253.509 148.623 262.861 153.124 270.246C154.989 273.304 167.653 292.881 171.625 291.255C172.148 289.339 171.525 288.117 170.942 286.191C168.706 280.216 164.675 270.417 163.569 264.626C166.064 259.12 163.051 245.472 162.445 238.938C162.015 234.292 161.533 217.398 157.561 215.07L156.255 215.363C154.072 218.607 152.971 234.363 152.024 239.72C148.987 232.976 146.457 225.927 143.185 219.244C138.248 209.163 131.993 201.168 124.738 192.522Z" fill="#FCD330"/>
<path d="M318.323 106.527C308.511 109.349 287.386 135.321 281.087 143.992C280.768 138.15 282.974 129.633 278.479 125.505C269.808 123.812 268.348 159.099 266.266 163.579C262.498 171.685 259.281 178.081 256.442 186.573L252.308 197.655C262.646 190.635 273.18 180.699 284.204 174.752C285.073 174.286 289.189 173.986 290.426 173.891C292.3 170.731 296.363 163.816 295.896 160.374C293.424 158.275 293.779 159.866 290.934 158.419C292.91 154.273 297.7 149.568 300.521 145.115C308.783 132.09 313.527 120.683 318.323 106.527Z" fill="#00009F"/>
<path d="M107.495 685.379C105.224 685.972 78.0283 714.055 73.0778 717.726C71.3271 719.03 67.5536 724.572 69.3398 727.158C72.2971 727.965 75.5028 726.378 78.1584 725.224C74.2607 733.01 57.0139 773.737 62.5913 778.985C65.0104 779.113 63.8097 779.279 66.2169 778.071C80.6485 766.159 81.0389 754.472 90.1887 739.268C91.5017 743.265 93.1696 755.578 98.1497 756.118C102.686 752.965 99.7703 723.188 101.486 715.289C103.242 707.215 108.453 692.556 107.495 685.379Z" fill="#00009F"/>
<path d="M114.851 567.299C111.828 568.644 99.4009 582.394 95.8146 585.833C90.4232 591.01 72.4619 603.151 72.0641 609.642C74.2551 613.21 78.7855 611.181 82.2769 610.185C82.1878 610.347 82.0927 610.508 82.0037 610.669C77.1942 619.296 61.1983 654.471 64.7074 662.392C65.0696 663.21 65.4912 663.194 66.2928 663.56L68.3888 662.758C78.6846 655.956 86.2966 635.925 93.9858 624.107C95.4346 628.418 96.6755 637.674 99.3831 640.613C103.468 640.672 103.759 634.063 103.724 631.254C103.658 625.986 104.371 620.281 104.228 615.077C103.771 598.432 112.274 583.374 114.851 567.299Z" fill="#00009F"/>
<path d="M254.759 703.349L254.109 704.377C260.18 724.097 267.313 743.871 274.612 763.248C275.835 766.501 278.799 776.219 281.97 777.368C283.6 774.968 284.085 762.692 284.498 758.977C289.641 765.155 295.553 771.042 300.679 777.268C305.793 783.478 310.133 789.82 315.649 795.759C316.021 795.399 316.245 794.832 316.505 794.345C316.729 778.285 297.885 751.231 286.588 738.377L300.832 739.41C297.159 730.223 286.47 723.361 277.583 717.819L277.961 725.963C272.616 720.389 260.564 707.211 254.759 703.349Z" fill="#FE0101"/>
<path d="M166.398 613.504C163.23 614.756 140.538 641.565 135.316 645.71C133.459 647.18 131.595 649.928 132.468 652.338C134.105 652.953 134.693 652.863 136.438 652.889L137.043 652.895C137.417 654.083 131.554 666.793 130.61 669.207C128.925 673.458 127.495 677.783 126.332 682.171C125.329 686.061 121.146 698.425 126.777 699.497C129.429 698.866 131.305 697.131 133.482 695.512C139.766 688.295 146.846 671.192 150.709 662.394C152.537 668.48 154.05 674.18 156.595 680.08C161.076 676.472 163.046 674.487 166.333 670.035C159.533 645.041 165.918 636.683 166.387 614.268L166.398 613.504Z" fill="#FCD330"/>
<path d="M281.242 228.459C273.334 231.861 257.285 260.551 252.988 268.245C253.298 263.082 254.907 238.908 253.22 235.512C251.808 234.443 251.915 234.323 250.121 234.21C248.202 236.112 243.5 267.65 243.023 272.506C241.748 285.615 236.23 295.548 232.308 308.247C229.68 316.482 227.749 325.273 225.174 333.705C230.973 327.493 236.826 321.322 242.731 315.193C247.916 309.902 257.97 301.371 258.977 293.783C259.18 292.231 256.659 291.021 255.324 290.102C254.811 288.605 259.68 281.017 260.837 278.99C270.008 262.933 277.452 246.233 281.242 228.459Z" fill="#00009F"/>
<path d="M132.587 308.036L132.032 308.901C135.361 330.724 135.373 330.769 149.523 349.798C145.917 349.827 140.539 349.357 138.354 352.238C139.476 355.307 152.788 365.44 155.887 368.655C167.476 380.692 177.682 393.954 189.908 405.581C188.964 401.917 186.897 396.947 185.51 393.28C181.295 381.317 178.155 374.532 171.336 363.868C171.472 362.124 172.889 361.325 173.993 360.035C177.139 356.375 173.999 329.794 173.273 323.901C169.849 332.437 168.727 340.135 166.082 348.744C159.181 339 141.088 315.289 132.587 308.036Z" fill="#FCD330"/>
<path d="M199.352 257.244L198.474 257.777C191.877 278.844 191.868 278.889 196.22 302.2C192.967 300.642 188.342 297.857 185.114 299.486C184.774 302.735 192.281 317.686 193.652 321.936C198.774 337.84 202.117 354.238 207.992 370.054C208.753 366.347 209.08 360.976 209.445 357.071C210.914 344.473 211.074 336.998 209.634 324.423C210.522 322.916 212.145 322.821 213.704 322.146C218.139 320.241 226.995 294.983 228.932 289.37C222.106 295.534 217.716 301.956 211.558 308.529C209.64 296.744 203.803 267.494 199.352 257.244Z" fill="#FCD330"/>
<path d="M390.321 185L390.876 185.865C387.547 207.688 387.535 207.732 373.385 226.762C376.992 226.791 382.37 226.321 384.554 229.202C383.432 232.271 370.12 242.404 367.021 245.619C355.433 257.656 345.226 270.918 333 282.545C333.945 278.881 336.011 273.911 337.398 270.244C341.613 258.281 344.754 251.496 351.572 240.832C351.436 239.088 350.019 238.289 348.915 236.999C345.769 233.338 348.91 206.758 349.636 200.865C353.06 209.4 354.181 217.098 356.826 225.708C363.727 215.964 381.821 192.252 390.321 185Z" fill="#FCD330"/>
<path d="M402.321 239L402.876 239.865C399.547 261.688 399.535 261.732 385.385 280.762C388.992 280.791 394.37 280.321 396.554 283.202C395.432 286.271 382.12 296.404 379.021 299.619C367.433 311.656 357.226 324.918 345 336.545C345.945 332.881 348.011 327.911 349.398 324.244C353.613 312.281 356.754 305.496 363.572 294.832C363.436 293.088 362.019 292.289 360.915 290.999C357.769 287.338 360.91 260.758 361.636 254.865C365.06 263.4 366.181 271.098 368.826 279.708C375.727 269.964 393.821 246.252 402.321 239Z" fill="#FCD330"/>
<path d="M243.266 175.836C234.791 177.769 219.204 198.785 214.258 205.228C213.94 200.696 213.243 195.64 212.73 191.082C207.052 191.005 202.366 190.931 196.671 191.298C198.825 200.067 200.36 205.733 203.611 214.03C196.919 223.023 194.942 230.656 191.342 240.962C191.094 241.504 190.852 242.05 190.622 242.598C189.801 244.57 189.642 244.635 190.403 246.139L191.938 246.428C197.869 244.868 205.518 238.519 210.05 234.724C211.673 237.832 214.707 244.58 217.628 246.296L218.401 245.911C220.497 240.875 223.158 231.448 223.377 226.056C219.688 219.122 225.171 218.096 228.434 212.038C234.336 201.101 241.666 187.923 243.266 175.836Z" fill="#FE0101"/>
<path d="M369.354 330C360.88 331.933 345.293 352.949 340.347 359.392C340.029 354.86 339.332 349.804 338.819 345.246C333.141 345.169 328.455 345.095 322.76 345.462C324.914 354.231 326.448 359.897 329.7 368.195C323.008 377.188 321.031 384.82 317.43 395.126C317.183 395.668 316.941 396.214 316.71 396.762C315.89 398.734 315.731 398.799 316.492 400.303L318.027 400.592C323.958 399.033 331.607 392.683 336.139 388.888C337.762 391.996 340.796 398.744 343.717 400.46L344.49 400.075C346.585 395.039 349.247 385.612 349.465 380.22C345.777 373.286 351.26 372.26 354.523 366.202C360.425 355.265 367.755 342.087 369.354 330Z" fill="#FE0101"/>
<path d="M409.354 106C400.88 107.933 385.293 128.949 380.347 135.392C380.029 130.86 379.332 125.804 378.819 121.246C373.141 121.169 368.455 121.095 362.76 121.462C364.914 130.231 366.448 135.897 369.7 144.195C363.008 153.188 361.031 160.82 357.43 171.126C357.183 171.668 356.941 172.214 356.71 172.762C355.89 174.734 355.731 174.799 356.492 176.303L358.027 176.592C363.958 175.033 371.607 168.683 376.139 164.888C377.762 167.996 380.796 174.744 383.717 176.46L384.49 176.075C386.585 171.039 389.247 161.612 389.465 156.22C385.777 149.286 391.26 148.26 394.523 142.202C400.425 131.265 407.755 118.087 409.354 106Z" fill="#FE0101"/>
<path d="M189 494.14C185.459 495.589 168.143 518.423 163.813 522.75C156.018 530.544 146.123 537.731 139.824 546.304C142.635 545.992 145.999 545.316 148.828 544.817C144.332 551.328 125.848 581.865 131.175 587.834L132.735 587.802C135.736 586.417 137.753 583.915 140.043 581.575C148.016 574.039 157.264 558.869 162.686 549.75C165.675 559.873 164.88 566.819 169.668 577.667C173.417 557.409 171.293 534.919 181.342 515.745C183.922 510.833 187.885 499.561 189 494.14Z" fill="#FCD330"/>
<path d="M332 607C335.541 608.449 352.857 631.284 357.187 635.61C364.982 643.404 374.877 650.592 381.176 659.164C378.365 658.853 375.001 658.176 372.172 657.677C376.668 664.188 395.152 694.725 389.825 700.694L388.265 700.662C385.264 699.277 383.247 696.776 380.957 694.435C372.984 686.899 363.736 671.73 358.314 662.61C355.325 672.734 356.12 679.679 351.332 690.528C347.583 670.27 349.707 647.779 339.658 628.605C337.078 623.694 333.115 612.421 332 607Z" fill="#FCD330"/>
<path d="M354 689C357.541 690.449 374.857 713.284 379.187 717.61C386.982 725.404 396.877 732.592 403.176 741.164C400.365 740.853 397.001 740.176 394.172 739.677C398.668 746.188 417.152 776.725 411.825 782.694L410.265 782.662C407.264 781.277 405.247 778.776 402.957 776.435C394.984 768.899 385.736 753.73 380.314 744.61C377.325 754.734 378.12 761.679 373.332 772.528C369.583 752.27 371.707 729.779 361.658 710.605C359.078 705.694 355.115 694.421 354 689Z" fill="#FCD330"/>
<path d="M192.315 643.024L191.721 643.548C191.54 646.541 203.661 708.707 204.705 710.523C205.257 711.489 204.933 711.176 206.086 711.554C208.421 709.739 212.455 698.552 214.652 694.776L215.042 694.122C220.907 700.869 233.388 720.727 240.633 725.167C245.904 718.08 224.299 679.067 219.971 670.904C222.504 671.277 226.7 671.304 229.396 671.396C225.692 662.79 216.987 657.885 208.979 652.629C208.805 655.789 208.907 659.673 208.907 662.882C202.796 657.156 199.014 649.215 192.315 643.024Z" fill="#FCD330"/>
<path d="M243.635 500.558L243.334 500.83C241.718 505.464 268.15 581.509 272.739 590.042C272.768 582.469 272.202 574.57 271.724 567.007C279.994 578.959 290.387 593.226 299.601 604.427C302.084 607.685 304.237 610.837 307.47 613.504C300.846 583.146 283.999 567.727 268.533 542.015L279.257 545.359C269.742 530.212 256.046 513.923 243.635 500.558Z" fill="#FCD330"/>
<path d="M228.806 567.299C228.511 568.335 235.435 597.377 236.325 601.937C238.16 611.321 242.594 646.088 247.797 652.358L248.706 652.374C251.088 649.347 252.075 637.217 252.947 632.484C259.853 643.433 266.151 652.946 273.244 663.766C274.357 665.59 277.1 670.889 279.103 671.261C279.915 668.714 279.067 664.624 278.502 662.001C274.321 642.64 263.944 625.453 253.055 608.606C255.371 608.925 259.185 609.858 260.828 608.25C259.745 602.897 234.106 572.35 228.806 567.299Z" fill="#00009F"/>
<path d="M328.92 281C320.346 286.346 298.272 321.802 291.557 331.332C291.681 325.056 292.513 310.69 291.905 305.229L291.185 305.105C286.624 310.96 270.869 365.411 267.364 376.388C265.346 382.389 263.057 389.075 262 395.23C268.609 389.323 289.787 362.315 295.038 353.35C295.422 352.697 295.18 352.657 294.448 351.731C292.772 351.606 292.153 351.607 290.512 351.212C290.554 348.947 296.207 341.722 297.977 339.363C311.767 320.934 322.506 302.676 328.92 281Z" fill="#FCD330"/>
<path d="M146.502 495.426C130.696 498.89 119.086 502.284 102.4 503.293C92.6866 503.881 83.7223 503.611 74.2587 504.167C74.7758 504.874 77.6411 508.748 78.3247 509.196C79.2639 509.816 80.5361 509.218 81.9865 510.977C80.6252 515.639 60.4793 551.526 70.7157 553.183C73.1173 552.384 74.431 550.69 76.2203 548.931C87.1641 536.785 92.1397 529.177 100.831 515.698C102.192 522.372 101.36 531.189 102.941 536.288C106.638 534.68 113.855 523.193 117.291 519.847C123.877 513.432 130.345 507.41 138.156 502.133C140.991 500.217 144.582 498.091 146.502 495.426Z" fill="#FCD330"/>
<path d="M368.676 479C352.869 482.464 341.26 485.858 324.574 486.867C314.86 487.455 305.896 487.185 296.433 487.741C296.95 488.448 299.815 492.322 300.499 492.77C301.438 493.391 302.71 492.792 304.16 494.551C302.799 499.213 282.653 535.1 292.89 536.757C295.291 535.958 296.605 534.264 298.394 532.505C309.338 520.359 314.313 512.751 323.004 499.272C324.366 505.947 323.533 514.763 325.115 519.863C328.812 518.255 336.029 506.767 339.465 503.421C346.051 497.006 352.519 490.984 360.33 485.707C363.165 483.792 366.756 481.666 368.676 479Z" fill="#FCD330"/>
<path d="M404.606 588.36C405.544 572.206 405.415 560.111 408.955 543.774C411.014 534.263 413.698 525.705 415.721 516.444C414.901 516.751 410.396 518.462 409.78 518.999C408.929 519.736 409.162 521.122 407.076 522.043C402.955 519.472 373.851 490.375 369.488 499.782C369.608 502.31 370.884 504.033 372.094 506.231C380.829 520.051 386.809 526.898 397.436 538.909C390.642 538.415 382.378 535.231 377.042 535.374C377.59 539.369 386.699 549.422 388.991 553.635C393.387 561.71 397.436 569.565 400.405 578.512C401.483 581.76 402.559 585.791 404.606 588.36Z" fill="#FCD330"/>
<path d="M69.1029 349.106C65.6446 352.221 70.1652 368.058 71.6877 372.062C74.1015 378.424 78.2739 384.44 82.1335 390.157C77.4949 392.171 76.8929 393.167 73.5349 396.678C85.4737 398.089 97.4066 397.667 108.714 399.029C120.299 400.424 135.56 404.393 147.41 406.863C144.961 404.847 142.453 403.215 139.815 401.422C130.378 395.163 122.5 388.367 115.389 379.884C113.37 377.477 106.524 365.996 103.302 366.249C101.449 369.402 101.892 382.283 101.626 386.838C95.1699 381.003 92.6617 373.506 87.4743 367.195C82.6823 361.364 74.8037 354.348 69.1029 349.106Z" fill="#FCD330"/>
<path d="M42.0403 680.83C42.5395 670.267 42.7653 661.657 46.1407 651.398C47.3649 647.68 52.624 632.133 49.8369 630.19C44.6134 633.123 24.5693 656.933 17.0936 662.399C10.4855 667.226 0.656536 685.062 22.3527 674.293L18.9715 681.095C22.3409 682.93 30.0186 686.782 32.6274 688.969C34.4161 692.681 34.1605 703.195 39.1523 707.199L40.1447 707.015C42.4266 703.222 42.2602 685.949 42.0403 680.83Z" fill="#FCD330"/>
<path d="M19.7416 681.529C15.0209 692.595 3.1446 721.334 5.80633 731.903L6.79099 732.869C14.7284 732.473 22.6838 710.548 25.1426 705.327C27.6909 699.915 30.5735 694.499 33.4561 689.203C30.8361 687.072 23.1255 683.317 19.7416 681.529Z" fill="#FFD941"/>
<path d="M236.026 373.492C234.076 375.387 231.053 383.245 229.92 385.996C223.779 400.858 217.172 415.869 217.261 431.935C217.291 437.152 216.522 439.829 217.667 445.248L218.275 446.47L219.008 446.651C223.486 442.082 235.072 383.69 236.026 373.492Z" fill="#00009F"/>
<path d="M218.941 454.353L217.476 455.339C215.653 458.672 216.186 464.517 216.253 468.143C216.634 489.453 226.184 506.022 233.408 525.47L233.862 526.228C236.599 521.076 222.66 463.018 218.941 454.353Z" fill="#00009F"/>
<path d="M209.787 583.078C215.457 586.687 215.711 591.549 219.598 595.535L220.325 595.131C222.339 586.239 214.5 558.846 211.63 549.33C210.879 559.907 209.899 572.572 207.991 583.012L209.787 583.078Z" fill="#00009F"/>
<path d="M194.169 442.801C192.498 443.349 184.605 449.323 182.671 450.715C186.743 453.757 191.767 458.273 196.938 458.202C200.046 456.892 208.213 453.554 208.896 450.479C207.284 448.364 197.335 444.259 194.169 442.801Z" fill="#FCD330"/>
<path d="M196.239 551.896L195.136 552.146C193.695 556.007 192.159 567.502 191.436 572.213C189.153 586.8 187.143 601.425 185.387 616.071C190.078 606.4 194.733 564.686 196.239 551.896Z" fill="#00009F"/>
<path d="M216.182 379.91C213.301 385.415 214.14 413.612 216.24 419.698C218.165 407.795 218.86 391.862 216.182 379.91Z" fill="#00009F"/>
<path d="M206.287 590.402C204.853 596.608 202.342 606.23 201.662 612.222C203.4 610.171 202.613 609.226 204.087 607.651L206.095 607.99C207.278 603.004 208.157 598.975 208.896 593.945C208.203 591.534 208.573 592.37 206.287 590.402Z" fill="#00009F"/>
<path d="M215.912 490.29C214.353 493.4 215.907 504.095 216.327 508.259C219.289 504.224 217.595 494.782 215.912 490.29Z" fill="#00009F"/>
<path d="M206.185 607.408L203.943 606.619C202.558 608.107 203.297 609.001 201.663 610.938C200.744 613.547 202.203 618.468 202.724 621.206C204.004 616.686 205.073 611.969 206.185 607.408Z" fill="#00009F"/>
<path d="M209.805 582.768L207.963 582.701L206.187 590.662C208.284 592.657 207.945 591.809 208.581 594.253C208.975 592.38 209.411 585.56 209.805 582.768Z" fill="#00009F"/>
</svg>
