<svg width="894" height="960" viewBox="0 0 894 960" fill="none" xmlns="http://www.w3.org/2000/svg">
<path d="M467.978 454.171L466.311 454.832C464.383 456.8 464.03 458.388 464.416 461.124C466.527 475.87 468.468 487.13 480.715 497.366C469.389 512.055 467.05 518.001 464.122 536.632C463.762 538.932 464.167 540.525 465.775 542.165C475.716 542.419 496.59 508.834 505.61 501.902C504.845 507.961 501.852 524.974 506.701 528.939C514.596 523.016 532.34 504.592 541 496.734C535.406 491.602 511.864 466.558 507.44 464.934C502.244 467.749 504.753 487.744 504.695 494.18C499.943 490.623 494.597 482.64 490.519 478.013C483.173 469.694 476.382 461.693 467.978 454.171Z" fill="#FCD330"/>
<path d="M656.149 141.928C649.473 143.576 648.539 150.246 646.883 155.545C631.264 148.338 617.593 145.765 600 148.884C608.525 159.951 621.262 168.191 634.841 173.662C630.602 176.292 625.846 179.571 620.878 180.643C622.236 185.658 622.647 186.963 625.077 191.603C635.344 191.645 645.008 189.646 654.864 187.369C656.269 187.298 664.952 188.12 667.045 188.303C675.583 189.049 681.69 189.19 690.248 188.619C689.791 184.038 689.507 181.704 688.387 177.247C684.274 175.498 678.339 173.492 673.974 171.854C690.116 161.512 696.375 157.274 708 142.812C687.771 142.598 679.366 144.591 662.151 153.726C660.607 148.897 659.501 146.055 656.149 141.928Z" fill="#FE0101"/>
<path d="M636.229 804.896C632.571 804.559 627.107 804.511 624.457 807.142C621.807 813.354 633.991 820.49 638.762 823.854C632.598 827.957 608.347 843.443 608 850.038C616.585 855.367 644.854 845.005 653.799 841.623C654.898 846.014 656.2 855.06 660.644 857.247L662.149 856.622C665.361 852.838 666.376 848.032 667.835 843.371C674.961 847.57 698.655 858.166 706.881 855.769C714.066 849.023 684.534 828.732 678.612 824.821C683.507 822.016 694.003 816.874 693.924 810.957C688.245 803.364 666.598 810.164 657.202 808.975C649.48 807.995 643.787 806.584 636.229 804.896Z" fill="#FE0101"/>
<path d="M597.05 72.3833C596.073 72.4169 595.042 72.5957 594.051 72.7265C590.127 75.493 589.01 81.6823 587.623 86.2433C578.81 81.2833 570.097 77.5629 559.811 75.7258C555.754 75.0016 545.343 74.1526 542 76.2717C542.489 83.0346 569.443 100.574 575.963 104.846C568.934 110.3 566.622 112.549 561.713 119.523C572.224 120.838 584.551 119.856 595.168 119.177C598.623 118.977 608.248 120.096 612.265 120.336C619.406 120.764 624.837 120.666 631.932 120.481C627.948 114.016 621.415 109.599 615.185 104.991C618.607 102.081 624.427 98.4204 628.265 95.6845C636.622 89.7334 643.48 83.9112 650 76.2843C630.379 76.3677 621.434 76.5735 603.564 85.4346C601.814 80.5562 600.38 76.5873 597.05 72.3833Z" fill="#00009F"/>
<path d="M736.227 70.9639C730.286 72.3674 728.242 79.6777 726.087 84.4673C717.768 80.4288 708.774 77.5329 699.335 76.4801C695.254 76.0249 684.111 75.3724 681 77.5592C681.288 83.6695 705.427 98.0874 711.558 101.539C703.678 107.01 697.782 110.392 691.874 117.587C707.267 118.09 711.217 117.918 726.061 114.642C731.93 113.12 738.991 114.337 745.208 114.409C753.18 114.5 758.394 114.299 766.071 112.578C762.894 107.49 756.959 103.38 752.001 99.5529C764.944 92.2975 778.825 84.2362 787 72.4631C768.58 70.3949 756.632 76.1609 740.334 82.6255C739.45 78.4562 738.808 74.577 736.227 70.9639Z" fill="#00009F"/>
<path d="M560.217 469.936C558.541 469.688 558.287 469.782 556.565 469.93L555.978 470.825C566.269 479.644 574.525 488.934 584.202 497.28C576.259 505.368 564.971 515.525 556.063 522.755C554.915 523.684 555.404 522.848 555 524.344C557.785 526.25 563.745 524.134 566.986 523.964C581.424 523.205 586.654 518.687 596.651 510.441C597.708 511.703 598.797 512.936 599.925 514.146C609.205 524.005 621.347 522.392 635.942 523.474L643.787 523.625C643.624 523.52 643.454 523.409 643.291 523.304L642.47 522.749C635.29 517.933 622.925 504.41 614.885 497.449C625.325 488.648 634.351 477.234 645 470.01C635.733 470.401 616.567 472.497 607.261 473.824C602.253 477.339 600.251 480.166 596.886 484.849C582.102 471.836 580.074 472.905 560.217 469.936Z" fill="#FCD330"/>
<path d="M708.34 877.117C704.594 877.123 700.842 877.208 697.61 878.963C693.561 884.235 708.077 891.65 712.396 894.481C707.021 897.663 681.281 913.605 684.235 918.98C693.244 922.588 717.679 916.356 727.262 913.429C728.079 916.63 730.843 926.444 733.573 928.211C737.695 926.584 737.794 916.806 741.329 914.735L743.426 915.415C750.074 918.373 777.998 929.517 783.999 923.268C784.171 916.059 759.545 900.104 753.128 896.017C757.559 893.242 761.226 890.97 765.342 887.843C751.611 875.089 747.713 883.761 731.641 882.213C724.769 881.551 716.571 878.01 708.34 877.117Z" fill="#00009F"/>
<path d="M624.533 875.713C613.566 875.477 607.137 878.143 596.893 878.915C591.566 879.316 579.49 876.267 573.863 878.467C570.864 879.635 564.93 882.513 563.633 885.243C565.55 887.49 573.211 891.583 576.23 893.37C564.389 901.001 552.118 910.343 544 921.436C558.025 922.043 571.829 918.434 584.25 912.637C585.502 911.994 586.474 911.605 587.791 911.074C590.458 914.306 589.721 922.12 593.927 923.954C598.471 921.837 599.834 913.327 600.955 908.969C609.178 912.472 635.201 921.866 643.736 917.254C646.996 911.54 619.121 894.508 613.748 891.89C619.884 888.882 640.436 880.684 624.533 875.713Z" fill="#00009F"/>
<path d="M847 175.991C838.934 179.6 818.361 202.92 813.639 210.32C810.662 214.988 806.242 222.768 803.376 227.858C802.963 221.195 804.609 210.142 802.832 204.798C801.127 203.465 802.123 203.952 799.579 203.639C796.247 205.499 795.867 210.32 795.106 213.832C789.355 240.203 775.117 265.986 768.231 291.636C767.917 293.031 767.976 292.313 768.1 293.792C774.199 289.728 795.414 270.692 800.943 268.347C803.507 269.716 801.579 271.026 803.979 272.14C809.009 267.979 815.948 256.257 819.443 250.456C814.085 250.862 808.773 251.151 803.514 252.154C808.78 245.83 813.915 237.182 818.65 231.06C837.137 207.153 840.881 205.383 847 175.991Z" fill="#FCD330"/>
<path d="M458.049 43.9976C446.513 53.9122 471.103 102.028 475.603 113.696C464.941 112.166 466.163 115.242 466.15 123.6C474.079 133.253 480.32 134.343 488.663 142.346C493.262 146.758 501.375 160.085 507.971 163.217C508.208 160.608 506.927 155.415 506.355 152.581C504.522 140.516 500.988 129.514 501.894 117.12C502.578 107.683 501.329 96.4613 503.313 87.1621C501.126 84.2667 498.931 81.105 496.81 78.1511C492.533 87.442 491.639 93.773 489.261 103.589C486.995 98.0158 484.879 90.0409 482.915 84.0992C477.995 69.2057 469.145 55.8543 458.049 43.9976Z" fill="#FCD330"/>
<path d="M894 34.0625C892.27 34.9105 888.96 38.1052 887.315 39.6034C873.178 52.5918 860.784 67.069 850.392 82.7308C850.353 81.7706 850.256 80.8133 850.093 79.8638C849.541 76.7665 847.921 69.6105 845.203 67.7614C839.273 72.4899 829.193 109.186 825.064 118.422C822.378 124.439 813.203 144.554 812 150.444C819.277 145.349 845.21 122.622 852.038 123.076C853.41 123.167 854.788 123.384 856.115 122.915C861.87 120.881 865.407 109.986 867.599 105.001C867.423 105.036 867.254 105.072 867.085 105.107L866.22 105.264C861.063 106.244 857.435 106.127 852.155 106.202C854.086 103.3 856.193 101.027 858.443 98.3652C873.581 80.4535 891.744 57.2325 894 34.0625Z" fill="#FCD330"/>
<path d="M705.016 7.40224C688.353 6.39531 682.843 13.732 668.477 16.2787C666.22 16.6799 652.123 11.0007 648.383 9.83646C641.495 7.73589 634.24 6.83001 626.985 7.16366C624.328 7.28385 623.639 7.31015 622.039 8.88274C621.409 12.6976 628.671 18.2035 631.531 20.6855C638.517 26.7594 645.884 30.3997 654.865 33.3553C643.896 36.9376 637.402 40.5144 629.996 48.8575C629.746 49.9386 629.72 49.361 630.278 50.5736C637.461 52.5307 661.123 48.5639 668.785 45.3751C683.879 49.7885 693.693 50.6944 709.181 50.1467C702.936 40.5754 693.929 36.5674 682.863 33.3553C690.498 30.8792 713.78 16.7493 715 10.2407L714.036 9.09202C710.651 7.78612 708.643 7.77416 705.016 7.40224Z" fill="#FCD330"/>
<path d="M461.649 181.668L460.699 182.105C459.538 184.998 460.194 190.055 460.109 193.259C459.479 216.721 470.513 232.234 477.082 252.515L477.384 253.474L466.192 247.833C465.57 252.268 465.563 255.134 465.557 259.631C472.008 269.007 480.216 268.143 485.624 273.865C492.574 281.221 501.116 291.737 508 299.469L507.357 287.794C506.715 279.033 504.886 270.501 503.791 261.777C502.998 255.5 506.368 214.476 498.323 213.322C497.202 214.935 496.704 220.36 496.094 222.803C494.56 228.944 492.508 234.398 490.141 240.296C488.561 234.484 486.654 226.097 484.674 220.655C480.655 209.599 469.634 190.574 461.649 181.668Z" fill="#FCD330"/>
<path d="M856.816 0.093811C836.537 -0.97209 827.861 7.26655 810.733 13.5654L809.804 13.9025C805.828 13.0239 800.238 10.9957 796.355 9.5441C783.308 4.67057 775.726 4.19938 762 5.97002C768.969 15.6486 779.682 23.9815 791.225 29.1301C787.065 31.1226 779.088 34.4309 775.983 36.8736C772.548 40.234 769.713 43.2678 766.503 46.8085C781.106 47.0977 795.656 45.135 809.507 41.0066C811.373 40.8907 812.091 42.0356 813.192 42.0298C818.368 42.0052 841.614 45.2966 840.968 37.8277C837.599 33.1812 833.162 31.0284 828.019 27.9343C834.269 24.7172 860.423 7.60839 858.939 1.3201L856.816 0.093811Z" fill="#FCD330"/>
<path d="M461.91 317.919L461.291 318.722C459.713 327.777 464.908 354.502 468.461 363.866C470.703 369.776 476.225 380.127 479.347 386.039C474.81 386.465 467.679 386.031 465.156 389.407C464.817 397.542 483.63 405.01 490.931 407.129C493.76 411.022 509.033 428.966 513.166 430.043L514 429.131C512.97 421.371 511.588 413.654 509.861 405.997C508.348 399.491 506.269 392.269 505.376 385.758C504.203 377.14 505.865 363.258 502.227 355.593C500.05 354.574 501.191 354.808 498.675 354.96C494.581 358.786 496.374 367.658 493.147 369.556C489.386 366.953 482.939 347.456 479.543 341.73C474.373 333.011 470.039 325.017 461.91 317.919Z" fill="#FCD330"/>
<path d="M495.512 2.85132C492.126 2.77355 488.406 3.06413 485 3.2486C491.104 15.931 505.703 25.1307 519.182 30.3774C509.881 35.5324 508.002 36.5272 501.865 44.6996C514.086 47.3907 521.101 45.6852 533.152 45.5339C534.54 45.5164 545.124 47.4384 547.174 47.7928C556.134 49.3464 562.126 49.7341 571.204 49.6677C569.056 46.1681 568.316 45.4797 565.441 42.6685C559.127 36.819 553.403 34.967 545.176 31.9979C549.1 30.4672 557.162 27.3311 560.797 24.6092C564.772 21.628 577.092 13.5461 577.97 8.89018C578.14 7.96117 577.577 7.7785 576.758 6.90676C562.696 1.90241 545.491 12.0202 532.562 13.9838C515.389 7.76825 518.52 3.94551 495.512 2.85132Z" fill="#FCD330"/>
<path d="M815.576 847.312L815.003 847.449C814.684 848.623 839.513 909.979 841.297 922.516C843.569 924.72 846.168 928.359 849.56 927.001C851.527 923.731 849.684 915.077 849.117 910.95C859.627 922.826 875.235 949.138 887.171 959.436C889.144 959.287 889.151 958.668 891 957.03C886.904 931.658 866.738 908.496 851.813 887.425C857.283 888.473 862.974 889.741 868.444 890.879C865.045 878.557 855.128 872.44 844.794 863.929C843.602 866.163 842.495 868.819 841.453 871.142C836.543 864.811 822.485 852.053 815.576 847.312Z" fill="#FCD330"/>
<path d="M511 833.119C504.622 835.433 487.222 854.744 480.149 859.943C475.683 863.227 460.51 877.207 465.657 882.603C469.665 883.84 472.357 882.228 476.253 880.729C471.021 891.413 450.458 937.548 457.426 946.519L458.428 946.662L461.185 944.639C472.376 939.541 477.026 920.73 481.688 910.712C484.255 905.191 486.357 900.807 489.245 895.334C490.012 899.516 492.985 916.013 496.816 917.268C502.389 912.776 498.937 872.68 501.308 862.049C503.711 851.234 508.767 842.132 511 833.119Z" fill="#FCD330"/>
<path d="M768.361 702.545L768 703.87C774.255 725.322 784.316 746.32 791.687 767.524C795.028 777.148 797.043 783.48 805.069 790.978C805.956 782.043 805.831 779.687 804.361 770.734C810.806 780.393 837.322 813.967 846.779 820.345L847.757 819.874L848 817.989C842.881 796.249 817.507 763.183 803.048 744.076C807.084 744.971 815.387 747.109 819.253 746.691L819.896 745.925C817.212 740.371 805.818 729.156 800.941 724.368C797.056 726.694 796.078 727.831 793.256 731.006C787.762 720.456 778.121 710.143 768.361 702.545Z" fill="#FCD330"/>
<path d="M524.312 258.31L523.261 259.418C522.388 263.033 523.938 269.285 524.509 272.967C527.701 293.599 533.448 302.34 543.543 320.035C529.1 313.147 528.115 324.945 535.773 328.642C554.984 337.916 566.222 352.654 582.589 364.756C583.377 363.281 582.858 362.826 582.464 360.823C578.675 348.015 575.489 335.069 572.915 322.019C571.693 315.792 570.071 293.106 563.634 290.762C561.795 292.935 559.464 306.772 558.367 310.805C547.221 284.194 544.141 280.893 524.312 258.31Z" fill="#00009F"/>
<path d="M523.644 126.316C522.373 128.515 523.366 133.349 523.425 135.898C523.955 157.935 529.616 171.546 540.846 190.892C540.27 193.113 535.867 191.849 531.742 194.951C528.782 201.167 537.231 204.188 541.674 207.521C544.071 209.32 545.488 208.477 548.249 207.921C550.196 209.272 567.895 233.078 571 237.021L570.616 225.129C570.205 217.87 568.934 210.719 568.656 203.384C568.186 191.109 569.033 177.772 567.756 165.572C567.477 162.959 562.604 156.917 560.73 154.547C557.797 164.365 557.572 170.468 557.188 180.403C547.454 160.867 542.031 142.208 523.644 126.316Z" fill="#FE0101"/>
<path d="M513 563.455C511.476 564.403 502.731 572.873 501.538 574.281C494.882 582.107 465.562 602.989 467.709 612.598C471.887 616.046 479.976 609.001 483.505 606.46C480.274 615.598 475.195 625.166 471.738 634.399C467.022 646.979 465.193 657.822 463 670.784C463.902 672.09 463.83 672 465.316 672.74C477.576 670.05 489.894 636.308 494 626.203C495.233 630.701 497.918 643.179 501.732 645.326L502.92 644.885C507.772 636.558 503.944 606.991 505.683 596.827C507.778 584.63 513 576.482 513 563.455Z" fill="#FCD330"/>
<path d="M592.935 212.893C589.701 215.028 591.51 219.121 591.458 222.861C591.224 241.574 599.644 256.433 608.415 272.746C604.966 271.406 597.952 267.599 595.03 269.212C588.705 280.332 619.347 290.674 624.325 298.839C626.387 302.221 640.39 323.869 644.782 322.072C645.362 319.953 644.672 318.601 644.028 316.472C641.555 309.865 637.098 299.029 635.874 292.625C638.633 286.536 635.302 271.444 634.632 264.219C634.157 259.081 633.623 240.4 629.231 237.826L627.786 238.149C625.372 241.737 624.155 259.16 623.108 265.084C619.75 257.627 616.952 249.831 613.334 242.442C607.875 231.294 600.958 222.453 592.935 212.893Z" fill="#FCD330"/>
<path d="M807 117.8C796.15 120.921 772.789 149.641 765.824 159.229C765.471 152.769 767.91 143.351 762.94 138.786C753.352 136.913 751.737 175.934 749.434 180.888C745.268 189.852 741.711 196.925 738.571 206.315L734 218.569C745.432 210.808 757.08 199.82 769.27 193.244C770.232 192.728 774.784 192.397 776.151 192.291C778.224 188.797 782.717 181.15 782.2 177.344C779.466 175.023 779.859 176.783 776.713 175.182C778.897 170.597 784.195 165.395 787.314 160.471C796.451 146.068 801.696 133.454 807 117.8Z" fill="#00009F"/>
<path d="M573.871 757.897C571.36 758.553 541.287 789.608 535.813 793.667C533.877 795.109 529.704 801.237 531.679 804.098C534.949 804.99 538.494 803.235 541.431 801.958C537.121 810.568 518.049 855.604 524.217 861.407C526.892 861.549 525.564 861.732 528.226 860.397C544.184 847.225 544.616 834.301 554.734 817.488C556.186 821.909 558.03 835.524 563.537 836.121C568.554 832.634 565.329 799.707 567.226 790.973C569.169 782.043 574.931 765.834 573.871 757.897Z" fill="#00009F"/>
<path d="M582 627.323C578.658 628.811 564.916 644.016 560.95 647.819C554.988 653.544 535.126 666.969 534.686 674.146C537.109 678.092 542.119 675.848 545.98 674.747C545.881 674.926 545.776 675.104 545.678 675.283C540.359 684.822 522.671 723.718 526.551 732.478C526.952 733.383 527.418 733.365 528.304 733.77L530.622 732.883C542.007 725.361 550.425 703.211 558.928 690.142C560.53 694.909 561.902 705.145 564.896 708.394C569.413 708.46 569.735 701.152 569.696 698.045C569.623 692.219 570.411 685.911 570.254 680.157C569.748 661.75 579.15 645.099 582 627.323Z" fill="#00009F"/>
<path d="M736.718 777.768L736 778.904C742.713 800.712 750.602 822.578 758.673 844.005C760.025 847.602 763.303 858.348 766.809 859.619C768.612 856.965 769.147 843.389 769.604 839.282C775.292 846.114 781.829 852.623 787.497 859.508C793.152 866.375 797.952 873.388 804.051 879.956C804.462 879.558 804.71 878.931 804.998 878.392C805.246 860.633 784.408 830.716 771.916 816.502L787.667 817.645C783.605 807.485 771.785 799.897 761.957 793.769L762.375 802.774C756.466 796.61 743.138 782.039 736.718 777.768Z" fill="#FE0101"/>
<path d="M639 678.417C635.496 679.802 610.403 709.448 604.629 714.031C602.575 715.656 600.515 718.696 601.479 721.36C603.29 722.041 603.94 721.941 605.869 721.97L606.538 721.976C606.952 723.291 600.469 737.345 599.425 740.015C597.562 744.715 595.98 749.497 594.694 754.35C593.585 758.652 588.959 772.324 595.186 773.509C598.119 772.811 600.193 770.892 602.601 769.103C609.55 761.122 617.379 742.209 621.65 732.48C623.671 739.211 625.345 745.513 628.16 752.038C633.114 748.048 635.293 745.853 638.928 740.93C631.408 713.291 638.468 704.049 638.987 679.263L639 678.417Z" fill="#FCD330"/>
<path d="M766 252.632C757.255 256.394 739.508 288.12 734.756 296.627C735.099 290.918 736.878 264.187 735.013 260.431C733.451 259.249 733.57 259.116 731.586 258.991C729.464 261.094 724.265 295.97 723.737 301.339C722.327 315.836 716.225 326.819 711.888 340.862C708.982 349.968 706.847 359.69 704 369.013C710.412 362.144 716.884 355.32 723.415 348.542C729.148 342.692 740.266 333.259 741.379 324.867C741.603 323.152 738.816 321.814 737.34 320.798C736.773 319.141 742.157 310.751 743.435 308.509C753.578 290.753 761.809 272.287 766 252.632Z" fill="#00009F"/>
<path d="M601.614 340.628L601 341.585C604.682 365.716 604.695 365.766 620.342 386.808C616.354 386.841 610.407 386.321 607.991 389.507C609.232 392.9 623.952 404.105 627.379 407.661C640.194 420.971 651.481 435.636 665 448.494C663.956 444.442 661.671 438.947 660.137 434.891C655.476 421.662 652.003 414.16 644.463 402.367C644.613 400.439 646.18 399.555 647.401 398.128C650.88 394.081 647.407 364.688 646.604 358.172C642.818 367.61 641.578 376.123 638.653 385.643C631.022 374.868 611.014 348.648 601.614 340.628Z" fill="#FCD330"/>
<path d="M724 194.442C714.628 196.579 697.393 219.819 691.924 226.944C691.571 221.932 690.801 216.342 690.233 211.301C683.955 211.216 678.773 211.134 672.475 211.54C674.857 221.237 676.554 227.502 680.15 236.678C672.749 246.622 670.563 255.062 666.582 266.458C666.308 267.059 666.04 267.662 665.786 268.267C664.879 270.448 664.703 270.521 665.544 272.183L667.241 272.503C673.8 270.778 682.258 263.757 687.27 259.561C689.065 262.997 692.42 270.459 695.65 272.357L696.505 271.932C698.822 266.362 701.765 255.938 702.007 249.976C697.928 242.308 703.991 241.173 707.6 234.474C714.126 222.38 722.231 207.808 724 194.442Z" fill="#FE0101"/>
<path d="M664 546.424C660.084 548.026 640.936 573.277 636.148 578.061C627.528 586.68 616.587 594.628 609.62 604.107C612.73 603.763 616.449 603.015 619.578 602.463C614.606 609.663 594.166 643.431 600.056 650.032L601.782 649.996C605.101 648.464 607.331 645.698 609.863 643.111C618.679 634.777 628.906 618.002 634.901 607.918C638.207 619.112 637.328 626.793 642.622 638.789C646.768 616.388 644.419 591.517 655.531 570.315C658.385 564.884 662.767 552.419 664 546.424Z" fill="#FCD330"/>
<path d="M667.659 711.061L667.002 711.64C666.803 714.95 680.206 783.694 681.361 785.701C681.971 786.77 681.613 786.424 682.887 786.842C685.47 784.835 689.931 772.463 692.36 768.288L692.791 767.565C699.277 775.026 713.078 796.985 721.09 801.895C726.918 794.058 703.028 750.917 698.241 741.891C701.043 742.303 705.683 742.333 708.663 742.434C704.568 732.918 694.942 727.494 686.087 721.682C685.894 725.177 686.007 729.472 686.007 733.02C679.25 726.688 675.068 717.907 667.659 711.061Z" fill="#FCD330"/>
<path d="M724.411 553.521L724.079 553.821C722.291 558.946 751.52 643.037 756.594 652.473C756.627 644.098 756.001 635.364 755.472 627.001C764.617 640.218 776.11 655.994 786.299 668.38C789.045 671.983 791.426 675.469 795 678.417C787.675 644.847 769.046 627.797 751.944 599.364L763.802 603.062C753.281 586.312 738.135 568.3 724.411 553.521Z" fill="#FCD330"/>
<path d="M708.01 627.323C707.684 628.469 715.341 660.584 716.325 665.626C718.354 676.003 723.257 714.449 729.011 721.383L730.016 721.4C732.65 718.053 733.741 704.639 734.706 699.406C742.342 711.513 749.307 722.033 757.15 733.997C758.381 736.014 761.414 741.874 763.629 742.285C764.527 739.469 763.589 734.946 762.964 732.046C758.341 710.636 746.866 691.631 734.825 673.001C737.386 673.353 741.604 674.386 743.42 672.608C742.223 666.688 713.871 632.908 708.01 627.323Z" fill="#00009F"/>
<path d="M797 317.919C787.519 323.831 763.109 363.039 755.684 373.576C755.821 366.637 756.741 350.751 756.069 344.712L755.273 344.575C750.229 351.049 732.807 411.261 728.931 423.4C726.7 430.036 724.168 437.43 723 444.236C730.308 437.703 753.726 407.838 759.533 397.925C759.958 397.203 759.69 397.158 758.881 396.134C757.028 395.996 756.343 395.997 754.529 395.56C754.574 393.056 760.825 385.067 762.783 382.458C778.032 362.079 789.907 341.888 797 317.919Z" fill="#FCD330"/>
<path d="M617 547.844C599.521 551.674 586.683 555.427 568.232 556.543C557.491 557.194 547.578 556.895 537.113 557.51C537.685 558.292 540.853 562.576 541.609 563.071C542.648 563.757 544.054 563.095 545.658 565.04C544.153 570.195 521.876 609.88 533.195 611.712C535.851 610.828 537.304 608.955 539.282 607.01C551.384 593.579 556.886 585.166 566.496 570.261C568.002 577.642 567.081 587.391 568.83 593.03C572.919 591.252 580.899 578.548 584.698 574.849C591.982 567.755 599.133 561.096 607.771 555.26C610.906 553.142 614.877 550.791 617 547.844Z" fill="#FCD330"/>
<path d="M531.407 386.045C527.583 389.489 532.582 407.001 534.266 411.429C536.935 418.464 541.549 425.117 545.817 431.439C540.687 433.666 540.022 434.768 536.308 438.65C549.51 440.21 562.706 439.743 575.209 441.249C588.02 442.792 604.896 447.181 618 449.913C615.292 447.683 612.518 445.878 609.601 443.896C599.166 436.975 590.454 429.46 582.59 420.079C580.358 417.417 572.788 404.721 569.225 405.002C567.176 408.488 567.665 422.731 567.372 427.769C560.232 421.316 557.459 413.026 551.723 406.048C546.424 399.6 537.711 391.841 531.407 386.045Z" fill="#FCD330"/>
<path d="M501.49 752.866C502.042 741.185 502.291 731.665 506.024 720.319C507.378 716.208 513.193 699.016 510.111 696.868C504.335 700.111 482.17 726.441 473.903 732.484C466.596 737.822 455.727 757.545 479.719 745.637L475.98 753.159C479.706 755.187 488.196 759.448 491.081 761.865C493.059 765.97 492.776 777.597 498.296 782.025L499.394 781.822C501.917 777.627 501.733 758.526 501.49 752.866Z" fill="#FCD330"/>
<path d="M476.834 753.64C471.614 765.876 458.481 797.656 461.425 809.344L462.514 810.411C471.291 809.974 480.088 785.729 482.807 779.955C485.625 773.971 488.812 767.981 492 762.126C489.103 759.769 480.576 755.617 476.834 753.64Z" fill="#FFD941"/>
<path d="M666.87 306.565L666.05 307.6C665.597 311.945 664.692 318.228 665.105 322.478C668.05 352.696 680.394 381.443 684.808 411.45C685.694 417.489 686.277 424.239 687.819 430.043L688.133 429.795C689.15 427.727 688.468 422.032 688.691 419.17C690.796 391.974 681.68 362.758 675.409 336.145C673.199 326.763 669.251 316.619 666.87 306.565Z" fill="#FCD330"/>
<path d="M689.881 557.778C684.624 562.955 673.36 650.042 670.352 661.509C669.426 665.026 667.929 683.693 668.003 688.352C677.032 674.559 691.458 573.726 689.881 557.778Z" fill="#FCD330"/>
<path d="M716 413.012C713.844 415.107 710.501 423.796 709.248 426.839C702.456 443.273 695.15 459.872 695.249 477.638C695.282 483.407 694.432 486.368 695.698 492.36L696.37 493.711L697.181 493.911C702.133 488.859 714.945 424.288 716 413.012Z" fill="#00009F"/>
<path d="M697.109 502.426L695.489 503.517C693.473 507.203 694.063 513.666 694.136 517.676C694.558 541.24 705.118 559.562 713.107 581.069L713.609 581.906C716.636 576.21 701.221 512.009 697.109 502.426Z" fill="#00009F"/>
<path d="M686.986 644.771C693.256 648.763 693.537 654.139 697.835 658.547L698.639 658.1C700.866 648.267 692.198 617.976 689.024 607.453C688.194 619.149 687.11 633.154 685 644.699L686.986 644.771Z" fill="#00009F"/>
<path d="M669.714 489.653C667.866 490.259 659.138 496.865 657 498.404C661.503 501.768 667.059 506.762 672.776 506.683C676.213 505.235 685.244 501.544 686 498.144C684.217 495.804 673.215 491.265 669.714 489.653Z" fill="#FCD330"/>
<path d="M682.748 325.016L682.393 325.332C680.015 330.421 689.087 381.372 691.949 388.883C696.317 377.506 685.856 338.721 682.748 325.016Z" fill="#FDDB96"/>
<path d="M671.457 376.11L670 376.185C674.901 396.383 676.695 423.641 678.858 444.412C679.765 453.134 679.302 472.48 681.877 479.718C682.884 449.94 677.539 405.252 671.457 376.11Z" fill="#FCD330"/>
<path d="M682.845 515.2C679.869 524.293 678.321 551.619 676.932 562.988C675.252 576.733 671.611 597.178 671 610.292L672.236 610.015C675.916 588.362 678.899 566.615 681.177 544.814C681.968 537.013 683.489 522.825 682.845 515.2Z" fill="#FCD330"/>
<path d="M672 610.292L670.78 610.568C669.187 614.838 667.489 627.549 666.689 632.758C664.164 648.889 661.941 665.061 660 681.256C665.187 670.563 670.334 624.434 672 610.292Z" fill="#00009F"/>
<path d="M694.05 420.107C690.864 426.194 691.792 457.375 694.114 464.105C696.243 450.942 697.012 433.324 694.05 420.107Z" fill="#00009F"/>
<path d="M683.114 652.87C681.529 659.732 678.753 670.372 678 676.998C679.921 674.731 679.052 673.685 680.681 671.944L682.902 672.319C684.21 666.805 685.182 662.35 686 656.788C685.233 654.122 685.642 655.047 683.114 652.87Z" fill="#00009F"/>
<path d="M659 326.435C659.662 333.807 662.103 342.791 663.837 350.124C665.912 358.752 667.801 367.415 669.503 376.11L671 376.035C668.077 362.211 663.683 339.394 659 326.435Z" fill="#FDDB96"/>
<path d="M693.751 542.166C692.028 545.605 693.746 557.432 694.211 562.036C697.486 557.574 695.613 547.134 693.751 542.166Z" fill="#00009F"/>
<path d="M683 671.676L680.521 670.804C678.989 672.449 679.807 673.437 678 675.579C676.983 678.464 678.597 683.906 679.174 686.934C680.589 681.935 681.77 676.72 683 671.676Z" fill="#00009F"/>
<path d="M687 644.428L684.963 644.354L683 653.158C685.318 655.364 684.943 654.426 685.647 657.128C686.082 655.057 686.564 647.516 687 644.428Z" fill="#00009F"/>
<path d="M656.569 295.211L656.143 295.546C655.163 298.197 659.504 309.044 660.752 312.218L661 312.242C660.045 306.853 658.524 300.35 656.569 295.211Z" fill="#E0BF2B"/>
<path d="M436.022 454.171L437.689 454.832C439.617 456.8 439.97 458.388 439.584 461.124C437.473 475.87 435.532 487.13 423.285 497.366C434.611 512.055 436.95 518.001 439.878 536.632C440.238 538.932 439.833 540.525 438.225 542.165C428.284 542.419 407.41 508.834 398.39 501.902C399.155 507.961 402.148 524.974 397.299 528.939C389.404 523.016 371.66 504.592 363 496.734C368.594 491.602 392.136 466.558 396.56 464.934C401.756 467.749 399.247 487.744 399.305 494.18C404.057 490.623 409.403 482.64 413.481 478.013C420.827 469.694 427.618 461.693 436.022 454.171Z" fill="#FCD330"/>
<path d="M247.851 141.928C254.527 143.576 255.461 150.246 257.117 155.545C272.736 148.338 286.407 145.765 304 148.884C295.475 159.951 282.738 168.191 269.159 173.662C273.398 176.292 278.154 179.571 283.122 180.643C281.764 185.658 281.353 186.963 278.923 191.603C268.656 191.645 258.992 189.646 249.136 187.369C247.731 187.298 239.048 188.12 236.955 188.303C228.417 189.049 222.31 189.19 213.752 188.619C214.209 184.038 214.493 181.704 215.613 177.247C219.726 175.498 225.661 173.492 230.026 171.854C213.884 161.512 207.625 157.274 196 142.812C216.229 142.598 224.634 144.591 241.849 153.726C243.393 148.897 244.499 146.055 247.851 141.928Z" fill="#FE0101"/>
<path d="M267.771 804.896C271.429 804.559 276.893 804.511 279.543 807.142C282.193 813.354 270.009 820.49 265.238 823.854C271.402 827.957 295.653 843.443 296 850.038C287.415 855.367 259.146 845.005 250.201 841.623C249.102 846.014 247.8 855.06 243.356 857.247L241.851 856.622C238.639 852.838 237.624 848.032 236.165 843.371C229.039 847.57 205.345 858.166 197.119 855.769C189.934 849.023 219.466 828.732 225.388 824.821C220.493 822.016 209.997 816.874 210.076 810.957C215.755 803.364 237.402 810.164 246.798 808.975C254.52 807.995 260.213 806.584 267.771 804.896Z" fill="#FE0101"/>
<path d="M306.95 72.3833C307.927 72.4169 308.958 72.5957 309.949 72.7265C313.873 75.493 314.99 81.6823 316.377 86.2433C325.19 81.2833 333.903 77.5629 344.189 75.7258C348.246 75.0016 358.657 74.1526 362 76.2717C361.511 83.0346 334.557 100.574 328.037 104.846C335.066 110.3 337.378 112.549 342.287 119.523C331.776 120.838 319.449 119.856 308.832 119.177C305.377 118.977 295.752 120.096 291.735 120.336C284.594 120.764 279.163 120.666 272.068 120.481C276.052 114.016 282.585 109.599 288.815 104.991C285.393 102.081 279.573 98.4204 275.735 95.6845C267.378 89.7334 260.52 83.9112 254 76.2843C273.621 76.3677 282.566 76.5735 300.436 85.4346C302.186 80.5562 303.62 76.5873 306.95 72.3833Z" fill="#00009F"/>
<path d="M167.773 70.9639C173.714 72.3674 175.758 79.6777 177.913 84.4673C186.232 80.4288 195.226 77.5329 204.665 76.4801C208.746 76.0249 219.889 75.3724 223 77.5592C222.712 83.6695 198.573 98.0874 192.442 101.539C200.322 107.01 206.218 110.392 212.126 117.587C196.733 118.09 192.783 117.918 177.939 114.642C172.07 113.12 165.009 114.337 158.792 114.409C150.82 114.5 145.606 114.299 137.929 112.578C141.106 107.49 147.041 103.38 151.999 99.5529C139.056 92.2975 125.175 84.2362 117 72.4631C135.42 70.3949 147.368 76.1609 163.666 82.6255C164.55 78.4562 165.192 74.577 167.773 70.9639Z" fill="#00009F"/>
<path d="M343.783 469.936C345.459 469.688 345.713 469.782 347.435 469.93L348.022 470.825C337.731 479.644 329.475 488.934 319.798 497.28C327.741 505.368 339.029 515.525 347.937 522.755C349.085 523.684 348.596 522.848 349 524.344C346.215 526.25 340.255 524.134 337.014 523.964C322.576 523.205 317.346 518.687 307.349 510.441C306.292 511.703 305.203 512.936 304.075 514.146C294.795 524.005 282.653 522.392 268.058 523.474L260.213 523.625C260.376 523.52 260.546 523.409 260.709 523.304L261.53 522.749C268.71 517.933 281.075 504.41 289.115 497.449C278.675 488.648 269.649 477.234 259 470.01C268.267 470.401 287.433 472.497 296.739 473.824C301.747 477.339 303.749 480.166 307.114 484.849C321.898 471.836 323.926 472.905 343.783 469.936Z" fill="#FCD330"/>
<path d="M195.66 877.117C199.406 877.123 203.158 877.208 206.39 878.963C210.439 884.235 195.923 891.65 191.604 894.481C196.979 897.663 222.719 913.605 219.765 918.98C210.756 922.588 186.321 916.356 176.738 913.429C175.921 916.63 173.157 926.444 170.427 928.211C166.305 926.584 166.206 916.806 162.671 914.735L160.574 915.415C153.926 918.373 126.002 929.517 120.001 923.268C119.829 916.059 144.455 900.104 150.872 896.017C146.441 893.242 142.774 890.97 138.658 887.843C152.389 875.089 156.287 883.761 172.359 882.213C179.231 881.551 187.429 878.01 195.66 877.117Z" fill="#00009F"/>
<path d="M279.467 875.713C290.434 875.477 296.863 878.143 307.107 878.915C312.434 879.316 324.51 876.267 330.137 878.467C333.136 879.635 339.07 882.513 340.367 885.243C338.45 887.49 330.789 891.583 327.77 893.37C339.611 901.001 351.882 910.343 360 921.436C345.975 922.043 332.171 918.434 319.75 912.637C318.498 911.994 317.526 911.605 316.209 911.074C313.542 914.306 314.279 922.12 310.073 923.954C305.529 921.837 304.166 913.327 303.045 908.969C294.822 912.472 268.799 921.866 260.264 917.254C257.004 911.54 284.879 894.508 290.252 891.89C284.116 888.882 263.564 880.684 279.467 875.713Z" fill="#00009F"/>
<path d="M445.951 43.9976C457.487 53.9122 432.897 102.028 428.397 113.696C439.059 112.166 437.837 115.242 437.85 123.6C429.921 133.253 423.68 134.343 415.337 142.346C410.738 146.758 402.625 160.085 396.029 163.217C395.792 160.608 397.073 155.415 397.645 152.581C399.478 140.516 403.012 129.514 402.106 117.12C401.422 107.683 402.671 96.4613 400.687 87.1621C402.874 84.2667 405.069 81.105 407.19 78.1511C411.467 87.442 412.361 93.773 414.739 103.589C417.005 98.0158 419.121 90.0409 421.085 84.0992C426.005 69.2057 434.855 55.8543 445.951 43.9976Z" fill="#FCD330"/>
<path d="M198.984 7.40224C215.647 6.39531 221.157 13.732 235.523 16.2787C237.78 16.6799 251.877 11.0007 255.617 9.83646C262.505 7.73589 269.76 6.83001 277.015 7.16366C279.672 7.28385 280.361 7.31015 281.961 8.88274C282.591 12.6976 275.329 18.2035 272.469 20.6855C265.483 26.7594 258.116 30.3997 249.135 33.3553C260.104 36.9376 266.598 40.5144 274.004 48.8575C274.254 49.9386 274.28 49.361 273.722 50.5736C266.539 52.5307 242.877 48.5639 235.215 45.3751C220.121 49.7885 210.307 50.6944 194.819 50.1467C201.064 40.5754 210.071 36.5674 221.137 33.3553C213.502 30.8792 190.22 16.7493 189 10.2407L189.964 9.09202C193.349 7.78612 195.357 7.77416 198.984 7.40224Z" fill="#FCD330"/>
<path d="M442.351 181.668L443.301 182.105C444.462 184.998 443.806 190.055 443.891 193.259C444.521 216.721 433.487 232.234 426.918 252.515L426.616 253.474L437.808 247.833C438.43 252.268 438.437 255.134 438.443 259.631C431.992 269.007 423.784 268.143 418.376 273.865C411.426 281.221 402.884 291.737 396 299.469L396.643 287.794C397.285 279.033 399.114 270.501 400.209 261.777C401.002 255.5 397.632 214.476 405.677 213.322C406.798 214.935 407.296 220.36 407.906 222.803C409.44 228.944 411.492 234.398 413.859 240.296C415.439 234.484 417.346 226.097 419.326 220.655C423.345 209.599 434.366 190.574 442.351 181.668Z" fill="#FCD330"/>
<path d="M47.1836 0.093811C67.4628 -0.97209 76.1387 7.26655 93.2666 13.5654L94.1962 13.9025C98.1716 13.0239 103.762 10.9957 107.645 9.5441C120.692 4.67057 128.274 4.19938 142 5.97002C135.031 15.6486 124.318 23.9815 112.775 29.1301C116.935 31.1226 124.912 34.4309 128.017 36.8736C131.452 40.234 134.287 43.2678 137.497 46.8085C122.894 47.0977 108.344 45.135 94.4928 41.0066C92.6271 40.8907 91.9085 42.0356 90.8075 42.0298C85.6323 42.0052 62.3863 45.2966 63.0324 37.8277C66.4013 33.1812 70.8382 31.0284 75.9805 27.9343C69.7306 24.7172 43.5773 7.60839 45.0607 1.3201L47.1836 0.093811Z" fill="#FCD330"/>
<path d="M6.18358 81.0938C26.4628 80.0279 35.1387 88.2665 52.2666 94.5654L53.1962 94.9025C57.1716 94.0239 62.7622 91.9957 66.6454 90.5441C79.6923 85.6706 87.274 85.1994 101 86.97C94.0315 96.6486 83.3184 104.981 71.7745 110.13C75.9345 112.123 83.9117 115.431 87.0169 117.874C90.4517 121.234 93.2866 124.268 96.4972 127.808C81.8943 128.098 67.3441 126.135 53.4928 122.007C51.6271 121.891 50.9085 123.036 49.8075 123.03C44.6323 123.005 21.3863 126.297 22.0324 118.828C25.4013 114.181 29.8382 112.028 34.9805 108.934C28.7306 105.717 2.5773 88.6084 4.06067 82.3201L6.18358 81.0938Z" fill="#FCD330"/>
<path d="M2.18358 153.094C22.4628 152.028 31.1387 160.267 48.2666 166.565L49.1962 166.903C53.1716 166.024 58.7622 163.996 62.6454 162.544C75.6923 157.671 83.274 157.199 97 158.97C90.0315 168.649 79.3184 176.981 67.7745 182.13C71.9345 184.123 79.9117 187.431 83.0169 189.874C86.4517 193.234 89.2866 196.268 92.4972 199.808C77.8943 200.098 63.3441 198.135 49.4928 194.007C47.6271 193.891 46.9085 195.036 45.8075 195.03C40.6323 195.005 17.3863 198.297 18.0324 190.828C21.4013 186.181 25.8382 184.028 30.9805 180.934C24.7306 177.717 -1.4227 160.608 0.0606653 154.32L2.18358 153.094Z" fill="#FCD330"/>
<path d="M4.18358 226.094C24.4628 225.028 33.1387 233.267 50.2666 239.565L51.1962 239.903C55.1716 239.024 60.7622 236.996 64.6454 235.544C77.6923 230.671 85.274 230.199 99 231.97C92.0315 241.649 81.3184 249.981 69.7745 255.13C73.9345 257.123 81.9117 260.431 85.0169 262.874C88.4517 266.234 91.2866 269.268 94.4972 272.808C79.8943 273.098 65.3441 271.135 51.4928 267.007C49.6271 266.891 48.9085 268.036 47.8075 268.03C42.6323 268.005 19.3863 271.297 20.0324 263.828C23.4013 259.181 27.8382 257.028 32.9805 253.934C26.7306 250.717 0.577304 233.608 2.06067 227.32L4.18358 226.094Z" fill="#FCD330"/>
<path d="M6.18358 312.094C26.4628 311.028 35.1387 319.267 52.2666 325.565L53.1962 325.903C57.1716 325.024 62.7622 322.996 66.6454 321.544C79.6923 316.671 87.274 316.199 101 317.97C94.0315 327.649 83.3184 335.981 71.7745 341.13C75.9345 343.123 83.9117 346.431 87.0169 348.874C90.4517 352.234 93.2866 355.268 96.4972 358.808C81.8943 359.098 67.3441 357.135 53.4928 353.007C51.6271 352.891 50.9085 354.036 49.8075 354.03C44.6323 354.005 21.3863 357.297 22.0324 349.828C25.4013 345.181 29.8382 343.028 34.9805 339.934C28.7306 336.717 2.5773 319.608 4.06067 313.32L6.18358 312.094Z" fill="#FCD330"/>
<path d="M6.18358 389.094C26.4628 388.028 35.1387 396.267 52.2666 402.565L53.1962 402.903C57.1716 402.024 62.7622 399.996 66.6454 398.544C79.6923 393.671 87.274 393.199 101 394.97C94.0315 404.649 83.3184 412.981 71.7745 418.13C75.9345 420.123 83.9117 423.431 87.0169 425.874C90.4517 429.234 93.2866 432.268 96.4972 435.808C81.8943 436.098 67.3441 434.135 53.4928 430.007C51.6271 429.891 50.9085 431.036 49.8075 431.03C44.6323 431.005 21.3863 434.297 22.0324 426.828C25.4013 422.181 29.8382 420.028 34.9805 416.934C28.7306 413.717 2.5773 396.608 4.06067 390.32L6.18358 389.094Z" fill="#FCD330"/>
<path d="M6.18358 455.094C26.4628 454.028 35.1387 462.267 52.2666 468.565L53.1962 468.903C57.1716 468.024 62.7622 465.996 66.6454 464.544C79.6923 459.671 87.274 459.199 101 460.97C94.0315 470.649 83.3184 478.981 71.7745 484.13C75.9345 486.123 83.9117 489.431 87.0169 491.874C90.4517 495.234 93.2866 498.268 96.4972 501.808C81.8943 502.098 67.3441 500.135 53.4928 496.007C51.6271 495.891 50.9085 497.036 49.8075 497.03C44.6323 497.005 21.3863 500.297 22.0324 492.828C25.4013 488.181 29.8382 486.028 34.9805 482.934C28.7306 479.717 2.5773 462.608 4.06067 456.32L6.18358 455.094Z" fill="#FCD330"/>
<path d="M6.18358 527.094C26.4628 526.028 35.1387 534.267 52.2666 540.565L53.1962 540.903C57.1716 540.024 62.7622 537.996 66.6454 536.544C79.6923 531.671 87.274 531.199 101 532.97C94.0315 542.649 83.3184 550.981 71.7745 556.13C75.9345 558.123 83.9117 561.431 87.0169 563.874C90.4517 567.234 93.2866 570.268 96.4972 573.808C81.8943 574.098 67.3441 572.135 53.4928 568.007C51.6271 567.891 50.9085 569.036 49.8075 569.03C44.6323 569.005 21.3863 572.297 22.0324 564.828C25.4013 560.181 29.8382 558.028 34.9805 554.934C28.7306 551.717 2.5773 534.608 4.06067 528.32L6.18358 527.094Z" fill="#FCD330"/>
<path d="M4.18358 597.094C24.4628 596.028 33.1387 604.267 50.2666 610.565L51.1962 610.903C55.1716 610.024 60.7622 607.996 64.6454 606.544C77.6923 601.671 85.274 601.199 99 602.97C92.0315 612.649 81.3184 620.981 69.7745 626.13C73.9345 628.123 81.9117 631.431 85.0169 633.874C88.4517 637.234 91.2866 640.268 94.4972 643.808C79.8943 644.098 65.3441 642.135 51.4928 638.007C49.6271 637.891 48.9085 639.036 47.8075 639.03C42.6323 639.005 19.3863 642.297 20.0324 634.828C23.4013 630.181 27.8382 628.028 32.9805 624.934C26.7306 621.717 0.577304 604.608 2.06067 598.32L4.18358 597.094Z" fill="#FCD330"/>
<path d="M4.18358 667.094C24.4628 666.028 33.1387 674.267 50.2666 680.565L51.1962 680.903C55.1716 680.024 60.7622 677.996 64.6454 676.544C77.6923 671.671 85.274 671.199 99 672.97C92.0315 682.649 81.3184 690.981 69.7745 696.13C73.9345 698.123 81.9117 701.431 85.0169 703.874C88.4517 707.234 91.2866 710.268 94.4972 713.808C79.8943 714.098 65.3441 712.135 51.4928 708.007C49.6271 707.891 48.9085 709.036 47.8075 709.03C42.6323 709.005 19.3863 712.297 20.0324 704.828C23.4013 700.181 27.8382 698.028 32.9805 694.934C26.7306 691.717 0.577304 674.608 2.06067 668.32L4.18358 667.094Z" fill="#FCD330"/>
<path d="M2.18358 735.094C22.4628 734.028 31.1387 742.267 48.2666 748.565L49.1962 748.903C53.1716 748.024 58.7622 745.996 62.6454 744.544C75.6923 739.671 83.274 739.199 97 740.97C90.0315 750.649 79.3184 758.981 67.7745 764.13C71.9345 766.123 79.9117 769.431 83.0169 771.874C86.4517 775.234 89.2866 778.268 92.4972 781.808C77.8943 782.098 63.3441 780.135 49.4928 776.007C47.6271 775.891 46.9085 777.036 45.8075 777.03C40.6323 777.005 17.3863 780.297 18.0324 772.828C21.4013 768.181 25.8382 766.028 30.9805 762.934C24.7306 759.717 -1.4227 742.608 0.0606653 736.32L2.18358 735.094Z" fill="#FCD330"/>
<path d="M2.18358 805.094C22.4628 804.028 31.1387 812.267 48.2666 818.565L49.1962 818.903C53.1716 818.024 58.7622 815.996 62.6454 814.544C75.6923 809.671 83.274 809.199 97 810.97C90.0315 820.649 79.3184 828.981 67.7745 834.13C71.9345 836.123 79.9117 839.431 83.0169 841.874C86.4517 845.234 89.2866 848.268 92.4972 851.808C77.8943 852.098 63.3441 850.135 49.4928 846.007C47.6271 845.891 46.9085 847.036 45.8075 847.03C40.6323 847.005 17.3863 850.297 18.0324 842.828C21.4013 838.181 25.8382 836.028 30.9805 832.934C24.7306 829.717 -1.4227 812.608 0.0606653 806.32L2.18358 805.094Z" fill="#FCD330"/>
<path d="M2.18358 878.094C22.4628 877.028 31.1387 885.267 48.2666 891.565L49.1962 891.903C53.1716 891.024 58.7622 888.996 62.6454 887.544C75.6923 882.671 83.274 882.199 97 883.97C90.0315 893.649 79.3184 901.981 67.7745 907.13C71.9345 909.123 79.9117 912.431 83.0169 914.874C86.4517 918.234 89.2866 921.268 92.4972 924.808C77.8943 925.098 63.3441 923.135 49.4928 919.007C47.6271 918.891 46.9085 920.036 45.8075 920.03C40.6323 920.005 17.3863 923.297 18.0324 915.828C21.4013 911.181 25.8382 909.028 30.9805 905.934C24.7306 902.717 -1.4227 885.608 0.0606653 879.32L2.18358 878.094Z" fill="#FCD330"/>
<path d="M442.09 317.919L442.709 318.722C444.287 327.777 439.092 354.502 435.539 363.866C433.297 369.776 427.775 380.127 424.653 386.039C429.19 386.465 436.321 386.031 438.844 389.407C439.183 397.542 420.37 405.01 413.069 407.129C410.24 411.022 394.967 428.966 390.834 430.043L390 429.131C391.03 421.371 392.412 413.654 394.139 405.997C395.652 399.491 397.731 392.269 398.624 385.758C399.797 377.14 398.135 363.258 401.773 355.593C403.95 354.574 402.809 354.808 405.325 354.96C409.419 358.786 407.626 367.658 410.853 369.556C414.614 366.953 421.061 347.456 424.457 341.73C429.627 333.011 433.961 325.017 442.09 317.919Z" fill="#FCD330"/>
<path d="M408.488 2.85132C411.874 2.77355 415.594 3.06413 419 3.2486C412.896 15.931 398.297 25.1307 384.818 30.3774C394.119 35.5324 395.998 36.5272 402.135 44.6996C389.914 47.3907 382.899 45.6852 370.848 45.5339C369.46 45.5164 358.876 47.4384 356.826 47.7928C347.866 49.3464 341.874 49.7341 332.796 49.6677C334.944 46.1681 335.684 45.4797 338.559 42.6685C344.873 36.819 350.597 34.967 358.824 31.9979C354.9 30.4672 346.838 27.3311 343.203 24.6092C339.228 21.628 326.908 13.5461 326.03 8.89018C325.86 7.96117 326.423 7.7785 327.242 6.90676C341.304 1.90241 358.509 12.0202 371.438 13.9838C388.611 7.76825 385.48 3.94551 408.488 2.85132Z" fill="#FCD330"/>
<path d="M393 833.119C399.378 835.433 416.778 854.744 423.851 859.943C428.317 863.227 443.49 877.207 438.343 882.603C434.335 883.84 431.643 882.228 427.747 880.729C432.979 891.413 453.542 937.548 446.574 946.519L445.572 946.662L442.815 944.639C431.624 939.541 426.974 920.73 422.312 910.712C419.745 905.191 417.643 900.807 414.755 895.334C413.988 899.516 411.015 916.013 407.184 917.268C401.611 912.776 405.063 872.68 402.692 862.049C400.289 851.234 395.233 842.132 393 833.119Z" fill="#FCD330"/>
<path d="M379.688 258.31L380.739 259.418C381.612 263.033 380.062 269.285 379.491 272.967C376.299 293.599 370.552 302.34 360.457 320.035C374.9 313.147 375.885 324.945 368.227 328.642C349.016 337.916 337.778 352.654 321.411 364.756C320.623 363.281 321.142 362.826 321.536 360.823C325.325 348.015 328.511 335.069 331.085 322.019C332.307 315.792 333.929 293.106 340.366 290.762C342.205 292.935 344.536 306.772 345.633 310.805C356.779 284.194 359.859 280.893 379.688 258.31Z" fill="#00009F"/>
<path d="M380.356 126.316C381.627 128.515 380.634 133.349 380.575 135.898C380.045 157.935 374.384 171.546 363.154 190.892C363.73 193.113 368.133 191.849 372.258 194.951C375.218 201.167 366.769 204.188 362.326 207.521C359.929 209.32 358.512 208.477 355.751 207.921C353.804 209.272 336.105 233.078 333 237.021L333.384 225.129C333.795 217.87 335.066 210.719 335.344 203.384C335.814 191.109 334.967 177.772 336.244 165.572C336.523 162.959 341.396 156.917 343.27 154.547C346.203 164.365 346.428 170.468 346.812 180.403C356.546 160.867 361.969 142.208 380.356 126.316Z" fill="#FE0101"/>
<path d="M391 563.455C392.524 564.403 401.269 572.873 402.462 574.281C409.118 582.107 438.438 602.989 436.291 612.598C432.113 616.046 424.024 609.001 420.495 606.46C423.726 615.598 428.805 625.166 432.262 634.399C436.978 646.979 438.807 657.822 441 670.784C440.098 672.09 440.17 672 438.684 672.74C426.424 670.05 414.106 636.308 410 626.203C408.767 630.701 406.082 643.179 402.268 645.326L401.08 644.885C396.228 636.558 400.056 606.991 398.317 596.827C396.222 584.63 391 576.482 391 563.455Z" fill="#FCD330"/>
<path d="M311.065 212.893C314.299 215.028 312.49 219.121 312.542 222.861C312.776 241.574 304.356 256.433 295.585 272.746C299.034 271.406 306.048 267.599 308.97 269.212C315.295 280.332 284.653 290.674 279.675 298.839C277.613 302.221 263.61 323.869 259.218 322.072C258.638 319.953 259.328 318.601 259.972 316.472C262.445 309.865 266.902 299.029 268.126 292.625C265.367 286.536 268.698 271.444 269.368 264.219C269.843 259.081 270.377 240.4 274.769 237.826L276.214 238.149C278.628 241.737 279.845 259.16 280.892 265.084C284.25 257.627 287.048 249.831 290.666 242.442C296.125 231.294 303.042 222.453 311.065 212.893Z" fill="#FCD330"/>
<path d="M97 117.8C107.85 120.921 131.211 149.641 138.176 159.229C138.529 152.769 136.09 143.351 141.06 138.786C150.648 136.913 152.263 175.934 154.566 180.888C158.732 189.852 162.289 196.925 165.429 206.315L170 218.569C158.568 210.808 146.92 199.82 134.73 193.244C133.768 192.728 129.216 192.397 127.849 192.291C125.776 188.797 121.283 181.15 121.8 177.344C124.534 175.023 124.141 176.783 127.287 175.182C125.103 170.597 119.805 165.395 116.686 160.471C107.549 146.068 102.304 133.454 97 117.8Z" fill="#00009F"/>
<path d="M330.129 757.897C332.64 758.553 362.713 789.608 368.187 793.667C370.123 795.109 374.296 801.237 372.321 804.098C369.051 804.99 365.506 803.235 362.569 801.958C366.879 810.568 385.951 855.604 379.783 861.407C377.108 861.549 378.436 861.732 375.774 860.397C359.816 847.225 359.384 834.301 349.266 817.488C347.814 821.909 345.97 835.524 340.463 836.121C335.446 832.634 338.671 799.707 336.774 790.973C334.831 782.043 329.069 765.834 330.129 757.897Z" fill="#00009F"/>
<path d="M322 627.323C325.342 628.811 339.084 644.016 343.05 647.819C349.012 653.544 368.874 666.969 369.314 674.146C366.891 678.092 361.881 675.848 358.02 674.747C358.119 674.926 358.224 675.104 358.322 675.283C363.641 684.822 381.329 723.718 377.449 732.478C377.048 733.383 376.582 733.365 375.696 733.77L373.378 732.883C361.993 725.361 353.575 703.211 345.072 690.142C343.47 694.909 342.098 705.145 339.104 708.394C334.587 708.46 334.265 701.152 334.304 698.045C334.377 692.219 333.589 685.911 333.746 680.157C334.252 661.75 324.85 645.099 322 627.323Z" fill="#00009F"/>
<path d="M167.282 777.768L168 778.904C161.287 800.712 153.398 822.578 145.327 844.005C143.975 847.602 140.697 858.348 137.191 859.619C135.388 856.965 134.853 843.389 134.396 839.282C128.708 846.114 122.171 852.623 116.503 859.508C110.848 866.375 106.048 873.388 99.949 879.956C99.5376 879.558 99.2895 878.931 99.0022 878.392C98.754 860.633 119.592 830.716 132.084 816.502L116.333 817.645C120.395 807.485 132.215 799.897 142.043 793.769L141.625 802.774C147.534 796.61 160.862 782.039 167.282 777.768Z" fill="#FE0101"/>
<path d="M265 678.417C268.504 679.802 293.597 709.448 299.371 714.031C301.425 715.656 303.485 718.696 302.521 721.36C300.71 722.041 300.06 721.941 298.131 721.97L297.462 721.976C297.048 723.291 303.531 737.345 304.575 740.015C306.438 744.715 308.02 749.497 309.306 754.35C310.415 758.652 315.041 772.324 308.814 773.509C305.881 772.811 303.807 770.892 301.399 769.103C294.45 761.122 286.621 742.209 282.35 732.48C280.329 739.211 278.655 745.513 275.84 752.038C270.886 748.048 268.707 745.853 265.072 740.93C272.592 713.291 265.532 704.049 265.013 679.263L265 678.417Z" fill="#FCD330"/>
<path d="M120 219C128.745 222.762 146.492 254.488 151.244 262.996C150.901 257.286 149.122 230.555 150.987 226.799C152.549 225.617 152.43 225.484 154.414 225.359C156.536 227.462 161.735 262.338 162.263 267.707C163.673 282.204 169.775 293.187 174.112 307.23C177.018 316.336 179.153 326.058 182 335.381C175.588 328.513 169.116 321.689 162.585 314.911C156.852 309.06 145.734 299.627 144.621 291.235C144.397 289.52 147.184 288.182 148.66 287.166C149.227 285.51 143.843 277.119 142.565 274.877C132.422 257.121 124.191 238.655 120 219Z" fill="#00009F"/>
<path d="M302.386 340.628L303 341.585C299.318 365.716 299.305 365.766 283.658 386.808C287.646 386.841 293.593 386.321 296.009 389.507C294.768 392.9 280.048 404.105 276.621 407.661C263.806 420.971 252.519 435.636 239 448.494C240.044 444.442 242.329 438.947 243.863 434.891C248.524 421.662 251.997 414.16 259.537 402.367C259.387 400.439 257.82 399.555 256.599 398.128C253.12 394.081 256.593 364.688 257.396 358.172C261.182 367.61 262.422 376.123 265.347 385.643C272.978 374.868 292.986 348.648 302.386 340.628Z" fill="#FCD330"/>
<path d="M180 194.442C189.372 196.579 206.607 219.819 212.076 226.944C212.429 221.932 213.199 216.342 213.767 211.301C220.045 211.216 225.227 211.134 231.525 211.54C229.143 221.237 227.446 227.502 223.85 236.678C231.251 246.622 233.437 255.062 237.418 266.458C237.692 267.059 237.96 267.662 238.214 268.267C239.121 270.448 239.297 270.521 238.456 272.183L236.759 272.503C230.2 270.778 221.742 263.757 216.73 259.561C214.935 262.997 211.58 270.459 208.35 272.357L207.495 271.932C205.178 266.362 202.235 255.938 201.993 249.976C206.072 242.308 200.009 241.173 196.4 234.474C189.874 222.38 181.769 207.808 180 194.442Z" fill="#FE0101"/>
<path d="M240 546.424C243.916 548.026 263.064 573.277 267.852 578.061C276.472 586.68 287.413 594.628 294.38 604.107C291.27 603.763 287.551 603.015 284.422 602.463C289.394 609.663 309.834 643.431 303.944 650.032L302.218 649.996C298.899 648.464 296.669 645.698 294.137 643.111C285.321 634.777 275.094 618.002 269.099 607.918C265.793 619.112 266.672 626.793 261.378 638.789C257.232 616.388 259.581 591.517 248.469 570.315C245.615 564.884 241.233 552.419 240 546.424Z" fill="#FCD330"/>
<path d="M236.341 711.061L236.998 711.64C237.197 714.95 223.794 783.694 222.639 785.701C222.029 786.77 222.387 786.424 221.113 786.842C218.53 784.835 214.069 772.463 211.64 768.288L211.209 767.565C204.723 775.026 190.922 796.985 182.91 801.895C177.082 794.058 200.972 750.917 205.759 741.891C202.957 742.303 198.317 742.333 195.337 742.434C199.432 732.918 209.058 727.494 217.913 721.682C218.106 725.177 217.993 729.472 217.993 733.02C224.75 726.688 228.932 717.907 236.341 711.061Z" fill="#FCD330"/>
<path d="M195.99 627.323C196.316 628.469 188.659 660.584 187.675 665.626C185.646 676.003 180.743 714.449 174.989 721.383L173.984 721.4C171.35 718.053 170.259 704.639 169.294 699.406C161.658 711.513 154.693 722.033 146.85 733.997C145.619 736.014 142.586 741.874 140.371 742.285C139.473 739.469 140.411 734.946 141.036 732.046C145.659 710.636 157.134 691.631 169.175 673.001C166.614 673.353 162.396 674.386 160.58 672.608C161.777 666.688 190.129 632.908 195.99 627.323Z" fill="#00009F"/>
<path d="M287 547.844C304.479 551.674 317.317 555.427 335.768 556.543C346.509 557.194 356.422 556.895 366.887 557.51C366.315 558.292 363.147 562.576 362.391 563.071C361.352 563.757 359.946 563.095 358.342 565.04C359.847 570.195 382.124 609.88 370.805 611.712C368.149 610.828 366.696 608.955 364.718 607.01C352.616 593.579 347.114 585.166 337.504 570.261C335.998 577.642 336.919 587.391 335.17 593.03C331.081 591.252 323.101 578.548 319.302 574.849C312.018 567.755 304.867 561.096 296.229 555.26C293.094 553.142 289.123 550.791 287 547.844Z" fill="#FCD330"/>
<path d="M372.593 386.045C376.417 389.489 371.418 407.001 369.734 411.429C367.065 418.464 362.451 425.117 358.183 431.439C363.313 433.666 363.978 434.768 367.692 438.65C354.49 440.21 341.294 439.743 328.791 441.249C315.98 442.792 299.104 447.181 286 449.913C288.708 447.683 291.482 445.878 294.399 443.896C304.834 436.975 313.546 429.46 321.41 420.079C323.642 417.417 331.212 404.721 334.775 405.002C336.824 408.488 336.335 422.731 336.628 427.769C343.768 421.316 346.541 413.026 352.277 406.048C357.576 399.6 366.289 391.841 372.593 386.045Z" fill="#FCD330"/>
<path d="M211.783 468.626C213.459 468.379 213.713 468.472 215.435 468.62L216.022 469.515C205.731 478.334 197.475 487.625 187.798 495.97C195.741 504.059 207.029 514.216 215.937 521.445C217.085 522.374 216.596 521.539 217 523.035C214.215 524.94 208.255 522.824 205.014 522.655C190.576 521.895 185.346 517.378 175.349 509.131C174.292 510.394 173.203 511.627 172.075 512.837C162.795 522.696 150.653 521.083 136.058 522.164L128.213 522.316C128.376 522.211 128.546 522.1 128.709 521.994L129.53 521.439C136.71 516.624 149.075 503.1 157.115 496.14C146.675 487.338 137.649 475.924 127 468.701C136.267 469.091 155.433 471.187 164.739 472.514C169.747 476.03 171.749 478.856 175.114 483.54C189.898 470.526 191.926 471.595 211.783 468.626Z" fill="#FCD330"/>
<path d="M247.688 257L248.739 258.109C249.612 261.723 248.062 267.976 247.491 271.658C244.299 292.289 238.552 301.03 228.457 318.726C242.9 311.837 243.885 323.635 236.227 327.333C217.016 336.607 205.778 351.345 189.411 363.446C188.623 361.971 189.142 361.516 189.536 359.514C193.325 346.706 196.511 333.759 199.085 320.71C200.307 314.483 201.929 291.797 208.366 289.453C210.205 291.626 212.536 305.463 213.633 309.496C224.779 282.885 227.859 279.584 247.688 257Z" fill="#00009F"/>
<path d="M190 626.014C193.342 627.501 207.084 642.706 211.05 646.509C217.012 652.234 236.874 665.66 237.314 672.837C234.891 676.782 229.881 674.539 226.02 673.438C226.119 673.616 226.224 673.795 226.322 673.973C231.641 683.513 249.329 722.409 245.449 731.169C245.048 732.073 244.582 732.055 243.696 732.46L241.378 731.573C229.993 724.051 221.575 701.901 213.072 688.833C211.47 693.6 210.098 703.836 207.104 707.085C202.587 707.15 202.265 699.842 202.304 696.736C202.377 690.91 201.589 684.602 201.746 678.847C202.252 660.44 192.85 643.789 190 626.014Z" fill="#00009F"/>
<path d="M133 677.108C136.504 678.493 161.597 708.138 167.371 712.721C169.425 714.347 171.485 717.386 170.521 720.05C168.71 720.731 168.06 720.631 166.131 720.661L165.462 720.667C165.048 721.981 171.531 736.035 172.575 738.705C174.438 743.405 176.02 748.188 177.306 753.041C178.415 757.342 183.041 771.015 176.814 772.2C173.881 771.502 171.807 769.583 169.399 767.793C162.45 759.812 154.621 740.9 150.35 731.17C148.329 737.901 146.655 744.203 143.84 750.729C138.886 746.738 136.707 744.544 133.072 739.62C140.592 711.982 133.532 702.74 133.013 677.953L133 677.108Z" fill="#FCD330"/>
<path d="M170.386 339.318L171 340.275C167.318 364.407 167.305 364.456 151.658 385.499C155.646 385.531 161.593 385.011 164.009 388.197C162.768 391.591 148.048 402.796 144.621 406.351C131.806 419.662 120.519 434.327 107 447.184C108.044 443.132 110.329 437.637 111.863 433.581C116.524 420.353 119.997 412.85 127.537 401.057C127.387 399.129 125.82 398.246 124.599 396.819C121.12 392.771 124.593 363.378 125.396 356.862C129.182 366.301 130.422 374.813 133.347 384.334C140.978 373.559 160.986 347.338 170.386 339.318Z" fill="#FCD330"/>
<path d="M108 545.114C111.916 546.717 131.064 571.967 135.852 576.752C144.472 585.37 155.413 593.318 162.38 602.797C159.27 602.453 155.551 601.705 152.422 601.153C157.394 608.353 177.834 642.121 171.944 648.722L170.218 648.686C166.899 647.155 164.669 644.389 162.137 641.801C153.321 633.467 143.094 616.693 137.099 606.608C133.793 617.803 134.672 625.484 129.378 637.48C125.232 615.078 127.581 590.208 116.469 569.005C113.615 563.574 109.233 551.109 108 545.114Z" fill="#FCD330"/>
<path d="M155 546.534C172.479 550.365 185.317 554.118 203.768 555.234C214.509 555.884 224.422 555.586 234.887 556.2C234.315 556.982 231.147 561.266 230.391 561.761C229.352 562.447 227.946 561.785 226.342 563.73C227.847 568.886 250.124 608.57 238.805 610.402C236.149 609.519 234.696 607.645 232.718 605.7C220.616 592.269 215.114 583.856 205.504 568.951C203.998 576.332 204.919 586.082 203.17 591.72C199.081 589.942 191.101 577.239 187.302 573.54C180.018 566.445 172.867 559.786 164.229 553.951C161.094 551.833 157.123 549.482 155 546.534Z" fill="#FCD330"/>
<path d="M240.593 384.735C244.417 388.179 239.418 405.692 237.734 410.119C235.065 417.155 230.451 423.807 226.183 430.129C231.313 432.357 231.978 433.458 235.692 437.34C222.49 438.901 209.294 438.434 196.791 439.94C183.98 441.482 167.104 445.871 154 448.603C156.708 446.374 159.482 444.569 162.399 442.586C172.834 435.665 181.546 428.15 189.41 418.769C191.642 416.107 199.212 403.412 202.775 403.692C204.824 407.178 204.335 421.422 204.628 426.46C211.768 420.007 214.541 411.716 220.277 404.738C225.576 398.29 234.289 390.532 240.593 384.735Z" fill="#FCD330"/>
<path d="M402.51 752.866C401.958 741.185 401.709 731.665 397.976 720.319C396.622 716.208 390.807 699.016 393.889 696.868C399.665 700.111 421.83 726.441 430.097 732.484C437.404 737.822 448.273 757.545 424.281 745.637L428.02 753.159C424.294 755.187 415.804 759.448 412.919 761.865C410.941 765.97 411.224 777.597 405.704 782.025L404.606 781.822C402.083 777.627 402.267 758.526 402.51 752.866Z" fill="#FCD330"/>
<path d="M427.166 753.64C432.386 765.876 445.519 797.656 442.575 809.344L441.486 810.411C432.709 809.974 423.912 785.729 421.193 779.955C418.375 773.971 415.188 767.981 412 762.126C414.897 759.769 423.424 755.617 427.166 753.64Z" fill="#FFD941"/>
<path d="M247.431 295.211L247.857 295.546C248.837 298.197 244.496 309.044 243.248 312.218L243 312.242C243.955 306.853 245.476 300.35 247.431 295.211Z" fill="#E0BF2B"/>
</svg>
